SplineFontDB: 3.0
FontName: EaterCaps-Regular
FullName: Eater Caps Regular
FamilyName: Eater Caps
Weight: Regular
Copyright: Copyright (c) 2011, Typomondo, with Reserved Font Name  "Eater"
Version: 001.002
ItalicAngle: 0
UnderlinePosition: -103
UnderlineWidth: 102
Ascent: 1638
Descent: 410
sfntRevision: 0x00010083
LayerCount: 2
Layer: 0 1 "Back"  1
Layer: 1 1 "Fore"  0
NeedsXUIDChange: 1
XUID: [1021 118 1023546858 4976522]
FSType: 0
OS2Version: 3
OS2_WeightWidthSlopeOnly: 0
OS2_UseTypoMetrics: 1
CreationTime: 1318951038
ModificationTime: 1319464054
PfmFamily: 81
TTFWeight: 400
TTFWidth: 5
LineGap: 0
VLineGap: 0
Panose: 0 0 0 0 0 0 0 0 0 0
OS2TypoAscent: 2159
OS2TypoAOffset: 0
OS2TypoDescent: -848
OS2TypoDOffset: 0
OS2TypoLinegap: 0
OS2WinAscent: 2159
OS2WinAOffset: 0
OS2WinDescent: 848
OS2WinDOffset: 0
HheadAscent: 2159
HheadAOffset: 0
HheadDescent: -848
HheadDOffset: 0
OS2SubXSize: 1331
OS2SubYSize: 1228
OS2SubXOff: 0
OS2SubYOff: 153
OS2SupXSize: 1331
OS2SupYSize: 1228
OS2SupXOff: 0
OS2SupYOff: 716
OS2StrikeYSize: 102
OS2StrikeYPos: 1137
OS2Vendor: 'typm'
OS2CodePages: 20000001.00000000
OS2UnicodeRanges: 00000003.00000000.00000000.00000000
MarkAttachClasses: 1
DEI: 91125
TtTable: prep
PUSHW_1
 511
SCANCTRL
PUSHB_1
 4
SCANTYPE
EndTTInstrs
LangName: 1033 "" "" "" "" "" "" "" "" "" "" "" "" "" "This Font Software is licensed under the SIL Open Font License, Version 1.1. This license is available with a FAQ at: http://scripts.sil.org/OFL" "http://scripts.sil.org/OFL" 
GaspTable: 1 65535 15
Encoding: UnicodeBmp
Compacted: 1
UnicodeInterp: none
NameList: Adobe Glyph List
DisplaySize: -96
AntiAlias: 1
FitToEm: 1
WidthSeparation: 460
WinInfo: 32 8 2
BeginPrivate: 6
BlueValues 27 [-16 0 1780 1780 1896 1896]
OtherBlues 11 [-541 -541]
StdHW 5 [178]
StdVW 5 [362]
StemSnapH 17 [160 178 199 225]
StemSnapV 21 [215 268 297 324 362]
EndPrivate
BeginChars: 65538 344

StartChar: E
Encoding: 69 69 4
Width: 1466
Flags: HMW
LayerCount: 2
Fore
SplineSet
1083 1389 m 1,0,1
 1039.02941176 1454 1039.02941176 1454 997 1454 c 2,2,-1
 700 1452 l 2,3,4
 685 1452 685 1452 674.5 1414 c 128,-1,5
 664 1376 664 1376 664 1317 c 1,6,-1
 670 1294 l 2,7,8
 670 1292 670 1292 681 1277 c 128,-1,9
 692 1262 692 1262 692 1200 c 1,10,-1
 682 1055 l 1,11,12
 682 1012 682 1012 695 962.5 c 128,-1,13
 708 913 708 913 731 913 c 0,14,15
 734 913 734 913 777.5 931.5 c 128,-1,16
 821 950 821 950 852 950 c 128,-1,17
 883 950 883 950 899 948 c 1,18,19
 934 948 934 948 934 981 c 2,20,-1
 934 1118 l 2,21,22
 934 1136.12903226 934 1136.12903226 915.5 1148.06451613 c 128,-1,23
 897 1160 897 1160 864 1174 c 1,24,-1
 870 1186 l 1,25,26
 909 1161 909 1161 929.5 1161 c 128,-1,27
 950 1161 950 1161 961.5 1171 c 128,-1,28
 973 1181 973 1181 995 1260 c 1,29,-1
 1003 1257 l 1,30,31
 985 1197 985 1197 985 1173 c 128,-1,32
 985 1149 985 1149 1013.5 1118 c 128,-1,33
 1042 1087 1042 1087 1063 1087 c 128,-1,34
 1084 1087 1084 1087 1143 1114 c 1,35,-1
 1153 1096 l 1,36,37
 1107 1069 1107 1069 1095 1055 c 128,-1,38
 1083 1041 1083 1041 1083 1018 c 2,39,-1
 1083 1014 l 1,40,41
 1082 1005 1082 1005 1111 972 c 128,-1,42
 1140 939 1140 939 1139 909 c 2,43,-1
 1137 854 l 2,44,45
 1137 838 1137 838 1163 823 c 0,46,47
 1164 823 1164 823 1214 803 c 1,48,-1
 1206 774 l 1,49,-1
 1153 795 l 2,50,51
 1147 797 1147 797 1136 797 c 128,-1,52
 1125 797 1125 797 1108 780 c 1,53,-1
 1087 752 l 1,54,55
 1083 744 1083 744 1083 737 c 2,56,-1
 1087 698 l 1,57,58
 1087 624 1087 624 1053 590 c 0,59,60
 1025.56862745 562.568627451 1025.56862745 562.568627451 1024 481 c 1,61,-1
 1008 481 l 1,62,-1
 1008 502 l 2,63,64
 1008 565.076923077 1008 565.076923077 983 592 c 0,65,66
 916 661 916 661 909 803 c 1,67,68
 909 827 909 827 889 827 c 1,69,-1
 799 813 l 1,70,-1
 739 817 l 1,71,72
 717 817 717 817 699.5 771.5 c 128,-1,73
 682 726 682 726 682 694 c 2,74,-1
 682 653 l 2,75,76
 682 496 682 496 686 496 c 0,77,78
 708 496 708 496 737 504 c 1,79,-1
 745 475 l 1,80,81
 695 463 695 463 682.5 449.5 c 128,-1,82
 670 436 670 436 670 410 c 2,83,-1
 670 369 l 2,84,85
 670 338 670 338 700 338 c 2,86,-1
 856 338 l 2,87,88
 882 338 882 338 895 351 c 128,-1,89
 908 364 908 364 920 414 c 1,90,-1
 948 408 l 1,91,92
 940 377 940 377 940 356 c 0,93,94
 940 323 940 323 1001 298.5 c 128,-1,95
 1062 274 1062 274 1091 274 c 0,96,97
 1138.76923077 274 1138.76923077 274 1141 303 c 1,98,-1
 1149 350 l 2,99,100
 1161 424 1161 424 1290 438 c 0,101,102
 1321.41818182 441.490909091 1321.41818182 441.490909091 1386 498 c 1,103,-1
 1397 487 l 1,104,105
 1332.26717557 430.358778626 1332.26717557 430.358778626 1325.63358779 396.679389313 c 128,-1,106
 1319 363 1319 363 1301 256 c 128,-1,107
 1283 149 1283 149 1273.5 116.5 c 128,-1,108
 1264 84 1264 84 1264 72 c 1,109,-1
 1292 -10 l 1,110,-1
 1270 -16 l 1,111,112
 1235.62809614 72.1714055575 1235.62809614 72.1714055575 1240.79720671 67.0468096844 c 1,113,114
 1227.67296081 88.6282309315 1227.67296081 88.6282309315 1213.3364804 91.8141154657 c 128,-1,115
 1199 95 1199 95 1188.5 98.5 c 128,-1,116
 1178 102 1178 102 1165 102 c 0,117,118
 1133 102 1133 102 1110 45 c 1,119,-1
 1092 53 l 1,120,121
 1108 93.8888888889 1108 93.8888888889 1108 109.444444444 c 128,-1,122
 1108 125 1108 125 1109.5 125 c 128,-1,123
 1111 125 1111 125 1112 124.5 c 128,-1,124
 1113 124 1113 124 1115.5 123 c 1,125,126
 1083.87154762 138.06591061 1083.87154762 138.06591061 1025.43577381 154.532955305 c 128,-1,127
 967 171 967 171 951.5 179.5 c 128,-1,128
 936 188 936 188 928 188 c 2,129,-1
 471 188 l 2,130,131
 372 188 372 188 360 139 c 1,132,-1
 322 53 l 1,133,-1
 289 68 l 1,134,-1
 332 158 l 1,135,136
 342 202 342 202 342 271 c 128,-1,137
 342 340 342 340 309 701.5 c 128,-1,138
 276 1063 276 1063 274 1255 c 1,139,140
 272 1275 272 1275 259.5 1287 c 128,-1,141
 247 1299 247 1299 199 1315 c 1,142,-1
 205 1335 l 1,143,144
 265 1319 265 1319 271.5 1319 c 128,-1,145
 278 1319 278 1319 282.5 1319.5 c 0,146,147
 293.779220779 1320.75324675 293.779220779 1320.75324675 301 1337 c 1,148,-1
 326 1368 l 1,149,-1
 336 1395 l 1,150,-1
 338 1403 l 1,151,-1
 330 1434 l 1,152,153
 325 1448 325 1448 275.5 1461.5 c 128,-1,154
 226 1475 226 1475 200.5 1475 c 128,-1,155
 175 1475 175 1475 143 1413 c 1,156,-1
 121 1425 l 1,157,158
 141 1469 141 1469 141 1484.5 c 128,-1,159
 141 1500 141 1500 123 1520 c 1,160,-1
 72 1563 l 1,161,162
 50 1579 50 1579 41.5 1579 c 128,-1,163
 33 1579 33 1579 -33 1563 c 1,164,-1
 -41 1583 l 1,165,166
 13 1602 13 1602 29 1620 c 128,-1,167
 45 1638 45 1638 45 1665 c 2,168,-1
 45 1688 l 2,169,170
 45 1706.97297297 45 1706.97297297 -10 1759 c 1,171,-1
 -4 1765 l 1,172,173
 51 1710 51 1710 68 1710 c 2,174,-1
 72 1710 l 2,175,176
 84.5161290323 1710 84.5161290323 1710 95.2580645161 1728.5 c 128,-1,177
 106 1747 106 1747 121 1780 c 1,178,-1
 129 1776 l 1,179,180
 104 1722 104 1722 104 1710 c 128,-1,181
 104 1698 104 1698 113 1687.5 c 128,-1,182
 122 1677 122 1677 129 1677 c 2,183,-1
 135 1677 l 1,184,185
 157.862068966 1680.51724138 157.862068966 1680.51724138 178 1751 c 1,186,-1
 199 1745 l 1,187,188
 188 1710 188 1710 188 1685.5 c 128,-1,189
 188 1661 188 1661 238.5 1636.5 c 128,-1,190
 289 1612 289 1612 317 1612 c 0,191,192
 338.351351351 1612 338.351351351 1612 369 1675 c 1,193,-1
 387 1667 l 1,194,195
 362 1612 362 1612 362 1602 c 0,196,197
 362 1579 362 1579 411.5 1555.5 c 128,-1,198
 461 1532 461 1532 483 1532 c 128,-1,199
 505 1532 505 1532 516 1544 c 128,-1,200
 527 1556 527 1556 545 1595 c 1,201,-1
 565 1587 l 1,202,203
 545 1543 545 1543 545 1526 c 1,204,205
 549 1538 549 1538 611.5 1547 c 128,-1,206
 674 1556 674 1556 704 1556 c 128,-1,207
 734 1556 734 1556 746.5 1569.5 c 128,-1,208
 759 1583 759 1583 776 1626 c 1,209,-1
 797 1616 l 1,210,211
 776 1570 776 1570 776 1549.5 c 128,-1,212
 776 1529 776 1529 793 1520 c 1,213,214
 806 1505 806 1505 819 1505 c 2,215,-1
 1044 1505 l 2,216,217
 1045 1505 1045 1505 1049 1509 c 1,218,-1
 1053 1505 l 1,219,220
 1061 1505 1061 1505 1075 1519 c 128,-1,221
 1089 1533 1089 1533 1127.5 1548 c 128,-1,222
 1166 1563 1166 1563 1201.5 1572.5 c 128,-1,223
 1237 1582 1237 1582 1279.5 1612.5 c 128,-1,224
 1322 1643 1322 1643 1352 1692 c 1,225,-1
 1362 1683 l 1,226,227
 1317 1616 1317 1616 1317 1581 c 2,228,-1
 1317 1229 l 2,229,230
 1317 1193 1317 1193 1352 1116 c 1,231,-1
 1343 1112 l 1,232,233
 1312 1182 1312 1182 1282 1212 c 1,234,-1
 1184 1296 l 1,235,236
 1176 1300 1176 1300 1173 1305 c 1,237,238
 1159 1303 1159 1303 1147 1290.5 c 128,-1,239
 1135 1278 1135 1278 1112 1239 c 1,240,-1
 1098 1247 l 1,241,242
 1126 1299 1126 1299 1126 1323.5 c 128,-1,243
 1126 1348 1126 1348 1071 1399 c 1,244,-1
 1083 1389 l 1,0,1
EndSplineSet
EndChar

StartChar: F
Encoding: 70 70 5
Width: 1336
Flags: HMW
LayerCount: 2
Fore
SplineSet
784 1159 m 1,0,1
 776.697674419 1188.20930233 776.697674419 1188.20930233 764.348837209 1208.10465116 c 128,-1,2
 752 1228 752 1228 711 1276 c 1,3,-1
 717 1282 l 1,4,5
 791.464802314 1193.74541948 791.464802314 1193.74541948 837 1183.5 c 0,6,7
 861.444444444 1178 861.444444444 1178 895.222222222 1178 c 128,-1,8
 929 1178 929 1178 987 1231 c 1,9,-1
 997 1219 l 1,10,11
 959 1182 959 1182 948.5 1164 c 128,-1,12
 938 1146 938 1146 938 1126 c 2,13,-1
 938 825 l 2,14,15
 938 804 938 804 925.5 765 c 128,-1,16
 913 726 913 726 913 708.166666667 c 128,-1,17
 913 690.333333333 913 690.333333333 973 647 c 1,18,-1
 962 633 l 1,19,20
 914 670 914 670 893 670 c 0,21,22
 848 670 848 670 848 575 c 0,23,24
 848 530.88 848 530.88 932 504 c 1,25,-1
 926 485 l 1,26,27
 880 502 880 502 858.5 502 c 128,-1,28
 837 502 837 502 828 496.5 c 0,29,30
 804.1275 481.91125 804.1275 481.91125 778 383 c 1,31,-1
 768 387 l 1,32,33
 784 444 784 444 784 472.5 c 128,-1,34
 784 501 784 501 757 543.5 c 128,-1,35
 730 586 730 586 705.5 586 c 128,-1,36
 681 586 681 586 641 571 c 1,37,-1
 633 596 l 1,38,39
 681 613 681 613 693.5 627 c 128,-1,40
 706 641 706 641 706 664 c 2,41,-1
 706 715 l 2,42,43
 706 745 706 745 676 745 c 2,44,-1
 561 745 l 2,45,46
 530 745 530 745 530 715 c 2,47,-1
 530 369 l 2,48,49
 530 310.255319149 530 310.255319149 589.5 290 c 0,50,51
 662.300699301 265.216783217 662.300699301 265.216783217 681.65034965 241.108391608 c 128,-1,52
 701 217 701 217 720 206.5 c 128,-1,53
 739 196 739 196 790 178 c 1,54,-1
 786 166 l 1,55,56
 721 188 721 188 696 188 c 1,57,-1
 629 176 l 1,58,59
 623 176 623 176 618 178 c 1,60,-1
 530 188 l 1,61,62
 375.022222222 188 375.022222222 188 271.5 149.5 c 0,63,64
 211 127 211 127 211 94 c 0,65,66
 211 74 211 74 237 25 c 1,67,-1
 225 18 l 1,68,69
 195 74 195 74 182 80 c 1,70,71
 143 69 143 69 143 35 c 1,72,-1
 117 37 l 1,73,74
 216 173 216 173 311 229 c 1,75,76
 315 237 315 237 315 242 c 2,77,-1
 315 457 l 2,78,79
 315 662 315 662 289 662 c 0,80,81
 272 662 272 662 237 653 c 1,82,-1
 231 682 l 1,83,84
 275 693 275 693 288 704 c 128,-1,85
 301 715 301 715 301 733 c 1,86,-1
 293 836 l 1,87,-1
 276 1356 l 2,88,89
 276 1381 276 1381 250 1384 c 1,90,-1
 194 1399 l 2,91,92
 190 1401 190 1401 182 1401 c 0,93,94
 160 1401 160 1401 125 1343 c 1,95,-1
 108 1354 l 1,96,97
 137 1398 137 1398 137 1419 c 0,98,99
 137 1464 137 1464 57 1464 c 0,100,101
 42 1464 42 1464 -43 1432 c 1,102,-1
 -45 1438 l 1,103,104
 23.8416993654 1463.03334522 23.8416993654 1463.03334522 29.4208496827 1469.65738616 c 128,-1,105
 35 1476.2814271 35 1476.2814271 35 1487.14071355 c 128,-1,106
 35 1498 35 1498 6 1546 c 1,107,-1
 27 1561 l 1,108,109
 61 1507 61 1507 82 1507 c 0,110,111
 99.3333333333 1507 99.3333333333 1507 133.166666667 1532 c 128,-1,112
 167 1557 167 1557 176.5 1574.5 c 128,-1,113
 186 1592 186 1592 201 1642 c 1,114,-1
 213 1638 l 1,115,116
 199 1583 199 1583 199 1562 c 128,-1,117
 199 1541 199 1541 210 1527 c 128,-1,118
 221 1513 221 1513 242 1507 c 128,-1,119
 263 1501 263 1501 281 1499 c 128,-1,120
 299 1497 299 1497 327 1496.5 c 128,-1,121
 355 1496 355 1496 367 1495 c 2,122,-1
 680 1483 l 1,123,124
 717 1483 717 1483 789 1495.5 c 128,-1,125
 861 1508 861 1508 868 1516 c 1,126,-1
 885 1532 l 2,127,128
 901 1548 901 1548 901 1566 c 128,-1,129
 901 1584 901 1584 870 1626 c 1,130,-1
 893 1642 l 1,131,132
 924 1591 924 1591 945 1591 c 128,-1,133
 966 1591 966 1591 984.5 1602.5 c 128,-1,134
 1003 1614 1003 1614 1008 1626 c 1,135,-1
 950 1612 l 1,136,137
 974 1619 974 1619 1010 1634 c 1,138,139
 1010 1662 1010 1662 995 1698 c 1,140,-1
 1026 1708 l 1,141,142
 1040 1667 1040 1667 1053 1653 c 1,143,144
 1139 1694 1139 1694 1175 1743 c 1,145,-1
 1239 1698 l 1,146,147
 1213 1661 1213 1661 1198.5 1602.5 c 128,-1,148
 1184 1544 1184 1544 1184 1497 c 1,149,-1
 1188 1434 l 1,150,-1
 1188 1227 l 2,151,152
 1188 1207 1188 1207 1198.5 1189 c 128,-1,153
 1209 1171 1209 1171 1245 1133 c 1,154,-1
 1235 1122 l 1,155,156
 1198 1159 1198 1159 1179.5 1169.5 c 128,-1,157
 1161 1180 1161 1180 1141 1180 c 2,158,-1
 1085 1180 l 2,159,160
 1064 1180 1064 1180 1050 1168 c 128,-1,161
 1036 1156 1036 1156 1012 1110 c 1,162,-1
 993 1120 l 1,163,164
 1022 1171 1022 1171 1022 1186 c 128,-1,165
 1022 1201 1022 1201 1014 1219 c 1,166,-1
 915 1374 l 1,167,168
 908 1381 908 1381 899 1384 c 1,169,-1
 846 1395 l 1,170,-1
 571 1382 l 2,171,172
 559 1382 559 1382 544.5 1360.5 c 128,-1,173
 530 1339 530 1339 530 1329 c 2,174,-1
 530 1266 l 1,175,176
 532 1178 532 1178 532 1104 c 1,177,178
 537 1098 537 1098 538.5 1052.5 c 0,179,180
 542.67032967 926 542.67032967 926 573 926 c 2,181,-1
 706 926 l 2,182,183
 760 926 760 926 760 1038 c 2,184,-1
 760 1079 l 1,185,-1
 784 1159 l 1,0,1
950 1612 m 2,186,187
 938 1608 938 1608 934 1608 c 2,188,-1
 950 1612 l 2,186,187
EndSplineSet
EndChar

StartChar: G
Encoding: 71 71 6
Width: 1545
Flags: HMW
LayerCount: 2
Fore
SplineSet
842 127 m 1,0,1
 781.793650794 127 781.793650794 127 775 20 c 1,2,-1
 758 23 l 1,3,4
 760 39 760 39 760 64 c 128,-1,5
 760 89 760 89 752 106 c 128,-1,6
 744 123 744 123 734 123 c 1,7,-1
 676 16 l 1,8,9
 694 55 694 55 695.5 88.5 c 128,-1,10
 697 122 697 122 668 141 c 1,11,-1
 660 141 l 1,12,13
 648 137 648 137 644 131 c 2,14,-1
 629 111 l 2,15,16
 613 90 613 90 613 65 c 128,-1,17
 613 40 613 40 619 2 c 1,18,-1
 603 0 l 1,19,20
 590.578947368 80.7368421053 590.578947368 80.7368421053 564 102 c 0,21,22
 427.604651163 217 427.604651163 217 363 217 c 0,23,24
 332 217 332 217 293 168 c 1,25,-1
 271 188 l 1,26,27
 306 231 306 231 306 250.5 c 128,-1,28
 306 270 306 270 290 299.5 c 128,-1,29
 274 329 274 329 273.5 341 c 128,-1,30
 273 353 273 353 240 385 c 128,-1,31
 207 417 207 417 200 430.5 c 128,-1,32
 193 444 193 444 173.5 444 c 128,-1,33
 154 444 154 444 115 434 c 1,34,-1
 111 449 l 1,35,36
 178.95620438 466.883211679 178.95620438 466.883211679 181.97810219 474.941605839 c 128,-1,37
 185 483 185 483 185 510 c 128,-1,38
 185 537 185 537 141 619 c 128,-1,39
 97 701 97 701 97 756 c 2,40,-1
 97 1049 l 2,41,42
 97 1118 97 1118 134 1252 c 128,-1,43
 171 1386 171 1386 171 1454 c 0,44,45
 171 1469 171 1469 158 1480.5 c 128,-1,46
 145 1492 145 1492 103 1511 c 1,47,-1
 111 1530 l 1,48,49
 156 1511 156 1511 176.5 1511 c 128,-1,50
 197 1511 197 1511 234.5 1560 c 128,-1,51
 272 1609 272 1609 299 1656 c 128,-1,52
 326 1703 326 1703 326 1706 c 0,53,54
 326 1729 326 1729 302 1778 c 1,55,-1
 320 1788 l 1,56,57
 343 1741 343 1741 356.5 1728.5 c 128,-1,58
 370 1716 370 1716 390 1716 c 2,59,-1
 441 1716 l 2,60,61
 457 1716 457 1716 468.5 1729 c 128,-1,62
 480 1742 480 1742 480 1762.5 c 128,-1,63
 480 1783 480 1783 470 1817 c 1,64,-1
 490 1823 l 1,65,66
 505 1773 505 1773 515.5 1761 c 128,-1,67
 526 1749 526 1749 547 1749 c 2,68,-1
 691 1749 l 2,69,70
 712 1749 712 1749 721 1752.5 c 0,71,72
 743.366336634 1761.1980198 743.366336634 1761.1980198 754 1825 c 1,73,-1
 789 1819 l 1,74,75
 785 1800 785 1800 785 1776 c 0,76,77
 785 1718 785 1718 869 1718 c 0,78,79
 881 1718 881 1718 890 1731 c 128,-1,80
 899 1744 899 1744 914 1786 c 1,81,-1
 930 1782 l 1,82,83
 914 1738 914 1738 914 1720.5 c 128,-1,84
 914 1703 914 1703 930 1693 c 128,-1,85
 946 1683 946 1683 973.5 1672.5 c 128,-1,86
 1001 1662 1001 1662 1031.5 1647 c 0,87,88
 1108.89250814 1608.93811075 1108.89250814 1608.93811075 1154 1530 c 1,89,90
 1164 1516 1164 1516 1178 1516 c 2,91,-1
 1295 1516 l 2,92,93
 1314 1516 1314 1516 1326.5 1528 c 128,-1,94
 1339 1540 1339 1540 1360 1587 c 1,95,-1
 1379 1579 l 1,96,97
 1356 1529 1356 1529 1356 1512.5 c 128,-1,98
 1356 1496 1356 1496 1371 1480 c 128,-1,99
 1386 1464 1386 1464 1405 1464 c 128,-1,100
 1424 1464 1424 1464 1467 1481 c 1,101,-1
 1475 1462 l 1,102,103
 1412.94581281 1438.27339901 1412.94581281 1438.27339901 1406.4729064 1426.13669951 c 128,-1,104
 1400 1414 1400 1414 1399 1401 c 2,105,-1
 1393 1180 l 2,106,107
 1393 1148.35294118 1393 1148.35294118 1449 1094 c 1,108,-1
 1436 1081 l 1,109,110
 1400 1119 1400 1119 1382 1130 c 128,-1,111
 1364 1141 1364 1141 1344 1141 c 2,112,-1
 1340 1141 l 1,113,114
 1338 1137 1338 1137 1338 1120.5 c 128,-1,115
 1338 1104 1338 1104 1385 1067 c 1,116,-1
 1367 1042 l 1,117,118
 1324 1077 1324 1077 1303 1077 c 1,119,120
 1279.64285714 1010.82142857 1279.64285714 1010.82142857 1248 995 c 1,121,-1
 1221 1030 l 1,122,-1
 1204 1066 l 2,123,124
 1182 1112 1182 1112 1182 1136.5 c 128,-1,125
 1182 1161 1182 1161 1179 1185.5 c 128,-1,126
 1176 1210 1176 1210 1162 1245.5 c 128,-1,127
 1148 1281 1148 1281 1125 1296 c 1,128,129
 1121 1301 1121 1301 1107.5 1315 c 0,130,131
 1078.1483871 1345.43870968 1078.1483871 1345.43870968 1066 1368 c 1,132,133
 1041 1362 1041 1362 1000.5 1362 c 128,-1,134
 960 1362 960 1362 922 1366 c 1,135,-1
 969 1366 l 2,136,137
 983 1366 983 1366 992.5 1374 c 128,-1,138
 1002 1382 1002 1382 1002 1401 c 128,-1,139
 1002 1420 1002 1420 961 1456.5 c 128,-1,140
 920 1493 920 1493 902 1493 c 1,141,-1
 748 1505 l 1,142,143
 679.451612903 1505 679.451612903 1505 628.5 1464.5 c 0,144,145
 574.706896552 1421.74137931 574.706896552 1421.74137931 550.853448276 1416.87068966 c 128,-1,146
 527 1412 527 1412 520.5 1397.5 c 128,-1,147
 514 1383 514 1383 486.5 1321 c 0,148,149
 420 1171.07272727 420 1171.07272727 420 1167 c 2,150,-1
 420 756 l 2,151,152
 420 655 420 655 485 564 c 0,153,154
 573.421052632 440.210526316 573.421052632 440.210526316 594 393 c 0,155,156
 600 381 600 381 658 369.5 c 128,-1,157
 716 358 716 358 739.5 358 c 128,-1,158
 763 358 763 358 776 371.5 c 128,-1,159
 789 385 789 385 812 424 c 1,160,-1
 832 412 l 1,161,162
 803 361 803 361 803 342.5 c 128,-1,163
 803 324 803 324 828 299 c 1,164,-1
 816 276 l 1,165,166
 863 324 863 324 922.5 452.5 c 128,-1,167
 982 581 982 581 982 668 c 0,168,169
 982 705 982 705 896 705 c 0,170,171
 868 705 868 705 807 655 c 1,172,-1
 797 666 l 1,173,174
 838 700 838 700 849.5 716.5 c 128,-1,175
 861 733 861 733 863 750 c 1,176,-1
 863 752 l 2,177,178
 863 851 863 851 851 915.5 c 128,-1,179
 839 980 839 980 791 1071 c 1,180,-1
 797 1075 l 1,181,182
 854.649712879 967.387202625 854.649712879 967.387202625 921 936.5 c 0,183,184
 950 923 950 923 977.5 915 c 0,185,186
 1051.75273088 893.399205561 1051.75273088 893.399205561 1088 854 c 1,187,188
 1104 860 1104 860 1145 860 c 0,189,190
 1391 860 1391 860 1391 756 c 0,191,192
 1391 658.964285714 1391 658.964285714 1418 644.5 c 0,193,194
 1432 637 1432 637 1483 637 c 1,195,-1
 1483 616 l 1,196,197
 1432 616 1432 616 1418 610.5 c 128,-1,198
 1404 605 1404 605 1399 588 c 1,199,-1
 1399 578 l 2,200,201
 1399 554 1399 554 1442 500 c 1,202,-1
 1430 489 l 1,203,204
 1399 531 1399 531 1383.5 542 c 128,-1,205
 1368 553 1368 553 1350 553 c 2,206,-1
 1260 553 l 2,207,208
 1231.23076923 553 1231.23076923 553 1229 524 c 0,209,210
 1221 435 1221 435 1175 310 c 128,-1,211
 1129 185 1129 185 1082 125 c 1,212,-1
 1080 133 l 1,213,214
 1080 110 1080 110 1088 90.5 c 128,-1,215
 1096 71 1096 71 1129 23 c 1,216,-1
 1121 16 l 1,217,218
 1063.14649682 103.713375796 1063.14649682 103.713375796 1002 119 c 0,219,220
 978 125 978 125 943 125 c 2,221,-1
 883 125 l 1,222,-1
 842 127 l 1,0,1
676 16 m 1,223,-1
 670 6 l 1,224,-1
 676 16 l 1,223,-1
EndSplineSet
EndChar

StartChar: H
Encoding: 72 72 7
Width: 1561
Flags: HMW
LayerCount: 2
Fore
SplineSet
1072 1540 m 1,0,1
 1090 1549 1090 1549 1090 1595 c 2,2,-1
 1090 1636 l 1,3,-1
 1107 1636 l 1,4,5
 1108.7 1607.1 1108.7 1607.1 1110.85 1592.05 c 128,-1,6
 1113 1577 1113 1577 1113.5 1572 c 128,-1,7
 1114 1567 1114 1567 1117 1561.5 c 128,-1,8
 1120 1556 1120 1556 1120.5 1554 c 128,-1,9
 1121 1552 1121 1552 1126.5 1549.5 c 128,-1,10
 1132 1547 1132 1547 1133.5 1546.5 c 128,-1,11
 1135 1546 1135 1546 1143 1544.5 c 128,-1,12
 1151 1543 1151 1543 1153.5 1541.5 c 128,-1,13
 1156 1540 1156 1540 1172 1541 c 128,-1,14
 1188 1542 1188 1542 1241 1562 c 128,-1,15
 1294 1582 1294 1582 1316 1596.5 c 128,-1,16
 1338 1611 1338 1611 1344.5 1629 c 128,-1,17
 1351 1647 1351 1647 1357 1704 c 1,18,-1
 1371 1702 l 1,19,20
 1367 1671 1367 1671 1367 1639.5 c 128,-1,21
 1367 1608 1367 1608 1376.5 1596.5 c 128,-1,22
 1386 1585 1386 1585 1410 1585 c 128,-1,23
 1434 1585 1434 1585 1479 1591 c 1,24,-1
 1484 1575 l 1,25,26
 1429 1568 1429 1568 1411.5 1560.5 c 128,-1,27
 1394 1553 1394 1553 1385 1538 c 1,28,-1
 1371 1503 l 2,29,30
 1367 1491 1367 1491 1367 1485 c 0,31,32
 1367 1458 1367 1458 1420 1415 c 1,33,-1
 1404 1395 l 1,34,35
 1349 1440 1349 1440 1333.5 1440 c 128,-1,36
 1318 1440 1318 1440 1299 1423 c 1,37,38
 1287 1418 1287 1418 1287 1410.5 c 128,-1,39
 1287 1403 1287 1403 1307.5 1378.5 c 128,-1,40
 1328 1354 1328 1354 1339 1270 c 128,-1,41
 1350 1186 1350 1186 1350 1126 c 1,42,-1
 1340 668 l 1,43,44
 1338 651 1338 651 1336 622.5 c 128,-1,45
 1334 594 1334 594 1332 581.5 c 128,-1,46
 1330 569 1330 569 1324.5 550.5 c 0,47,48
 1314.79476861 517.855130785 1314.79476861 517.855130785 1281 494 c 1,49,50
 1269 484 1269 484 1269 469 c 2,51,-1
 1269 324 l 2,52,53
 1269 315 1269 315 1315 275.5 c 128,-1,54
 1361 236 1361 236 1373.5 232.5 c 128,-1,55
 1386 229 1386 229 1400 229 c 128,-1,56
 1414 229 1414 229 1484 274 c 1,57,-1
 1490 262 l 1,58,59
 1443 232 1443 232 1429 218.5 c 128,-1,60
 1415 205 1415 205 1412 190 c 1,61,-1
 1412 186 l 1,62,63
 1408 182 1408 182 1408 174.5 c 0,64,65
 1408 161.666666667 1408 161.666666667 1473 115 c 1,66,-1
 1465 100 l 1,67,68
 1414 137 1414 137 1398.5 137 c 128,-1,69
 1383 137 1383 137 1375 133 c 1,70,-1
 1350 115 l 1,71,72
 1338 108 1338 108 1338 84 c 1,73,-1
 1340 59 l 1,74,-1
 1342 -12 l 1,75,-1
 1307 -12 l 1,76,-1
 1307 72 l 2,77,78
 1307 105 1307 105 1239 118.5 c 128,-1,79
 1171 132 1171 132 1080 138 c 128,-1,80
 989 144 989 144 961 154.5 c 128,-1,81
 933 165 933 165 880 195.5 c 128,-1,82
 827 226 827 226 797 236 c 1,83,-1
 806 311 l 1,84,85
 832 322 832 322 896 322 c 2,86,-1
 951 322 l 2,87,88
 986 322 986 322 986 354 c 1,89,90
 988 417 988 417 1003.5 541 c 128,-1,91
 1019 665 1019 665 1020 704 c 128,-1,92
 1021 743 1021 743 1016.5 750.5 c 128,-1,93
 1012 758 1012 758 1000 760.5 c 0,94,95
 983.2 764 983.2 764 937.6 764 c 128,-1,96
 892 764 892 764 860 758.5 c 128,-1,97
 828 753 828 753 819 736 c 128,-1,98
 810 719 810 719 810 664 c 1,99,-1
 785 664 l 1,100,101
 785 719 785 719 777 736 c 128,-1,102
 769 753 769 753 741.5 757.5 c 128,-1,103
 714 762 714 762 621.5 762 c 128,-1,104
 529 762 529 762 525 727 c 1,105,-1
 513 410 l 2,106,107
 511 383 511 383 535.5 347 c 128,-1,108
 560 311 560 311 585 311 c 0,109,110
 617 311 617 311 617 381 c 2,111,-1
 617 408 l 1,112,-1
 632 408 l 1,113,114
 633 353 633 353 637.5 339 c 128,-1,115
 642 325 642 325 654 322 c 2,116,-1
 677 315 l 2,117,118
 681 313 681 313 694.5 313 c 128,-1,119
 708 313 708 313 783 344 c 1,120,-1
 787 334 l 1,121,122
 712 302 712 302 691 276 c 1,123,-1
 687 266 l 1,124,125
 677 253 677 253 677 240 c 1,126,-1
 693 248 l 1,127,-1
 689 233 l 1,128,129
 681 233 681 233 677 231 c 1,130,131
 680 206 680 206 716 162 c 1,132,-1
 695 145 l 1,133,134
 650 207 650 207 619.5 207 c 128,-1,135
 589 207 589 207 532 183 c 128,-1,136
 475 159 475 159 410.5 126 c 128,-1,137
 346 93 346 93 327 86 c 128,-1,138
 308 79 308 79 301.5 73.5 c 0,139,140
 284.484444444 59.1022222222 284.484444444 59.1022222222 277 -12 c 1,141,-1
 257 -10 l 1,142,143
 259 12 259 12 259 47 c 128,-1,144
 259 82 259 82 244 82 c 128,-1,145
 229 82 229 82 218.5 70.5 c 128,-1,146
 208 59 208 59 208 43 c 2,147,-1
 208 16 l 2,148,149
 208 -2 208 -2 194.5 -29 c 128,-1,150
 181 -56 181 -56 181 -115 c 2,151,-1
 181 -150 l 1,152,-1
 175 -150 l 1,153,154
 170.4 -59.5333333333 170.4 -59.5333333333 161 -47 c 1,155,-1
 156 -35 l 1,156,157
 148 -27 148 -27 130.5 -27 c 128,-1,158
 113 -27 113 -27 64 -37 c 1,159,-1
 62 -27 l 1,160,161
 131.203703704 -10.1666666667 131.203703704 -10.1666666667 137.101851852 -2.58333333333 c 128,-1,162
 143 5 143 5 143.5 10 c 128,-1,163
 144 15 144 15 163 69 c 128,-1,164
 182 123 182 123 181 125 c 2,165,-1
 144 188 l 1,166,167
 136 204 136 204 117.5 212.5 c 128,-1,168
 99 221 99 221 42 231 c 1,169,-1
 44 250 l 1,170,171
 83 242 83 242 114 242 c 128,-1,172
 145 242 145 242 180.5 269.5 c 128,-1,173
 216 297 216 297 216 311 c 2,174,-1
 216 653 l 2,175,176
 216 670 216 670 199.5 707 c 128,-1,177
 183 744 183 744 183 762 c 2,178,-1
 183 1073 l 2,179,180
 183 1081 183 1081 122 1114 c 1,181,-1
 140 1155 l 1,182,-1
 171 1145 l 1,183,184
 190 1145 190 1145 203 1158.5 c 128,-1,185
 216 1172 216 1172 216 1190 c 1,186,-1
 202 1366 l 2,187,188
 202 1371 202 1371 191 1382 c 2,189,-1
 113 1452 l 2,190,191
 92 1470 92 1470 54.5 1470 c 128,-1,192
 17 1470 17 1470 -5 1468 c 1,193,-1
 -5 1489 l 1,194,195
 80.036407767 1495.18446602 80.036407767 1495.18446602 107 1526 c 1,196,-1
 152 1587 l 2,197,198
 177 1622 177 1622 181 1708 c 1,199,-1
 193 1708 l 1,200,201
 191 1690 191 1690 191 1647 c 128,-1,202
 191 1604 191 1604 208 1583 c 1,203,204
 223 1571 223 1571 334 1556.5 c 128,-1,205
 445 1542 445 1542 478.5 1542 c 128,-1,206
 512 1542 512 1542 524.5 1555.5 c 128,-1,207
 537 1569 537 1569 562 1614 c 1,208,-1
 576 1606 l 1,209,210
 546 1552 546 1552 546 1526 c 0,211,212
 546 1477 546 1477 671 1477 c 0,213,214
 703 1477 703 1477 785 1511 c 1,215,-1
 789 1499 l 1,216,217
 715 1468 715 1468 691 1444 c 1,218,-1
 711 1448 l 1,219,-1
 699 1403 l 1,220,-1
 658 1405 l 1,221,222
 654 1401 654 1401 654 1397 c 0,223,224
 654 1359.48484848 654 1359.48484848 707 1284 c 1,225,-1
 695 1276 l 1,226,227
 660 1323 660 1323 642.5 1338 c 128,-1,228
 625 1353 625 1353 605 1358 c 1,229,-1
 572 1368 l 1,230,-1
 562 1368 l 2,231,232
 540 1368 540 1368 526.5 1337 c 128,-1,233
 513 1306 513 1306 513 1290 c 2,234,-1
 513 961 l 2,235,236
 513 926 513 926 546 926 c 2,237,-1
 711 926 l 2,238,239
 732 926 732 926 767 944.5 c 128,-1,240
 802 963 802 963 823.5 963 c 128,-1,241
 845 963 845 963 887.5 946.5 c 128,-1,242
 930 930 930 930 947.5 930 c 128,-1,243
 965 930 965 930 975.5 940.5 c 128,-1,244
 986 951 986 951 986 967 c 2,245,-1
 986 1323 l 2,246,247
 986 1361 986 1361 841 1389 c 1,248,-1
 812 1462 l 1,249,250
 837 1462 837 1462 855 1456 c 1,251,252
 868 1456 868 1456 877 1467 c 128,-1,253
 886 1478 886 1478 886 1499.5 c 128,-1,254
 886 1521 886 1521 875 1561 c 1,255,-1
 898 1567 l 1,256,257
 913 1514 913 1514 925.5 1500.5 c 128,-1,258
 938 1487 938 1487 961 1487 c 2,259,-1
 970 1487 l 2,260,261
 980 1487 980 1487 1011 1513.5 c 128,-1,262
 1042 1540 1042 1540 1072 1540 c 1,0,1
EndSplineSet
EndChar

StartChar: I
Encoding: 73 73 8
Width: 808
Flags: HMW
LayerCount: 2
Fore
SplineSet
474 84 m 1,0,-1
 472 98 l 1,1,2
 466 98 466 98 420 94 c 1,3,-1
 420 104 l 1,4,-1
 466 109 l 1,5,6
 449 131 449 131 427 131 c 2,7,-1
 316 131 l 2,8,9
 300 131 300 131 234.5 85.5 c 128,-1,10
 169 40 169 40 169 14 c 1,11,-1
 152 -45 l 1,12,-1
 124 -37 l 1,13,-1
 144 18 l 1,14,15
 144 61.6666666667 144 61.6666666667 230.5 177 c 0,16,17
 259 215 259 215 259 231 c 2,18,-1
 244 1425 l 2,19,20
 244 1442 244 1442 214.5 1457 c 128,-1,21
 185 1472 185 1472 181.5 1488.5 c 128,-1,22
 178 1505 178 1505 148.5 1517.5 c 128,-1,23
 119 1530 119 1530 101.5 1530 c 128,-1,24
 84 1530 84 1530 44 1479 c 1,25,-1
 27 1491 l 1,26,27
 64 1534 64 1534 64 1565 c 0,28,29
 64 1591 64 1591 -38 1638 c 1,30,-1
 -36 1642 l 1,31,32
 35 1610 35 1610 62 1610 c 2,33,-1
 142 1610 l 2,34,35
 168 1610 168 1610 184 1623 c 128,-1,36
 200 1636 200 1636 220 1683 c 1,37,-1
 246 1673 l 1,38,39
 228 1626 228 1626 228 1600.5 c 128,-1,40
 228 1575 228 1575 260.5 1556.5 c 128,-1,41
 293 1538 293 1538 330 1538 c 2,42,-1
 480 1538 l 1,43,-1
 521 1595 l 1,44,-1
 535 1581 l 1,45,46
 541 1587 541 1587 541 1604.5 c 128,-1,47
 541 1622 541 1622 517 1671 c 1,48,-1
 537 1681 l 1,49,50
 560 1634 560 1634 573 1622 c 128,-1,51
 586 1610 586 1610 607 1610 c 2,52,-1
 646 1610 l 2,53,54
 654 1610 654 1610 688 1645.5 c 128,-1,55
 722 1681 722 1681 722 1692 c 128,-1,56
 722 1703 722 1703 705 1755 c 1,57,-1
 715 1759 l 1,58,59
 731 1711 731 1711 738.5 1699.5 c 128,-1,60
 746 1688 746 1688 756 1688 c 2,61,-1
 762 1688 l 2,62,63
 782 1688 782 1688 855 1716 c 1,64,-1
 857 1712 l 1,65,66
 788 1687 788 1687 769 1671 c 2,67,-1
 742 1647 l 1,68,69
 734 1638 734 1638 733.5 1619 c 128,-1,70
 733 1600 733 1600 727 1582.5 c 128,-1,71
 721 1565 721 1565 709 1557 c 0,72,73
 690.142857143 1544.42857143 690.142857143 1544.42857143 670.571428571 1540.71428571 c 128,-1,74
 651 1537 651 1537 615.5 1526 c 128,-1,75
 580 1515 580 1515 566 1511 c 1,76,-1
 572 1473 l 2,77,78
 574 1454 574 1454 589 1447 c 128,-1,79
 604 1440 604 1440 646 1440 c 1,80,-1
 646 1393 l 1,81,82
 597 1393 597 1393 582 1378 c 1,83,84
 582 1372 582 1372 583 1359.5 c 128,-1,85
 584 1347 584 1347 584 1339 c 2,86,-1
 580 1376 l 1,87,88
 570 1366 570 1366 570 1329 c 1,89,-1
 584 1016 l 1,90,91
 584 917 584 917 573 725 c 128,-1,92
 562 533 562 533 561 484.5 c 128,-1,93
 560 436 560 436 571 421 c 128,-1,94
 582 406 582 406 625 377 c 1,95,-1
 615 360 l 1,96,97
 562 395 562 395 533 395 c 128,-1,98
 504 395 504 395 504 367 c 2,99,-1
 504 279 l 2,100,101
 504 251.66 504 251.66 570 234.5 c 128,-1,102
 636 217.34 636 217.34 636 188 c 1,103,-1
 633 180 l 1,104,105
 633 171 633 171 648 143 c 128,-1,106
 663 115 663 115 666 106 c 0,107,108
 677 65 677 65 732 10 c 1,109,-1
 724 0 l 1,110,111
 660.333333333 63.6666666667 660.333333333 63.6666666667 627 72 c 1,112,-1
 625 72 l 1,113,-1
 619 74 l 1,114,115
 578 74 578 74 578 -25 c 1,116,-1
 554 -23 l 1,117,118
 554 16 554 16 537.5 52 c 128,-1,119
 521 88 521 88 488 96 c 1,120,-1
 468 59 l 1,121,122
 474 73 474 73 474 84 c 1,0,-1
595 1272 m 1,123,124
 587 1312 587 1312 584 1339 c 1,125,-1
 595 1272 l 1,123,124
EndSplineSet
EndChar

StartChar: J
Encoding: 74 74 9
Width: 1205
Flags: HMW
LayerCount: 2
Fore
SplineSet
390 1518 m 2,0,-1
 62 1542 l 1,1,2
 22 1542 22 1542 -48 1495 c 1,3,-1
 -57 1507 l 1,4,5
 13.3390894819 1556.07378336 13.3390894819 1556.07378336 25 1593 c 1,6,-1
 36 1622 l 2,7,8
 38 1626 38 1626 38 1634 c 0,9,10
 38 1654 38 1654 -24 1683 c 1,11,-1
 -14 1700 l 1,12,13
 31 1677 31 1677 44.5 1677 c 128,-1,14
 58 1677 58 1677 63 1679 c 0,15,16
 70 1681.8 70 1681.8 70 1692 c 1,17,18
 85 1720 85 1720 85 1734.5 c 128,-1,19
 85 1749 85 1749 54 1802 c 1,20,-1
 70 1810 l 1,21,22
 96 1766 96 1766 110.5 1754.5 c 128,-1,23
 125 1743 125 1743 144 1743 c 2,24,-1
 330 1743 l 2,25,26
 358 1743 358 1743 373 1756 c 128,-1,27
 388 1769 388 1769 400 1819 c 1,28,-1
 433 1810 l 1,29,30
 423 1780 423 1780 423 1749.5 c 128,-1,31
 423 1719 423 1719 464.5 1702.5 c 128,-1,32
 506 1686 506 1686 550 1688 c 2,33,-1
 634 1692 l 1,34,35
 652 1696 652 1696 652 1700 c 1,36,37
 703 1767 703 1767 986 1767 c 2,38,-1
 1232 1767 l 2,39,40
 1264 1767 1264 1767 1342 1810 c 1,41,-1
 1348 1798 l 1,42,43
 1261.46153846 1749.92307692 1261.46153846 1749.92307692 1245 1717 c 0,44,45
 1228.69230769 1684.38461538 1228.69230769 1684.38461538 1210.84615385 1674.69230769 c 128,-1,46
 1193 1665 1193 1665 1191 1661 c 2,47,-1
 1178 1642 l 1,48,49
 1170 1626 1170 1626 1170 1609 c 128,-1,50
 1170 1592 1170 1592 1205 1544 c 1,51,-1
 1184 1532 l 1,52,53
 1145 1587 1145 1587 1116.5 1587 c 128,-1,54
 1088 1587 1088 1587 1056.5 1569.5 c 128,-1,55
 1025 1552 1025 1552 1025 1528.5 c 128,-1,56
 1025 1505 1025 1505 1033 1473 c 1,57,-1
 1017 1468 l 1,58,59
 1004.13953488 1532.30232558 1004.13953488 1532.30232558 995.069767442 1538.65116279 c 128,-1,60
 986 1545 986 1545 976 1546 c 1,61,-1
 974 1546 l 2,62,63
 867 1546 867 1546 867 1503 c 2,64,-1
 867 1270 l 2,65,66
 867 1256 867 1256 883 1242.5 c 128,-1,67
 899 1229 899 1229 915.5 1229 c 128,-1,68
 932 1229 932 1229 982 1249 c 1,69,-1
 990 1229 l 1,70,71
 942 1209 942 1209 930 1196.5 c 128,-1,72
 918 1184 918 1184 918 1163 c 2,73,-1
 918 1104 l 2,74,75
 918 1080 918 1080 931 1067.5 c 128,-1,76
 944 1055 944 1055 994 1042 c 1,77,-1
 986 1016 l 1,78,79
 953 1024 953 1024 933 1024 c 0,80,81
 849 1024 849 1024 849 758 c 1,82,-1
 867 397 l 1,83,84
 867 311 867 311 855 289 c 128,-1,85
 843 267 843 267 836 260 c 128,-1,86
 829 253 829 253 824.5 250 c 128,-1,87
 820 247 820 247 820 246 c 1,88,89
 857 246 857 246 931 285 c 1,90,-1
 935 274 l 1,91,92
 860 238 860 238 840 207 c 0,93,94
 838 204 838 204 825.5 185 c 128,-1,95
 813 166 813 166 809 160.5 c 128,-1,96
 805 155 805 155 794 137 c 128,-1,97
 783 119 783 119 778.5 110 c 128,-1,98
 774 101 774 101 766 84.5 c 128,-1,99
 758 68 758 68 755 56.5 c 0,100,101
 746 22 746 22 746 0.5 c 128,-1,102
 746 -21 746 -21 806 -61 c 1,103,-1
 795 -76 l 1,104,105
 740 -37 740 -37 718 -37 c 128,-1,106
 696 -37 696 -37 658.5 -83 c 128,-1,107
 621 -129 621 -129 621 -150 c 128,-1,108
 621 -171 621 -171 668 -219 c 1,109,-1
 656 -233 l 1,110,111
 608 -186 608 -186 582 -186 c 128,-1,112
 556 -186 556 -186 536.5 -220 c 128,-1,113
 517 -254 517 -254 517 -287.5 c 128,-1,114
 517 -321 517 -321 566 -375 c 1,115,-1
 548 -389 l 1,116,117
 494.057142857 -330 494.057142857 -330 455 -330 c 2,118,-1
 447 -330 l 1,119,-1
 378 -324 l 1,120,121
 376 -326 376 -326 373 -326 c 2,122,-1
 369 -326 l 1,123,124
 354 -329 354 -329 342 -344 c 128,-1,125
 330 -359 330 -359 310 -406 c 1,126,-1
 296 -399 l 1,127,128
 318 -343 318 -343 318 -328 c 128,-1,129
 318 -313 318 -313 299.5 -260 c 128,-1,130
 281 -207 281 -207 280 -185 c 128,-1,131
 279 -163 279 -163 275.5 -156.5 c 0,132,133
 265.849112426 -138.576923077 265.849112426 -138.576923077 206 -115 c 1,134,-1
 214 -98 l 1,135,136
 264 -121 264 -121 286 -121 c 128,-1,137
 308 -121 308 -121 330.5 -86 c 128,-1,138
 353 -51 353 -51 353 -28.5 c 128,-1,139
 353 -6 353 -6 318 47 c 1,140,-1
 335 59 l 1,141,142
 364 16 364 16 380 4 c 128,-1,143
 396 -8 396 -8 416 -8 c 2,144,-1
 490 -8 l 2,145,146
 514.636363636 -8 514.636363636 -8 519 16 c 2,147,-1
 527 66 l 1,148,-1
 525 80 l 1,149,-1
 539 145 l 1,150,-1
 539 207 l 2,151,152
 539 213 539 213 535 221 c 1,153,154
 509 259 509 259 509 298 c 128,-1,155
 509 337 509 337 515 385 c 0,156,157
 515 391 515 391 488.5 436 c 128,-1,158
 462 481 462 481 455 504 c 1,159,160
 452 524 452 524 431.5 524 c 128,-1,161
 411 524 411 524 373 518 c 1,162,-1
 371 537 l 1,163,164
 434 547.5 434 547.5 439.5 555.75 c 128,-1,165
 445 564 445 564 444.5 581.5 c 128,-1,166
 444 599 444 599 430 814 c 128,-1,167
 416 1029 416 1029 416 1274 c 1,168,-1
 421 1489 l 2,169,170
 421 1501 421 1501 411.5 1509.5 c 128,-1,171
 402 1518 402 1518 390 1518 c 2,0,-1
EndSplineSet
EndChar

StartChar: K
Encoding: 75 75 10
Width: 1350
Flags: HMW
LayerCount: 2
Fore
SplineSet
215 1610 m 1,0,-1
 428 1632 l 1,1,2
 469 1632 469 1632 525.5 1620.5 c 128,-1,3
 582 1609 582 1609 606 1592 c 128,-1,4
 630 1575 630 1575 638 1575 c 128,-1,5
 646 1575 646 1575 653.5 1586 c 128,-1,6
 661 1597 661 1597 661 1611 c 128,-1,7
 661 1625 661 1625 641 1675 c 1,8,-1
 661 1683 l 1,9,10
 681 1636 681 1636 693.5 1624 c 128,-1,11
 706 1612 706 1612 727 1612 c 2,12,-1
 762 1612 l 2,13,14
 782 1612 782 1612 791.5 1615 c 0,15,16
 814.018518519 1622.11111111 814.018518519 1622.11111111 825 1688 c 1,17,-1
 858 1681 l 1,18,19
 854 1649 854 1649 854 1642 c 0,20,21
 854 1586.93333333 854 1586.93333333 996 1568 c 0,22,23
 1056 1560 1056 1560 1116 1552 c 0,24,25
 1261.17721519 1532.64303797 1261.17721519 1532.64303797 1270 1485 c 1,26,27
 1270 1479 1270 1479 1274 1475 c 1,28,-1
 1286 1454 l 1,29,30
 1308 1423 1308 1423 1380 1384 c 1,31,-1
 1376 1376 l 1,32,33
 1304 1415 1304 1415 1266 1415 c 2,34,-1
 1262 1415 l 2,35,36
 1253 1415 1253 1415 1230.5 1393.5 c 128,-1,37
 1208 1372 1208 1372 1208 1353 c 128,-1,38
 1208 1334 1208 1334 1214 1294 c 1,39,-1
 1198 1292 l 1,40,41
 1190 1344 1190 1344 1182.5 1357.5 c 128,-1,42
 1175 1371 1175 1371 1159 1374 c 2,43,-1
 1112 1384 l 1,44,-1
 1106 1386 l 1,45,46
 1085 1379 1085 1379 1060 1369 c 0,47,48
 1007.5 1348 1007.5 1348 979 1348 c 2,49,-1
 971 1348 l 2,50,51
 956 1348 956 1348 948 1339 c 2,52,-1
 766 1155 l 1,53,-1
 772 1159 l 1,54,-1
 825 1067 l 1,55,56
 788 1044 788 1044 788 1020.5 c 128,-1,57
 788 997 788 997 796.5 975.5 c 0,58,59
 824.56803995 904.504369538 824.56803995 904.504369538 855.784019975 864.252184769 c 0,60,61
 910.283819629 793.976127321 910.283819629 793.976127321 913.641909814 766.48806366 c 128,-1,62
 917 739 917 739 932 735 c 1,63,64
 955 723 955 723 969 655 c 128,-1,65
 983 587 983 587 983 556.5 c 128,-1,66
 983 526 983 526 979 506 c 1,67,68
 1026 482 1026 482 1082.5 399 c 128,-1,69
 1139 316 1139 316 1139 254 c 1,70,-1
 1104 176 l 1,71,72
 1104 165 1104 165 1137 104 c 1,73,-1
 1128 100 l 1,74,75
 1098.52631579 157.105263158 1098.52631579 157.105263158 1091.26315789 162.552631579 c 128,-1,76
 1084 168 1084 168 1079 168 c 2,77,-1
 1053 168 l 2,78,79
 1012 168 1012 168 983 221 c 1,80,81
 982 225 982 225 968 233.5 c 0,82,83
 923.454545455 260.545454545 923.454545455 260.545454545 905 279 c 1,84,85
 902 284 902 284 900 289.5 c 128,-1,86
 898 295 898 295 897 295 c 0,87,88
 865.051282051 295 865.051282051 295 811 233 c 1,89,-1
 799 244 l 1,90,91
 848 300 848 300 848 326 c 1,92,-1
 844 377 l 1,93,-1
 834 420 l 1,94,95
 829 433 829 433 819 438 c 0,96,97
 783 458 783 458 764 497.5 c 128,-1,98
 745 537 745 537 745 569 c 1,99,-1
 747 578 l 1,100,101
 731 586 731 586 715 586 c 128,-1,102
 699 586 699 586 651 551 c 1,103,-1
 637 569 l 1,104,105
 696 613 696 613 696 633 c 128,-1,106
 696 653 696 653 693 666.5 c 128,-1,107
 690 680 690 680 684.5 691 c 128,-1,108
 679 702 679 702 672 711.5 c 128,-1,109
 665 721 665 721 657.5 728 c 128,-1,110
 650 735 650 735 642.5 741.5 c 128,-1,111
 635 748 635 748 628.5 752 c 128,-1,112
 622 756 622 756 616.5 758.5 c 128,-1,113
 611 761 611 761 606 764 c 1,114,115
 569 764 569 764 569 701 c 128,-1,116
 569 638 569 638 596 543.5 c 128,-1,117
 623 449 623 449 647 444 c 1,118,-1
 653 444 l 1,119,120
 659 442 659 442 677 442 c 128,-1,121
 695 442 695 442 752 485 c 1,122,-1
 762 471 l 1,123,124
 721 438 721 438 709.5 421.5 c 128,-1,125
 698 405 698 405 698 385 c 2,126,-1
 698 371 l 2,127,128
 698 361 698 361 709 344.5 c 128,-1,129
 720 328 720 328 738 319 c 128,-1,130
 756 310 756 310 807 305 c 1,131,-1
 805 285 l 1,132,133
 784 287 784 287 750 287 c 128,-1,134
 716 287 716 287 698 266 c 1,135,-1
 668 186 l 1,136,137
 669 175 669 175 672.5 169.5 c 0,138,139
 681.559485531 155.263665595 681.559485531 155.263665595 743 139 c 1,140,-1
 739 121 l 1,141,142
 702 131 702 131 684.5 131 c 128,-1,143
 667 131 667 131 660.5 127.5 c 0,144,145
 652.68115942 123.289855072 652.68115942 123.289855072 641.84057971 105.144927536 c 128,-1,146
 631 87 631 87 631 6 c 1,147,-1
 621 6 l 1,148,149
 618 88 618 88 610 100.5 c 128,-1,150
 602 113 602 113 600 115.5 c 128,-1,151
 598 118 598 118 596.5 119.5 c 128,-1,152
 595 121 595 121 593 122.5 c 128,-1,153
 591 124 591 124 588.5 125 c 0,154,155
 573.434210526 131.026315789 573.434210526 131.026315789 512 115 c 1,156,-1
 506 131 l 1,157,158
 556 145 556 145 568 154.5 c 128,-1,159
 580 164 580 164 580 180 c 1,160,-1
 567 233 l 1,161,-1
 545 242 l 1,162,-1
 500 238 l 1,163,164
 500 236 500 236 455.5 203.5 c 128,-1,165
 411 171 411 171 408 158 c 1,166,-1
 403 96 l 2,167,168
 403 90 403 90 392 53 c 128,-1,169
 381 16 381 16 381 -4 c 128,-1,170
 381 -24 381 -24 387 -82 c 1,171,-1
 381 -82 l 1,172,173
 373.201834862 -18.0550458716 373.201834862 -18.0550458716 368.100917431 -4.02752293578 c 128,-1,174
 363 10 363 10 354.5 23.5 c 128,-1,175
 346 37 346 37 332 37 c 128,-1,176
 318 37 318 37 268 25 c 1,177,-1
 264 39 l 1,178,179
 314 53 314 53 326 61.5 c 128,-1,180
 338 70 338 70 338 84 c 1,181,-1
 354 246 l 1,182,183
 354 267 354 267 342.5 279.5 c 128,-1,184
 331 292 331 292 283 311 c 1,185,-1
 291 332 l 1,186,187
 340 311 340 311 357.5 311 c 128,-1,188
 375 311 375 311 387 328 c 1,189,-1
 410 348 l 1,190,191
 416 357 416 357 416 367 c 2,192,-1
 395 643 l 2,193,194
 395 649 395 649 391 657 c 1,195,-1
 377 678 l 1,196,197
 363 696 363 696 345 696 c 128,-1,198
 327 696 327 696 287 680 c 1,199,-1
 279 700 l 1,200,201
 321 716 321 716 333.5 727.5 c 128,-1,202
 346 739 346 739 346 754 c 1,203,-1
 330 868 l 1,204,205
 319 874 319 874 301 874 c 128,-1,206
 283 874 283 874 231 842 c 1,207,-1
 219 860 l 1,208,209
 259 886 259 886 272 900 c 128,-1,210
 285 914 285 914 285 949.5 c 128,-1,211
 285 985 285 985 273 1093 c 128,-1,212
 261 1201 261 1201 260.5 1232.5 c 128,-1,213
 260 1264 260 1264 252 1272 c 1,214,-1
 250 1272 l 1,215,216
 232 1290 232 1290 198 1290 c 128,-1,217
 164 1290 164 1290 145 1288 c 1,218,-1
 143 1305 l 1,219,220
 194 1310 194 1310 212 1318.5 c 128,-1,221
 230 1327 230 1327 242 1343 c 1,222,-1
 256 1364 l 1,223,224
 260 1372 260 1372 260 1378 c 2,225,-1
 260 1427 l 1,226,227
 238 1411 238 1411 227 1360 c 1,228,-1
 180 1370 l 1,229,230
 184 1398 184 1398 184 1418.5 c 128,-1,231
 184 1439 184 1439 161.5 1456.5 c 128,-1,232
 139 1474 139 1474 111.5 1477.5 c 0,233,234
 37.9883268482 1486.85603113 37.9883268482 1486.85603113 29 1530 c 0,235,236
 25 1548 25 1548 6.5 1552 c 128,-1,237
 -12 1556 -12 1556 -80 1556 c 1,238,-1
 -80 1565 l 1,239,240
 -20 1565 -20 1565 -2.5 1568.5 c 128,-1,241
 15 1572 15 1572 40.5 1586.5 c 128,-1,242
 66 1601 66 1601 66 1620 c 128,-1,243
 66 1639 66 1639 49 1679 c 1,244,-1
 68 1688 l 1,245,246
 94 1624 94 1624 113 1624 c 1,247,248
 133 1635 133 1635 133 1704 c 1,249,-1
 158 1704 l 1,250,251
 158 1610 158 1610 215 1610 c 1,0,-1
580 1503 m 2,252,253
 549 1503 549 1503 549 1458 c 2,254,-1
 549 1196 l 2,255,256
 549 1155 549 1155 584 1155 c 0,257,258
 592 1155 592 1155 604 1161 c 1,259,-1
 621 1174 l 1,260,-1
 651 1206 l 1,261,-1
 621 1255 l 1,262,-1
 653 1206 l 1,263,264
 692 1248 692 1248 727 1260 c 1,265,-1
 727 1270 l 2,266,267
 727 1293.8 727 1293.8 733.5 1309.4 c 128,-1,268
 740 1325 740 1325 743 1333 c 2,269,-1
 756 1360 l 1,270,-1
 766 1427 l 1,271,272
 766 1436 766 1436 758 1448 c 1,273,-1
 707 1497 l 1,274,275
 696 1503 696 1503 688 1503 c 2,276,-1
 580 1503 l 2,252,253
EndSplineSet
EndChar

StartChar: L
Encoding: 76 76 11
Width: 1103
Flags: HMW
LayerCount: 2
Fore
SplineSet
195 1419 m 1,0,-1
 105 1423 l 1,1,2
 80 1423 80 1423 23 1374 c 1,3,-1
 13 1386 l 1,4,5
 52 1421 52 1421 63 1438.5 c 128,-1,6
 74 1456 74 1456 74 1475 c 2,7,-1
 74 1548 l 2,8,9
 74 1567 74 1567 63 1584.5 c 128,-1,10
 52 1602 52 1602 15 1638 c 1,11,-1
 25 1651 l 1,12,13
 84 1597 84 1597 113 1597 c 0,14,15
 185 1597 185 1597 326 1617 c 128,-1,16
 467 1637 467 1637 507.5 1647.5 c 128,-1,17
 548 1658 548 1658 554 1667 c 128,-1,18
 560 1676 560 1676 560 1708 c 2,19,-1
 560 1739 l 1,20,-1
 576 1741 l 1,21,22
 576 1724 576 1724 577 1712.5 c 128,-1,23
 578 1701 578 1701 578.5 1692 c 128,-1,24
 579 1683 579 1683 582 1677.5 c 128,-1,25
 585 1672 585 1672 586 1668.5 c 128,-1,26
 587 1665 587 1665 592 1663.5 c 128,-1,27
 597 1662 597 1662 599 1661.5 c 0,28,29
 609 1659 609 1659 622.472972973 1659 c 128,-1,30
 635.945945946 1659 635.945945946 1659 679 1718 c 1,31,-1
 689 1712 l 1,32,33
 650 1658 650 1658 650 1640 c 1,34,-1
 666 1567 l 1,35,-1
 666 1550 l 2,36,37
 666 1532.5 666 1532.5 720 1477 c 1,38,-1
 713 1470 l 1,39,40
 662.435897436 1528 662.435897436 1528 644 1528 c 1,41,-1
 619 1530 l 2,42,43
 611 1530 611 1530 599 1526 c 1,44,-1
 513 1452 l 1,45,46
 502 1444 502 1444 502 1430 c 128,-1,47
 502 1416 502 1416 504 1395 c 128,-1,48
 506 1374 506 1374 511.5 1339.5 c 0,49,50
 524.173913043 1260 524.173913043 1260 568 1260 c 0,51,52
 584 1260 584 1260 611 1266 c 1,53,-1
 617 1231 l 1,54,55
 595 1226 595 1226 581.5 1220 c 128,-1,56
 568 1214 568 1214 561 1211 c 128,-1,57
 554 1208 554 1208 551 1196.5 c 128,-1,58
 548 1185 548 1185 548 1182.5 c 2,59,-1
 548 1161 l 2,60,61
 548 1137 548 1137 563 1127.5 c 128,-1,62
 578 1118 578 1118 632 1118 c 1,63,-1
 632 1096 l 1,64,65
 581 1096 581 1096 567.5 1089 c 128,-1,66
 554 1082 554 1082 551 1061 c 128,-1,67
 548 1040 548 1040 548 993 c 1,68,-1
 562 569 l 1,69,-1
 562 528 l 2,70,71
 562 521 562 521 571 504 c 128,-1,72
 580 487 580 487 598 487 c 128,-1,73
 616 487 616 487 660 504 c 1,74,-1
 668 481 l 1,75,76
 601 456.948717949 601 456.948717949 601 434 c 0,77,78
 601 426 601 426 603 422 c 1,79,-1
 611 387 l 2,80,81
 617 365 617 365 642 365 c 1,82,-1
 744 383 l 1,83,84
 763 390 763 390 774 405.5 c 128,-1,85
 785 421 785 421 799 471 c 1,86,-1
 818 467 l 1,87,88
 806 418 806 418 806 399 c 0,89,90
 806 360 806 360 836 360 c 2,91,-1
 904 360 l 2,92,93
 935 360 935 360 985 449.5 c 128,-1,94
 1035 539 1035 539 1035 560 c 128,-1,95
 1035 581 1035 581 986 627 c 1,96,-1
 998 639 l 1,97,98
 1043 594 1043 594 1062 594 c 0,99,100
 1119 594 1119 594 1178 748 c 1,101,-1
 1184 745 l 1,102,103
 1156 665 1156 665 1156 631 c 2,104,-1
 1156 432 l 2,105,106
 1156 386 1156 386 1117 306.5 c 128,-1,107
 1078 227 1078 227 1078 186 c 0,108,109
 1078 163 1078 163 1135 123 c 1,110,-1
 1123 106 l 1,111,112
 1073 143 1073 143 1059 143 c 128,-1,113
 1045 143 1045 143 1023 131 c 1,114,115
 1001.12977099 116.419847328 1001.12977099 116.419847328 984 37 c 1,116,-1
 974 39 l 1,117,118
 984 83 984 83 984 106.5 c 128,-1,119
 984 130 984 130 967 161.5 c 128,-1,120
 950 193 950 193 947 207 c 1,121,122
 930 202 930 202 923 188.5 c 128,-1,123
 916 175 916 175 916 141 c 2,124,-1
 916 127 l 1,125,-1
 883 127 l 1,126,127
 882 178 882 178 871.5 191.5 c 128,-1,128
 861 205 861 205 830 207 c 128,-1,129
 799 209 799 209 708 209 c 128,-1,130
 617 209 617 209 567.5 193.5 c 128,-1,131
 518 178 518 178 419 121 c 1,132,133
 406 112 406 112 400 96 c 128,-1,134
 394 80 394 80 388 29 c 1,135,-1
 373 31 l 1,136,137
 378 55 378 55 378 90.25 c 128,-1,138
 378 125.5 378 125.5 343 143 c 1,139,140
 329 143 329 143 273 121 c 1,141,-1
 269 131 l 1,142,143
 316 151 316 151 327.5 159.5 c 128,-1,144
 339 168 339 168 339 178 c 2,145,-1
 339 207 l 2,146,147
 339 237 339 237 349 270 c 0,148,149
 349 272 349 272 335 281 c 1,150,-1
 351 274 l 1,151,-1
 373 297 l 2,152,153
 380 303 380 303 380 313 c 1,154,155
 378 323 378 323 357 379 c 1,156,-1
 367 383 l 1,157,158
 383 340 383 340 398 317 c 1,159,160
 408 325 408 325 408 336 c 128,-1,161
 408 347 408 347 401.5 364.5 c 128,-1,162
 395 382 395 382 390 439 c 128,-1,163
 385 496 385 496 373 531.5 c 128,-1,164
 361 567 361 567 332 567 c 0,165,166
 318 567 318 567 287 561 c 1,167,-1
 281 592 l 1,168,169
 325 600 325 600 338 610 c 128,-1,170
 351 620 351 620 351 637 c 2,171,-1
 351 649 l 1,172,173
 345 698 345 698 307 872 c 128,-1,174
 269 1046 269 1046 267 1126 c 0,175,176
 267 1128 267 1128 248.5 1166.5 c 128,-1,177
 230 1205 230 1205 230 1245 c 1,178,-1
 232 1321 l 1,179,180
 232 1419 232 1419 195 1419 c 1,0,-1
EndSplineSet
EndChar

StartChar: M
Encoding: 77 77 12
Width: 1923
Flags: HMW
LayerCount: 2
Fore
SplineSet
852 276 m 1,0,1
 906.322916667 303.9375 906.322916667 303.9375 910 326 c 1,2,-1
 903 338 l 1,3,4
 861 391 861 391 831 471.5 c 128,-1,5
 801 552 801 552 773 644 c 128,-1,6
 745 736 745 736 715 793 c 0,7,8
 708 807 708 807 692 807 c 128,-1,9
 676 807 676 807 647 793 c 1,10,-1
 639 809 l 1,11,12
 686 828 686 828 686 846 c 0,13,14
 686 879 686 879 639.5 949.5 c 128,-1,15
 593 1020 593 1020 584 1057 c 1,16,17
 523 1159 523 1159 515 1159 c 128,-1,18
 507 1159 507 1159 499.5 1108 c 128,-1,19
 492 1057 492 1057 492 1017 c 128,-1,20
 492 977 492 977 484 901.5 c 128,-1,21
 476 826 476 826 467 819 c 1,22,23
 502 779 502 779 502 698 c 0,24,25
 502 691 502 691 499 657 c 128,-1,26
 496 623 496 623 501 611 c 128,-1,27
 506 599 506 599 516 518 c 0,28,29
 542.296296296 305 542.296296296 305 566 305 c 2,30,-1
 625 305 l 2,31,32
 640 305 640 305 652.5 314.5 c 128,-1,33
 665 324 665 324 686 358 c 1,34,-1
 701 350 l 1,35,36
 674 303 674 303 674 290.5 c 128,-1,37
 674 278 674 278 682.5 262.5 c 128,-1,38
 691 247 691 247 703 241.5 c 128,-1,39
 715 236 715 236 756 225 c 1,40,-1
 754 217 l 1,41,42
 723 223 723 223 703.5 223 c 128,-1,43
 684 223 684 223 681 222.5 c 128,-1,44
 678 222 678 222 678 217 c 1,45,46
 670 209 670 209 670 197 c 128,-1,47
 670 185 670 185 688 145 c 1,48,-1
 676 143 l 1,49,50
 656 195 656 195 639 195 c 0,51,52
 576 195 576 195 432.5 163 c 128,-1,53
 289 131 289 131 289 113 c 0,54,55
 289 86 289 86 334 39 c 1,56,-1
 328 31 l 1,57,58
 279.433333333 78 279.433333333 78 252 78 c 0,59,60
 195 78 195 78 166 10 c 1,61,-1
 148 12 l 1,62,-1
 191 106 l 1,63,64
 191 112 191 112 123 145 c 1,65,-1
 138 174 l 1,66,67
 188 154 188 154 191 154 c 0,68,69
 211 154 211 154 211 170.5 c 128,-1,70
 211 187 211 187 181 217 c 1,71,-1
 197 231 l 1,72,73
 230 195 230 195 240 195 c 128,-1,74
 250 195 250 195 262 207 c 1,75,76
 308 240 308 240 321 282.5 c 128,-1,77
 334 325 334 325 334 397 c 1,78,-1
 326 508 l 1,79,-1
 328 535 l 2,80,81
 328 537 328 537 324 545 c 1,82,83
 289 594 289 594 289 655 c 128,-1,84
 289 716 289 716 295 750 c 1,85,-1
 295 752 l 2,86,87
 295 1086 295 1086 277.5 1273.5 c 128,-1,88
 260 1461 260 1461 244 1493 c 1,89,-1
 203 1532 l 1,90,91
 195 1536 195 1536 189 1536 c 2,92,-1
 111 1536 l 2,93,94
 95 1536 95 1536 85.5 1526.5 c 128,-1,95
 76 1517 76 1517 62 1481 c 1,96,-1
 47 1485 l 1,97,98
 64 1517 64 1517 64 1537.5 c 128,-1,99
 64 1558 64 1558 47 1565 c 1,100,101
 47 1573 47 1573 33.5 1573 c 128,-1,102
 20 1573 20 1573 -20 1556 c 1,103,-1
 -26 1567 l 1,104,105
 13 1583 13 1583 22 1590.5 c 128,-1,106
 31 1598 31 1598 31 1613 c 128,-1,107
 31 1628 31 1628 -16 1675 c 1,108,-1
 -8 1679 l 1,109,110
 37 1638 37 1638 54.5 1638 c 128,-1,111
 72 1638 72 1638 107 1649.5 c 128,-1,112
 142 1661 142 1661 160 1661 c 2,113,-1
 504 1661 l 2,114,115
 526.346153846 1661 526.346153846 1661 537.673076923 1676.5 c 128,-1,116
 549 1692 549 1692 561 1718 c 1,117,-1
 576 1710 l 1,118,119
 557 1665 557 1665 557 1654 c 128,-1,120
 557 1643 557 1643 568 1630 c 2,121,-1
 600 1589 l 1,122,123
 606 1575 606 1575 622 1575 c 128,-1,124
 638 1575 638 1575 674 1587 c 1,125,-1
 680 1571 l 1,126,127
 641 1556 641 1556 631 1547 c 128,-1,128
 621 1538 621 1538 621 1522 c 2,129,-1
 621 1520 l 2,130,131
 621 1515 621 1515 627 1509 c 0,132,133
 709 1407 709 1407 788 1246.5 c 128,-1,134
 867 1086 867 1086 883 971 c 1,135,136
 892 952 892 952 902.5 952 c 128,-1,137
 913 952 913 952 955 967 c 1,138,-1
 963 948 l 1,139,140
 912 929.3 912 929.3 912 909 c 0,141,142
 912 876 912 876 935 828 c 128,-1,143
 958 780 958 780 977.5 780 c 128,-1,144
 997 780 997 780 1026 799 c 1,145,-1
 1041 778 l 1,146,147
 994 754 994 754 994 737 c 1,148,149
 997 729 997 729 1007.5 729 c 128,-1,150
 1018 729 1018 729 1024.5 735.5 c 128,-1,151
 1031 742 1031 742 1036.5 755 c 128,-1,152
 1042 768 1042 768 1045 779.5 c 128,-1,153
 1048 791 1048 791 1052.5 810.5 c 128,-1,154
 1057 830 1057 830 1059 838 c 1,155,156
 1062 902 1062 902 1092 975 c 128,-1,157
 1122 1048 1122 1048 1161.5 1127.5 c 0,158,159
 1219 1243.2278481 1219 1243.2278481 1219 1274 c 0,160,161
 1219 1292 1219 1292 1170 1313 c 1,162,-1
 1176 1331 l 1,163,164
 1209 1319 1209 1319 1221 1319 c 0,165,166
 1244 1319 1244 1319 1277.5 1418.5 c 128,-1,167
 1311 1518 1311 1518 1311 1559 c 0,168,169
 1311 1579 1311 1579 1268 1620 c 1,170,-1
 1280 1630 l 1,171,172
 1317 1593 1317 1593 1332.5 1593 c 128,-1,173
 1348 1593 1348 1593 1354 1595 c 1,174,-1
 1379 1597 l 1,175,176
 1401 1605.25 1401 1605.25 1401 1636 c 1,177,-1
 1399 1665 l 1,178,-1
 1415 1667 l 1,179,180
 1420 1627 1420 1627 1426.5 1617.5 c 128,-1,181
 1433 1608 1433 1608 1448 1608 c 0,182,183
 1672 1598 1672 1598 1841 1530 c 1,184,185
 1852 1524 1852 1524 1863 1524 c 128,-1,186
 1874 1524 1874 1524 1932 1532 c 1,187,-1
 1934 1522 l 1,188,189
 1915 1518 1915 1518 1902.5 1514 c 128,-1,190
 1890 1510 1890 1510 1882 1508 c 128,-1,191
 1874 1506 1874 1506 1867.5 1500.5 c 128,-1,192
 1861 1495 1861 1495 1858.5 1493 c 0,193,194
 1852.875 1488.5 1852.875 1488.5 1840.9375 1474.25 c 128,-1,195
 1829 1460 1829 1460 1829 1441 c 128,-1,196
 1829 1422 1829 1422 1841 1391 c 1,197,-1
 1827 1384 l 1,198,199
 1813 1424 1813 1424 1803.5 1436.5 c 128,-1,200
 1794 1449 1794 1449 1780 1452 c 1,201,-1
 1757 1454 l 1,202,-1
 1692 1448 l 2,203,204
 1683 1448 1683 1448 1678 1440 c 1,205,-1
 1653 1409 l 1,206,207
 1647 1406 1647 1406 1647 1399 c 2,208,-1
 1647 1237 l 2,209,210
 1647 1224 1647 1224 1657 1214.5 c 128,-1,211
 1667 1205 1667 1205 1704 1188 c 1,212,-1
 1698 1176 l 1,213,214
 1659 1192 1659 1192 1641.5 1192 c 128,-1,215
 1624 1192 1624 1192 1624 1171 c 2,216,-1
 1626 1012 l 2,217,218
 1626 950 1626 950 1598 913 c 0,219,220
 1594 909 1594 909 1593.5 896.5 c 128,-1,221
 1593 884 1593 884 1582 761.5 c 128,-1,222
 1571 639 1571 639 1571 573 c 1,223,-1
 1577 272 l 2,224,225
 1577 250.090909091 1577 250.090909091 1600 248 c 2,226,-1
 1659 244 l 1,227,228
 1684 244 1684 244 1731 287 c 1,229,-1
 1739 279 l 1,230,231
 1692 238.266666667 1692 238.266666667 1692 209 c 2,232,-1
 1692 195 l 2,233,234
 1692 183 1692 183 1707 175.5 c 128,-1,235
 1722 168 1722 168 1749 158 c 1,236,-1
 1743 147 l 1,237,238
 1702 164 1702 164 1693 164 c 128,-1,239
 1684 164 1684 164 1676 160 c 1,240,-1
 1676 158 l 1,241,242
 1669 151 1669 151 1669 143 c 1,243,-1
 1686 88 l 1,244,-1
 1676 84 l 1,245,246
 1663 123 1663 123 1656.5 133 c 128,-1,247
 1650 143 1650 143 1641 143 c 2,248,-1
 1338 168 l 1,249,-1
 1295 168 l 2,250,251
 1253 168 1253 168 1226.5 151 c 128,-1,252
 1200 134 1200 134 1190 80 c 1,253,-1
 1180 82 l 1,254,255
 1186 122 1186 122 1186 136 c 128,-1,256
 1186 150 1186 150 1176 160 c 1,257,-1
 1174 160 l 1,258,259
 1164 170 1164 170 1150 170 c 128,-1,260
 1136 170 1136 170 1096 166 c 1,261,-1
 1096 176 l 1,262,263
 1112 178 1112 178 1123 179 c 128,-1,264
 1134 180 1134 180 1142 182.5 c 128,-1,265
 1150 185 1150 185 1154.5 186 c 128,-1,266
 1159 187 1159 187 1163.5 191.5 c 0,267,268
 1172 200 1172 200 1181 215.5 c 128,-1,269
 1190 231 1190 231 1190 241 c 128,-1,270
 1190 251 1190 251 1168 291 c 1,271,-1
 1180 303 l 1,272,273
 1200 270 1200 270 1210.5 260 c 128,-1,274
 1221 250 1221 250 1229 251 c 128,-1,275
 1237 252 1237 252 1239 252 c 2,276,-1
 1276 260 l 1,277,278
 1286 265 1286 265 1291 279 c 1,279,-1
 1307 393 l 1,280,281
 1300 410 1300 410 1296.5 415.5 c 0,282,283
 1287.46232877 429.702054795 1287.46232877 429.702054795 1233 442 c 1,284,-1
 1235 459 l 1,285,286
 1256 453 1256 453 1286.5 453 c 128,-1,287
 1317 453 1317 453 1317 475 c 2,288,-1
 1311 1112 l 2,289,290
 1311 1131 1311 1131 1301.5 1142 c 128,-1,291
 1292 1153 1292 1153 1278 1153 c 0,292,293
 1252 1153 1252 1153 1228.5 1081 c 128,-1,294
 1205 1009 1205 1009 1205 981 c 128,-1,295
 1205 953 1205 953 1216 946 c 128,-1,296
 1227 939 1227 939 1260 930 c 1,297,-1
 1256 909 l 1,298,299
 1225 918 1225 918 1209 918 c 128,-1,300
 1193 918 1193 918 1186 897 c 1,301,-1
 1139 725 l 1,302,-1
 1137 713 l 1,303,304
 1137 688 1137 688 1190 666 c 1,305,-1
 1182 647 l 1,306,307
 1136 664 1136 664 1129 664 c 0,308,309
 1094 664 1094 664 1072 605 c 128,-1,310
 1050 546 1050 546 1043.5 472.5 c 0,311,312
 1023.47630332 246.078199052 1023.47630332 246.078199052 1013.73815166 225.039099526 c 128,-1,313
 1004 204 1004 204 1004 190 c 128,-1,314
 1004 176 1004 176 1016 127 c 1,315,-1
 1010 127 l 1,316,317
 992.580645161 179.258064516 992.580645161 179.258064516 978.790322581 192.129032258 c 128,-1,318
 965 205 965 205 963 207 c 128,-1,319
 961 209 961 209 942.5 209 c 128,-1,320
 924 209 924 209 889 190 c 1,321,-1
 883 203 l 1,322,323
 918 221 918 221 928 231.5 c 128,-1,324
 938 242 938 242 938 256 c 2,325,-1
 938 260 l 2,326,327
 938 283 938 283 916 283 c 0,328,329
 901 283 901 283 858 262 c 1,330,-1
 852 276 l 1,0,1
262 1485 m 2,331,-1
 252 1485 l 1,332,333
 254 1483 254 1483 257 1484 c 128,-1,334
 260 1485 260 1485 262 1485 c 2,331,-1
EndSplineSet
EndChar

StartChar: N
Encoding: 78 78 13
Width: 1494
Flags: HMW
LayerCount: 2
Fore
SplineSet
531 924 m 1,0,1
 531 949 531 949 459 963 c 1,2,3
 444 963 444 963 416 942 c 1,4,5
 410 660 410 660 410 625 c 2,6,-1
 410 477 l 2,7,8
 410 437.348837209 410 437.348837209 470.5 427.5 c 0,9,10
 492 424 492 424 525 421 c 128,-1,11
 558 418 558 418 570 415 c 128,-1,12
 582 412 582 412 603.5 412 c 128,-1,13
 625 412 625 412 682 440 c 1,14,-1
 691 424 l 1,15,16
 580 371 580 371 580 311 c 2,17,-1
 580 266 l 2,18,19
 580 233 580 233 625 160 c 1,20,-1
 615 154 l 1,21,22
 581 204 581 204 568 216.5 c 0,23,24
 547.040816327 236.653061224 547.040816327 236.653061224 519 246 c 1,25,26
 496 246 496 246 463 225 c 1,27,-1
 428 233 l 1,28,29
 422 227 422 227 422 214.5 c 128,-1,30
 422 202 422 202 439 152 c 1,31,-1
 428 147 l 1,32,33
 406.313253012 208.445783133 406.313253012 208.445783133 400.156626506 213.722891566 c 128,-1,34
 394 219 394 219 388 219 c 2,35,-1
 365 219 l 1,36,-1
 330 217 l 1,37,38
 330 197 330 197 341.5 179.5 c 128,-1,39
 353 162 353 162 392 129 c 1,40,-1
 381 115 l 1,41,42
 322 164 322 164 297 164 c 0,43,44
 295 164 295 164 291 163 c 128,-1,45
 287 162 287 162 285 162 c 1,46,-1
 287 164 l 1,47,48
 263 159 263 159 263 130 c 128,-1,49
 263 101 263 101 312 47 c 1,50,-1
 297 37 l 1,51,52
 264 76 264 76 246.5 87 c 128,-1,53
 229 98 229 98 209 98 c 2,54,-1
 162 98 l 2,55,56
 135.459459459 98 135.459459459 98 80 41 c 1,57,-1
 70 51 l 1,58,59
 127 106.459459459 127 106.459459459 127 133 c 2,60,-1
 127 170 l 2,61,62
 127 219.661883286 127 219.661883286 136.838028804 230.875921464 c 128,-1,63
 146.676057608 242.089959642 146.676057608 242.089959642 158.838028804 246.544979821 c 128,-1,64
 171 251 171 251 183.5 295 c 128,-1,65
 196 339 196 339 201.5 380.5 c 2,66,-1
 207 422 l 1,67,-1
 213 424 l 1,68,69
 224 383 224 383 250 383 c 0,70,71
 260 383 260 383 268.5 390 c 128,-1,72
 277 397 277 397 277 410 c 0,73,74
 285 650 285 650 285 673.5 c 128,-1,75
 285 697 285 697 282.5 716.5 c 128,-1,76
 280 736 280 736 271 755.5 c 0,77,78
 253.692307692 793 253.692307692 793 189 793 c 1,79,-1
 185 836 l 1,80,81
 236 840 236 840 249.5 855.5 c 128,-1,82
 263 871 263 871 263 907 c 2,83,-1
 267 1096 l 1,84,85
 267 1216 267 1216 240 1300 c 128,-1,86
 213 1384 213 1384 154 1454 c 1,87,88
 145 1460 145 1460 138 1460 c 128,-1,89
 131 1460 131 1460 127 1459 c 128,-1,90
 123 1458 123 1458 119 1455 c 128,-1,91
 115 1452 115 1452 112.5 1450 c 128,-1,92
 110 1448 110 1448 106 1443.5 c 128,-1,93
 102 1439 102 1439 95.5 1434 c 128,-1,94
 89 1429 89 1429 56 1356 c 1,95,-1
 52 1356 l 1,96,97
 84 1423 84 1423 84 1446 c 0,98,99
 84 1462.09677419 84 1462.09677419 13 1485 c 1,100,-1
 15 1497 l 1,101,-1
 82 1481 l 1,102,103
 101 1481 101 1481 116.5 1522.5 c 128,-1,104
 132 1564 132 1564 132 1591 c 128,-1,105
 132 1618 132 1618 80 1677 c 1,106,-1
 95 1690 l 1,107,108
 130 1650 130 1650 146 1640 c 128,-1,109
 162 1630 162 1630 185 1630 c 2,110,-1
 211 1630 l 2,111,112
 229 1630 229 1630 238.5 1633.5 c 0,113,114
 261 1641.78947368 261 1641.78947368 261 1706 c 1,115,-1
 293 1706 l 1,116,117
 293 1672.83333333 293 1672.83333333 296.5 1662.91666667 c 128,-1,118
 300 1653 300 1653 301 1647.5 c 128,-1,119
 302 1642 302 1642 308.5 1638 c 128,-1,120
 315 1634 315 1634 316.5 1632 c 0,121,122
 319.5 1628 319.5 1628 335.375 1628 c 2,123,-1
 365 1628 l 2,124,125
 386 1628 386 1628 400.5 1639.5 c 128,-1,126
 415 1651 415 1651 441 1696 c 1,127,-1
 459 1686 l 1,128,129
 426 1632 426 1632 427 1609.5 c 128,-1,130
 428 1587 428 1587 433 1587 c 1,131,132
 434 1583 434 1583 455 1576.5 c 0,133,134
 514 1558.23809524 514 1558.23809524 514 1520 c 1,135,-1
 512 1505 l 2,136,137
 512 1500 512 1500 610 1366 c 128,-1,138
 708 1232 708 1232 781 1143 c 1,139,140
 796 1128 796 1128 810.5 1128 c 128,-1,141
 825 1128 825 1128 877 1147 c 1,142,-1
 885 1126 l 1,143,144
 839 1108 839 1108 826 1095 c 128,-1,145
 813 1082 813 1082 813 1063 c 2,146,-1
 813 999 l 2,147,148
 813 989 813 989 817.5 986 c 0,149,150
 828 979 828 979 830 977 c 0,151,152
 846 969 846 969 856 930 c 128,-1,153
 866 891 866 891 884.5 860 c 128,-1,154
 903 829 903 829 917 812 c 128,-1,155
 931 795 931 795 949 795 c 0,156,157
 1000 795 1000 795 1000 905 c 1,158,-1
 992 1030 l 1,159,160
 992 1056 992 1056 1005 1108 c 128,-1,161
 1018 1160 1018 1160 1018 1186 c 1,162,-1
 1006 1376 l 1,163,-1
 994 1427 l 2,164,165
 983 1470 983 1470 816 1470 c 0,166,167
 748.260869565 1470 748.260869565 1470 664 1419 c 1,168,-1
 656 1432 l 1,169,170
 732 1479 732 1479 752 1518 c 0,171,172
 756 1525 756 1525 795 1574.5 c 128,-1,173
 834 1624 834 1624 834 1649 c 128,-1,174
 834 1674 834 1674 799 1726 c 1,175,-1
 818 1737 l 1,176,177
 843 1695 843 1695 859.5 1682 c 128,-1,178
 876 1669 876 1669 901 1669 c 128,-1,179
 926 1669 926 1669 939.5 1682 c 128,-1,180
 953 1695 953 1695 963 1745 c 1,181,-1
 998 1739 l 1,182,183
 992 1707 992 1707 992 1692 c 0,184,185
 992 1655 992 1655 1070 1630.5 c 0,186,187
 1195.75510204 1591 1195.75510204 1591 1387 1591 c 0,188,189
 1419 1591 1419 1591 1491 1624 c 1,190,-1
 1495 1614 l 1,191,192
 1415 1577 1415 1577 1395 1550 c 0,193,194
 1391 1545 1391 1545 1370.5 1521.5 c 128,-1,195
 1350 1498 1350 1498 1342.5 1489 c 128,-1,196
 1335 1480 1335 1480 1318.5 1459 c 128,-1,197
 1302 1438 1302 1438 1295 1425 c 0,198,199
 1272.93670886 1384.02531646 1272.93670886 1384.02531646 1270 1362 c 1,200,-1
 1309 1262 l 1,201,202
 1301 1286 1301 1286 1262 1286 c 0,203,204
 1172 1286 1172 1286 1172 1247 c 2,205,-1
 1172 1194 l 2,206,207
 1172 1126.3 1172 1126.3 1161.5 1102.15 c 128,-1,208
 1151 1078 1151 1078 1146 1068.5 c 128,-1,209
 1141 1059 1141 1059 1141 1055 c 2,210,-1
 1135 618 l 2,211,212
 1135 594.8 1135 594.8 1207 582 c 1,213,-1
 1203 565 l 1,214,215
 1149 573 1149 573 1147 573 c 0,216,217
 1113 573 1113 573 1113 512 c 0,218,219
 1113 499 1113 499 1114 452.5 c 128,-1,220
 1115 406 1115 406 1113 383 c 1,221,222
 1100 372 1100 372 1100 358 c 1,223,-1
 1104 309 l 1,224,225
 1104 215 1104 215 1096 192.5 c 128,-1,226
 1088 170 1088 170 1088 153.5 c 128,-1,227
 1088 137 1088 137 1119 84 c 1,228,-1
 1106 78 l 1,229,230
 1098 85 1098 85 1086.5 96 c 128,-1,231
 1075 107 1075 107 1070 111.5 c 128,-1,232
 1065 116 1065 116 1057 123.5 c 128,-1,233
 1049 131 1049 131 1045.5 133.5 c 128,-1,234
 1042 136 1042 136 1036 140.5 c 128,-1,235
 1030 145 1030 145 1026.5 147 c 0,236,237
 1017.61538462 152.076923077 1017.61538462 152.076923077 1008 154 c 1,238,-1
 1012 154 l 1,239,240
 1006 156 1006 156 996 156 c 0,241,242
 971 156 971 156 930 102 c 1,243,-1
 914 115 l 1,244,245
 953 162 953 162 953 181.5 c 128,-1,246
 953 201 953 201 937.5 219.5 c 128,-1,247
 922 238 922 238 904 238 c 128,-1,248
 886 238 886 238 844 219 c 1,249,-1
 832 244 l 1,250,251
 895 272 895 272 895 299 c 0,252,253
 895 337 895 337 876.5 400.5 c 128,-1,254
 858 464 858 464 838 498 c 1,255,256
 842 490 842 490 842 485 c 0,257,258
 842 466 842 466 785 438 c 1,259,-1
 768 469 l 1,260,261
 789 479.5 789 479.5 795 483.25 c 128,-1,262
 801 487 801 487 807 490.5 c 128,-1,263
 813 494 813 494 815.5 497 c 0,264,265
 822 504.8 822 504.8 822 512.4 c 128,-1,266
 822 520 822 520 806.5 546 c 0,267,268
 764.325581395 616.744186047 764.325581395 616.744186047 687 690 c 1,269,270
 670 709 670 709 652 709 c 128,-1,271
 634 709 634 709 592 694 c 1,272,-1
 586 715 l 1,273,274
 656.322916667 736.260416667 656.322916667 736.260416667 660 762 c 1,275,-1
 660 766 l 1,276,277
 658 774 658 774 646 786 c 1,278,279
 607 808 607 808 572 847.5 c 128,-1,280
 537 887 537 887 531 924 c 1,0,1
EndSplineSet
EndChar

StartChar: O
Encoding: 79 79 14
Width: 1285
Flags: HMW
LayerCount: 2
Fore
SplineSet
206 530 m 1,0,1
 274.581818182 561.781818182 274.581818182 561.781818182 278 584 c 1,2,3
 276 591 276 591 263 604 c 1,4,5
 208 646 208 646 204 748 c 0,6,7
 204 758 204 758 198 764 c 1,8,9
 146.829787234 803.361702128 146.829787234 803.361702128 131.414893617 846.180851064 c 128,-1,10
 116 889 116 889 111 925 c 0,11,12
 104 975.4 104 975.4 104 1044 c 0,13,14
 104 1270 104 1270 -1 1337 c 1,15,-1
 85 1468 l 1,16,17
 118 1442 118 1442 186.5 1442 c 128,-1,18
 255 1442 255 1442 304 1460 c 1,19,20
 305.974038942 1529.09136296 305.974038942 1529.09136296 367 1557.5 c 0,21,22
 396 1571 396 1571 426 1579 c 0,23,24
 522.988636364 1604.86363636 522.988636364 1604.86363636 575.494318182 1628.93181818 c 128,-1,25
 628 1653 628 1653 663 1653 c 0,26,27
 761 1653 761 1653 866 1585.5 c 128,-1,28
 971 1518 971 1518 1015 1423 c 1,29,30
 1041.20588235 1373.86397059 1041.20588235 1373.86397059 1125 1318.5 c 0,31,32
 1197 1270.92857143 1197 1270.92857143 1197 1194 c 0,33,34
 1197 1165 1197 1165 1213 1135.5 c 128,-1,35
 1229 1106 1229 1106 1255.5 1106 c 128,-1,36
 1282 1106 1282 1106 1314 1118 c 1,37,-1
 1322 1094 l 1,38,39
 1277 1079 1277 1079 1263.5 1067.5 c 128,-1,40
 1250 1056 1250 1056 1250 1038 c 1,41,-1
 1269 827 l 1,42,43
 1269 762 1269 762 1224.5 651.5 c 0,44,45
 1171 518.651685393 1171 518.651685393 1171 492.325842697 c 128,-1,46
 1171 466 1171 466 1184 453.5 c 128,-1,47
 1197 441 1197 441 1236 422 c 1,48,-1
 1226 401 l 1,49,50
 1180 422 1180 422 1161.5 422 c 128,-1,51
 1143 422 1143 422 1134.5 412 c 128,-1,52
 1126 402 1126 402 1099.5 373 c 128,-1,53
 1073 344 1073 344 1066 336.5 c 128,-1,54
 1059 329 1059 329 1036 305 c 128,-1,55
 1013 281 1013 281 1001.5 269.5 c 128,-1,56
 990 258 990 258 971 238.5 c 0,57,58
 945.870967742 212.709677419 945.870967742 212.709677419 915.935483871 186.85483871 c 128,-1,59
 886 161 886 161 886 142.5 c 128,-1,60
 886 124 886 124 902 80 c 1,61,-1
 882 72 l 1,62,63
 864 120 864 120 852.5 132.5 c 128,-1,64
 841 145 841 145 820 145 c 2,65,-1
 814 145 l 2,66,67
 786 145 786 145 769.5 131.5 c 128,-1,68
 753 118 753 118 736 70 c 1,69,-1
 706 82 l 1,70,71
 720 123 720 123 720 148 c 128,-1,72
 720 173 720 173 697 186 c 128,-1,73
 674 199 674 199 645 201 c 0,74,75
 563.696428571 206.607142857 563.696428571 206.607142857 536 262 c 0,76,77
 534 267 534 267 525.5 281.5 c 0,78,79
 509.134328358 309.417910448 509.134328358 309.417910448 503 336 c 1,80,81
 467.676056338 340.816901408 467.676056338 340.816901408 386.838028169 371.908450704 c 128,-1,82
 306 403 306 403 271 416 c 1,83,-1
 310 403 l 2,84,85
 322 399 322 399 334.5 399 c 128,-1,86
 347 399 347 399 359.5 411 c 128,-1,87
 372 423 372 423 372 442.5 c 128,-1,88
 372 462 372 462 336.5 498.5 c 128,-1,89
 301 535 301 535 283.5 535 c 128,-1,90
 266 535 266 535 214 514 c 1,91,-1
 206 530 l 1,0,1
403 1149 m 1,92,93
 384 1149 384 1149 384 1124 c 2,94,-1
 384 1034 l 2,95,96
 384 999 384 999 419.5 911 c 0,97,98
 527.943726236 642.181749049 527.943726236 642.181749049 532 557 c 0,99,100
 532 551 532 551 536 543 c 1,101,-1
 558 514 l 2,102,103
 574 492 574 492 593 492 c 128,-1,104
 612 492 612 492 650 514 c 1,105,-1
 669 487 l 1,106,107
 616 456 616 456 616 432 c 0,108,109
 616 419 616 419 620.5 411.5 c 128,-1,110
 625 404 625 404 627 398 c 128,-1,111
 629 392 629 392 629.5 389.5 c 128,-1,112
 630 387 630 387 632.5 383 c 128,-1,113
 635 379 635 379 638 377.5 c 0,114,115
 647 373 647 373 656 373 c 2,116,-1
 669 373 l 2,117,118
 691 373 691 373 706 360.5 c 128,-1,119
 721 348 721 348 724 348 c 2,120,-1
 779 348 l 2,121,122
 788 348 788 348 790 350 c 2,123,-1
 822 367 l 2,124,125
 824 368 824 368 838 396.5 c 0,126,127
 885.6 493.4 885.6 493.4 899.8 509.2 c 128,-1,128
 914 525 914 525 916.5 555 c 128,-1,129
 919 585 919 585 929 592 c 1,130,131
 936 606 936 606 941.5 644 c 128,-1,132
 947 682 947 682 956.5 695 c 128,-1,133
 966 708 966 708 966 715 c 2,134,-1
 966 942 l 2,135,136
 966 1067 966 1067 900 1067 c 0,137,138
 878 1067 878 1067 863 1065 c 1,139,-1
 859 1090 l 1,140,141
 906 1097 906 1097 919.5 1106.5 c 128,-1,142
 933 1116 933 1116 935 1135 c 1,143,144
 933 1140 933 1140 921.5 1153 c 128,-1,145
 910 1166 910 1166 910 1184 c 1,146,-1
 912 1212 l 2,147,148
 912 1221 912 1221 897 1237.5 c 128,-1,149
 882 1254 882 1254 849.5 1320.5 c 128,-1,150
 817 1387 817 1387 792 1415 c 1,151,152
 770 1403 770 1403 765 1348 c 1,153,-1
 722 1352 l 1,154,155
 724 1362 724 1362 724 1384 c 0,156,157
 724 1448 724 1448 644 1448 c 0,158,159
 635 1448 635 1448 593.5 1431.5 c 128,-1,160
 552 1415 552 1415 549.5 1412 c 128,-1,161
 547 1409 547 1409 538 1393 c 2,162,-1
 524.5 1369 l 2,163,164
 511 1345 511 1345 511 1325 c 128,-1,165
 511 1304.97058824 511 1304.97058824 570 1272 c 1,166,-1
 560 1255 l 1,167,168
 510 1282 510 1282 495.5 1282 c 128,-1,169
 481 1282 481 1282 468.5 1263.5 c 128,-1,170
 456 1245 456 1245 448.5 1222.5 c 0,171,172
 427.5 1159.5 427.5 1159.5 403 1149 c 1,92,93
241 428 m 1,173,-1
 265 418 l 1,174,-1
 241 428 l 1,173,-1
265 418 m 1,175,176
 269 418 269 418 271 416 c 1,177,-1
 265 418 l 1,175,176
EndSplineSet
EndChar

StartChar: P
Encoding: 80 80 15
Width: 1415
Flags: HMW
LayerCount: 2
Fore
SplineSet
786 57 m 1,0,-1
 719 51 l 1,1,2
 691 51 691 51 653 55 c 1,3,4
 640 55 640 55 627 41 c 128,-1,5
 614 27 614 27 614 9.5 c 128,-1,6
 614 -8 614 -8 637 -53 c 1,7,-1
 614 -61 l 1,8,9
 597 -20 597 -20 584.5 -7 c 128,-1,10
 572 6 572 6 547 6 c 128,-1,11
 522 6 522 6 502.5 4.5 c 128,-1,12
 483 3 483 3 455 -4.5 c 128,-1,13
 427 -12 427 -12 408 -26 c 0,14,15
 361.883141762 -59.9808429119 361.883141762 -59.9808429119 330 -135 c 1,16,-1
 319 -129 l 1,17,18
 348 -65 348 -65 348 -33 c 1,19,-1
 340 55 l 1,20,21
 340 86 340 86 352.5 115 c 128,-1,22
 365 144 365 144 389.5 154.5 c 128,-1,23
 414 165 414 165 414 180 c 2,24,-1
 414 483 l 2,25,26
 414 512 414 512 387 560.5 c 128,-1,27
 360 609 360 609 360 655.5 c 128,-1,28
 360 702 360 702 303 1088.5 c 128,-1,29
 246 1475 246 1475 231 1481 c 1,30,-1
 166 1524 l 1,31,32
 158 1528 158 1528 151 1528 c 2,33,-1
 84 1528 l 2,34,35
 64 1528 64 1528 46 1517.5 c 128,-1,36
 28 1507 28 1507 -10 1470 c 1,37,-1
 -21 1481 l 1,38,39
 16 1519 16 1519 26.5 1537 c 128,-1,40
 37 1555 37 1555 37 1575 c 2,41,-1
 37 1587 l 2,42,43
 37 1606 37 1606 25 1619 c 128,-1,44
 13 1632 13 1632 -33 1657 c 1,45,-1
 -25 1673 l 1,46,47
 30 1645 30 1645 43 1645 c 128,-1,48
 56 1645 56 1645 76 1655 c 1,49,50
 92 1665 92 1665 92 1684.5 c 128,-1,51
 92 1704 92 1704 80 1747 c 1,52,-1
 100 1753 l 1,53,54
 118.051948052 1689.81818182 118.051948052 1689.81818182 129.025974026 1683.90909091 c 128,-1,55
 140 1678 140 1678 183 1677.5 c 0,56,57
 291 1676.24418605 291 1676.24418605 291 1747 c 0,58,59
 291 1765 291 1765 289 1778 c 1,60,-1
 325 1782 l 1,61,62
 331 1731 331 1731 344 1718.5 c 128,-1,63
 357 1706 357 1706 389 1706 c 2,64,-1
 584 1706 l 2,65,66
 590 1706 590 1706 631 1729 c 128,-1,67
 672 1752 672 1752 686.5 1754 c 128,-1,68
 701 1756 701 1756 703 1757.5 c 0,69,70
 710 1762.75 710 1762.75 710 1787.375 c 128,-1,71
 710 1812 710 1812 708 1833 c 1,72,-1
 721 1833 l 1,73,74
 726 1762 726 1762 735 1759 c 1,75,-1
 747 1759 l 2,76,77
 781 1759 781 1759 798 1773.5 c 128,-1,78
 815 1788 815 1788 825 1835 c 1,79,-1
 874 1823 l 1,80,81
 868 1798 868 1798 868 1773.5 c 128,-1,82
 868 1749 868 1749 890 1731 c 128,-1,83
 912 1713 912 1713 945.5 1710.5 c 128,-1,84
 979 1708 979 1708 1018.5 1707 c 128,-1,85
 1058 1706 1058 1706 1093 1704.5 c 0,86,87
 1176.46623094 1700.92287582 1176.46623094 1700.92287582 1186 1638 c 1,88,89
 1186 1615 1186 1615 1252.5 1526.5 c 128,-1,90
 1319 1438 1319 1438 1332.5 1438 c 128,-1,91
 1346 1438 1346 1438 1401 1456 c 1,92,-1
 1405 1444 l 1,93,94
 1356 1425 1356 1425 1344.5 1416 c 128,-1,95
 1333 1407 1333 1407 1333 1393 c 2,96,-1
 1333 1362 l 2,97,98
 1333 1186 1333 1186 1247 1031.5 c 128,-1,99
 1161 877 1161 877 1009 799 c 1,100,101
 1000 796 1000 796 990.5 778.5 c 128,-1,102
 981 761 981 761 962.5 745.5 c 128,-1,103
 944 730 944 730 926.5 722.5 c 0,104,105
 877.71875 701.59375 877.71875 701.59375 811 612 c 1,106,-1
 807 616 l 1,107,108
 859 683 859 683 868 711 c 1,109,-1
 880 741 l 1,110,111
 883 745 883 745 883 756 c 0,112,113
 883 791 883 791 844 791 c 2,114,-1
 829 791 l 1,115,-1
 702 803 l 1,116,117
 675 803 675 803 672 773.5 c 128,-1,118
 669 744 669 744 653 651 c 128,-1,119
 637 558 637 558 637 497 c 128,-1,120
 637 436 637 436 655 388 c 128,-1,121
 673 340 673 340 710 340 c 0,122,123
 717 340 717 340 745 344 c 1,124,-1
 747 328 l 1,125,-1
 751 328 l 1,126,-1
 747 317 l 1,127,-1
 749 313 l 1,128,-1
 747 313 l 1,129,130
 737 270 737 270 737 254.5 c 128,-1,131
 737 239 737 239 749 223 c 1,132,-1
 749 221 l 1,133,134
 756 207 756 207 770 207 c 128,-1,135
 784 207 784 207 833 227 c 1,136,-1
 842 211 l 1,137,138
 778 181.461538462 778 181.461538462 778 164 c 0,139,140
 778 133 778 133 801.5 103.5 c 128,-1,141
 825 74 825 74 893 41 c 1,142,-1
 887 25 l 1,143,144
 818 57 818 57 786 57 c 1,0,-1
821 1536 m 1,145,-1
 751 1526 l 1,146,147
 725 1526 725 1526 709 1527 c 128,-1,148
 693 1528 693 1528 683.5 1518.5 c 128,-1,149
 674 1509 674 1509 674 1495 c 2,150,-1
 674 1069 l 2,151,152
 674 1060 674 1060 659.5 1041 c 128,-1,153
 645 1022 645 1022 645 1012 c 0,154,155
 645 983 645 983 720 983 c 128,-1,156
 795 983 795 983 833 1026 c 1,157,-1
 909 1106 l 1,158,-1
 917 1106 l 1,159,-1
 915 1112 l 1,160,161
 985 1189 985 1189 1016 1227 c 1,162,-1
 915 1128 l 1,163,164
 917 1140 917 1140 930 1159 c 2,165,-1
 993 1260 l 2,166,167
 995 1264 995 1264 995 1274.5 c 128,-1,168
 995 1285 995 1285 982 1318 c 128,-1,169
 969 1351 969 1351 960.5 1357 c 128,-1,170
 952 1363 952 1363 896 1449.5 c 128,-1,171
 840 1536 840 1536 821 1536 c 1,145,-1
EndSplineSet
EndChar

StartChar: Q
Encoding: 81 81 16
Width: 2067
Flags: HMW
LayerCount: 2
Fore
SplineSet
980 -227 m 1,0,1
 951.9 -227 951.9 -227 923 -295 c 1,2,-1
 904 -285 l 1,3,4
 925 -233 925 -233 925 -218.5 c 128,-1,5
 925 -204 925 -204 916 -190 c 1,6,7
 898 -190 898 -190 886.5 -203 c 128,-1,8
 875 -216 875 -216 859 -264 c 1,9,-1
 839 -258 l 1,10,11
 853 -212 853 -212 853 -195 c 128,-1,12
 853 -178 853 -178 839 -164 c 1,13,14
 797 -132 797 -132 696 -70.5 c 128,-1,15
 595 -9 595 -9 513 41.5 c 128,-1,16
 431 92 431 92 360.5 154 c 128,-1,17
 290 216 290 216 282 262 c 1,18,19
 279 272 279 272 269 281 c 1,20,21
 204 322 204 322 159 405 c 0,22,23
 79 552.555555556 79 552.555555556 79 739 c 2,24,-1
 79 973 l 2,25,26
 79 1012 79 1012 96.5 1089 c 128,-1,27
 114 1166 114 1166 114 1209.5 c 128,-1,28
 114 1253 114 1253 133.5 1321 c 0,29,30
 155.323055361 1397.100911 155.323055361 1397.100911 188.66152768 1476.5504555 c 128,-1,31
 222 1556 222 1556 222 1571 c 128,-1,32
 222 1586 222 1586 183 1638 c 1,33,-1
 198 1649 l 1,34,35
 242.512820513 1587 242.512820513 1587 269 1587 c 1,36,37
 274 1589 274 1589 284.5 1600.5 c 128,-1,38
 295 1612 295 1612 304 1612 c 1,39,-1
 312 1606 l 1,40,-1
 347 1638 l 1,41,42
 341 1667 341 1667 280 1706 c 1,43,-1
 290 1722 l 1,44,45
 346 1688 346 1688 366.5 1688 c 128,-1,46
 387 1688 387 1688 445 1720.5 c 128,-1,47
 503 1753 503 1753 509 1753 c 1,48,49
 523 1767 523 1767 523 1787 c 128,-1,50
 523 1807 523 1807 509 1849 c 1,51,-1
 529 1858 l 1,52,53
 547 1809 547 1809 558.5 1796.5 c 128,-1,54
 570 1784 570 1784 591 1784 c 2,55,-1
 734 1784 l 2,56,57
 759 1784 759 1784 759 1816.5 c 128,-1,58
 759 1849 759 1849 751 1886 c 1,59,-1
 769 1890 l 1,60,61
 780 1841 780 1841 790.5 1824 c 128,-1,62
 801 1807 801 1807 818 1800 c 0,63,64
 884 1776 884 1776 912 1776 c 128,-1,65
 940 1776 940 1776 951.5 1788.5 c 128,-1,66
 963 1801 963 1801 982 1841 c 1,67,-1
 994 1835 l 1,68,69
 968 1779 968 1779 968 1766 c 128,-1,70
 968 1753 968 1753 986 1753 c 2,71,-1
 996 1753 l 2,72,73
 1034 1753 1034 1753 1089.5 1724.5 c 128,-1,74
 1145 1696 1145 1696 1154 1696 c 0,75,76
 1173 1696 1173 1696 1209 1749 c 1,77,-1
 1228 1737 l 1,78,79
 1195 1693 1195 1693 1195 1673 c 128,-1,80
 1195 1653 1195 1653 1246 1617 c 128,-1,81
 1297 1581 1297 1581 1365.5 1539 c 128,-1,82
 1434 1497 1434 1497 1449 1481.5 c 128,-1,83
 1464 1466 1464 1466 1474.5 1466 c 128,-1,84
 1485 1466 1485 1466 1533 1507 c 1,85,-1
 1545 1493 l 1,86,87
 1496 1454 1496 1454 1496 1441.5 c 128,-1,88
 1496 1429 1496 1429 1502 1423 c 1,89,-1
 1578 1313 l 1,90,-1
 1600 1292 l 1,91,92
 1614 1276 1614 1276 1631 1276 c 128,-1,93
 1648 1276 1648 1276 1697 1300 c 1,94,-1
 1707 1280 l 1,95,96
 1643 1244.63157895 1643 1244.63157895 1643 1221 c 0,97,98
 1643 1210 1643 1210 1646 1206 c 1,99,100
 1653 1162 1653 1162 1692.5 1054 c 128,-1,101
 1732 946 1732 946 1732 885 c 2,102,-1
 1732 618 l 1,103,-1
 1711 571 l 1,104,-1
 1715 547 l 1,105,106
 1715 474.783783784 1715 474.783783784 1630 333.5 c 0,107,108
 1582 253.716216216 1582 253.716216216 1582 243.858108108 c 128,-1,109
 1582 234 1582 234 1639 195 c 1,110,-1
 1627 178 l 1,111,112
 1580 211 1580 211 1565 211 c 128,-1,113
 1550 211 1550 211 1537 196.5 c 128,-1,114
 1524 182 1524 182 1515.5 164 c 0,115,116
 1492.17021277 114.595744681 1492.17021277 114.595744681 1453 109 c 1,117,118
 1445.59090909 109 1445.59090909 109 1404.29545455 69.5 c 128,-1,119
 1363 30 1363 30 1342.5 18 c 128,-1,120
 1322 6 1322 6 1322 -10.5 c 128,-1,121
 1322 -27 1322 -27 1330.5 -37 c 128,-1,122
 1339 -47 1339 -47 1351 -47 c 2,123,-1
 1359 -47 l 2,124,125
 1387 -47 1387 -47 1400 -34 c 128,-1,126
 1413 -21 1413 -21 1424 29 c 1,127,-1
 1455 20 l 1,128,129
 1447 -9 1447 -9 1447 -32.5 c 128,-1,130
 1447 -56 1447 -56 1470.5 -71 c 128,-1,131
 1494 -86 1494 -86 1520.5 -90.5 c 128,-1,132
 1547 -95 1547 -95 1588 -99 c 128,-1,133
 1629 -103 1629 -103 1643 -106 c 1,134,-1
 1750 -117 l 1,135,136
 1769 -117 1769 -117 1781 -104 c 128,-1,137
 1793 -91 1793 -91 1807 -47 c 1,138,-1
 1834 -55 l 1,139,140
 1822 -96 1822 -96 1822 -113 c 0,141,142
 1822 -146 1822 -146 1866 -163.5 c 128,-1,143
 1910 -181 1910 -181 1966 -183.5 c 0,144,145
 2129.02819436 -190.778044391 2129.02819436 -190.778044391 2170 -217 c 0,146,147
 2179 -223 2179 -223 2186 -223 c 0,148,149
 2272 -211 2272 -211 2358 -211 c 128,-1,150
 2444 -211 2444 -211 2696 -255.5 c 128,-1,151
 2948 -300 2948 -300 3075 -301 c 0,152,153
 3085 -301 3085 -301 3091 -295 c 2,154,-1
 3120 -270 l 1,155,156
 3134 -260 3134 -260 3134 -241 c 128,-1,157
 3134 -222 3134 -222 3118 -178 c 1,158,-1
 3136 -170 l 1,159,160
 3155 -219 3155 -219 3166 -231.5 c 128,-1,161
 3177 -244 3177 -244 3196 -244 c 2,162,-1
 3204 -244 l 2,163,164
 3233.37142857 -244 3233.37142857 -244 3292 -190 c 1,165,-1
 3300 -199 l 1,166,167
 3258 -237 3258 -237 3247.5 -253.5 c 128,-1,168
 3237 -270 3237 -270 3237 -291 c 128,-1,169
 3237 -312 3237 -312 3292 -362 c 1,170,-1
 3282 -375 l 1,171,172
 3226 -324 3226 -324 3201.5 -324 c 128,-1,173
 3177 -324 3177 -324 3132 -341 c 128,-1,174
 3087 -358 3087 -358 3063 -358 c 2,175,-1
 3040 -358 l 2,176,177
 3035 -358 3035 -358 3029.5 -367.5 c 128,-1,178
 3024 -377 3024 -377 3024 -389 c 128,-1,179
 3024 -401 3024 -401 3050 -449 c 1,180,-1
 3034 -459 l 1,181,182
 3012 -421 3012 -421 3000.5 -408 c 128,-1,183
 2989 -395 2989 -395 2977 -395 c 1,184,-1
 2964 -397 l 1,185,-1
 2962 -397 l 1,186,187
 2943.17647059 -402.647058824 2943.17647059 -402.647058824 2939.58823529 -409.823529412 c 128,-1,188
 2936 -417 2936 -417 2936 -432 c 128,-1,189
 2936 -447 2936 -447 2942 -477 c 1,190,-1
 2919 -481 l 1,191,192
 2913 -438 2913 -438 2906.5 -425 c 128,-1,193
 2900 -412 2900 -412 2887 -412 c 1,194,-1
 2608 -440 l 1,195,-1
 2387 -455 l 1,196,197
 2368 -455 2368 -455 2356 -468 c 128,-1,198
 2344 -481 2344 -481 2325 -528 c 1,199,-1
 2307 -522 l 1,200,201
 2323 -478 2323 -478 2323 -451 c 128,-1,202
 2323 -424 2323 -424 2299 -424 c 2,203,-1
 1758 -424 l 2,204,205
 1749 -424 1749 -424 1730 -510 c 1,206,-1
 1693 -502 l 1,207,208
 1701 -458 1701 -458 1701 -444 c 128,-1,209
 1701 -430 1701 -430 1689 -417.5 c 128,-1,210
 1677 -405 1677 -405 1655 -397 c 128,-1,211
 1633 -389 1633 -389 1612 -383.5 c 128,-1,212
 1591 -378 1591 -378 1560.5 -371.5 c 128,-1,213
 1530 -365 1530 -365 1514 -360 c 1,214,215
 1514 -362 1514 -362 1503 -362 c 128,-1,216
 1492 -362 1492 -362 1430 -349 c 128,-1,217
 1368 -336 1368 -336 1300 -320 c 0,218,219
 1230.03846154 -303.538461538 1230.03846154 -303.538461538 1207.19978632 -302.269230769 c 128,-1,220
 1184.36111111 -301 1184.36111111 -301 1142 -362 c 1,221,-1
 1123 -348 l 1,222,223
 1158 -300 1158 -300 1158 -283 c 128,-1,224
 1158 -266 1158 -266 1150 -250 c 1,225,-1
 1152 -256 l 1,226,227
 1146 -245 1146 -245 1131 -242 c 1,228,-1
 980 -227 l 1,0,1
865 -47 m 1,229,230
 892 -47 892 -47 892 -14.5 c 128,-1,231
 892 18 892 18 888 41 c 1,232,-1
 910 45 l 1,233,234
 925 -39 925 -39 970 -39 c 0,235,236
 1125 -39 1125 -39 1199 8 c 128,-1,237
 1273 55 1273 55 1326 199 c 0,238,239
 1328 205 1328 205 1328 213 c 0,240,241
 1328 232 1328 232 1267 256 c 1,242,-1
 1275 276 l 1,243,244
 1322 258 1322 258 1334 258 c 0,245,246
 1366 258 1366 258 1389.5 353.5 c 0,247,248
 1431 522.14893617 1431 522.14893617 1431 700 c 0,249,250
 1431 1202.10714286 1431 1202.10714286 1266 1400.5 c 0,251,252
 1224 1451 1224 1451 1192 1464 c 128,-1,253
 1160 1477 1160 1477 1154 1477 c 0,254,255
 1133 1477 1133 1477 1088 1427 c 1,256,-1
 1072 1442 l 1,257,258
 1113 1488 1113 1488 1113 1503 c 128,-1,259
 1113 1518 1113 1518 1107 1530 c 0,260,261
 1055 1618 1055 1618 967.5 1690.5 c 128,-1,262
 880 1763 880 1763 809.5 1763 c 128,-1,263
 739 1763 739 1763 685 1738 c 128,-1,264
 631 1713 631 1713 594.5 1675 c 128,-1,265
 558 1637 558 1637 524 1588.5 c 128,-1,266
 490 1540 490 1540 467.5 1496.5 c 0,267,268
 409.6 1384.56 409.6 1384.56 376 1356 c 0,269,270
 369 1349 369 1349 366 1339 c 1,271,272
 347 1156 347 1156 347 1015 c 128,-1,273
 347 874 347 874 349 814 c 0,274,275
 354.631578947 645.052631579 354.631578947 645.052631579 392 518 c 0,276,277
 401 488 401 488 440.5 435.5 c 128,-1,278
 480 383 480 383 480 346 c 128,-1,279
 480 309 480 309 522 223 c 128,-1,280
 564 137 564 137 595 137 c 0,281,282
 612 137 612 137 656 162 c 1,283,-1
 667 143 l 1,284,285
 607 109 607 109 607 90 c 0,286,287
 607 40.2058823529 607 40.2058823529 679 9.5 c 0,288,289
 732.839175258 -13.4608247423 732.839175258 -13.4608247423 796.294587629 -28.9179123711 c 128,-1,290
 859.75 -44.375 859.75 -44.375 865 -47 c 1,229,230
EndSplineSet
EndChar

StartChar: R
Encoding: 82 82 17
Width: 1140
Flags: HMW
LayerCount: 2
Fore
SplineSet
418 1712 m 2,0,-1
 451.5 1713 l 2,1,2
 474 1713 474 1713 481 1716.5 c 128,-1,3
 488 1720 488 1720 497.5 1724 c 128,-1,4
 507 1728 507 1728 510.5 1733.5 c 128,-1,5
 514 1739 514 1739 520.5 1747.5 c 128,-1,6
 527 1756 527 1756 529.5 1766.5 c 0,7,8
 536 1793.8 536 1793.8 536 1823 c 1,9,-1
 561 1825 l 1,10,11
 561 1761.83333333 561 1761.83333333 583 1743.5 c 0,12,13
 592 1736 592 1736 595.5 1732 c 128,-1,14
 599 1728 599 1728 612.5 1726 c 128,-1,15
 626 1724 626 1724 629 1723.5 c 128,-1,16
 632 1723 632 1723 648 1723.5 c 128,-1,17
 664 1724 664 1724 675 1724 c 128,-1,18
 686 1724 686 1724 700.5 1727 c 128,-1,19
 715 1730 715 1730 731 1738.5 c 0,20,21
 764 1756.03125 764 1756.03125 764 1819 c 1,22,-1
 792 1819 l 1,23,24
 793.855636659 1744.77453366 793.855636659 1744.77453366 830.5 1736.5 c 0,25,26
 846 1733 846 1733 861 1731.5 c 0,27,28
 897.254480287 1727.87455197 897.254480287 1727.87455197 899 1679 c 0,29,30
 899 1669 899 1669 907 1661 c 0,31,32
 964 1601 964 1601 964 1524 c 0,33,34
 964 1267 964 1267 846 1065 c 1,35,36
 855 1040 855 1040 903 1024 c 1,37,-1
 887 975 l 1,38,39
 861 985 861 985 834.5 985 c 128,-1,40
 808 985 808 985 786 949 c 128,-1,41
 764 913 764 913 766 868 c 2,42,-1
 768 819 l 2,43,44
 768 813 768 813 772 805 c 1,45,46
 812.06312769 768.275466284 812.06312769 768.275466284 871.531563845 657.137733142 c 0,47,48
 979.692982456 455 979.692982456 455 1036 455 c 0,49,50
 1053 455 1053 455 1093 465 c 1,51,-1
 1100 444 l 1,52,53
 1050 431 1050 431 1037 422 c 128,-1,54
 1024 413 1024 413 1024 395 c 1,55,-1
 1022 360 l 1,56,-1
 1022 354 l 2,57,58
 1022 323 1022 323 1041 290.5 c 128,-1,59
 1060 258 1060 258 1080.5 258 c 128,-1,60
 1101 258 1101 258 1145 287 c 1,61,-1
 1155 268 l 1,62,63
 1100 234 1100 234 1100 210 c 128,-1,64
 1100 186 1100 186 1131 154.5 c 128,-1,65
 1162 123 1162 123 1182 123 c 128,-1,66
 1202 123 1202 123 1251 135 c 1,67,-1
 1255 121 l 1,68,69
 1201 107 1201 107 1188 99.5 c 0,70,71
 1163 85.0769230769 1163 85.0769230769 1163 61.5384615385 c 128,-1,72
 1163 38 1163 38 1202 -16 c 1,73,-1
 1192 -25 l 1,74,75
 1162 18 1162 18 1148 29.5 c 128,-1,76
 1134 41 1134 41 1124 41 c 128,-1,77
 1114 41 1114 41 1106 37 c 1,78,-1
 1081 20 l 2,79,80
 1053.33333333 1.55555555556 1053.33333333 1.55555555556 1016 -70 c 1,81,-1
 1007 -66 l 1,82,83
 1038 -8 1038 -8 1044 16 c 1,84,85
 1035 39 1035 39 1007 39 c 1,86,-1
 938 35 l 1,87,88
 914.470588235 35 914.470588235 35 909 4 c 1,89,-1
 897 -41 l 1,90,-1
 878 -41 l 1,91,-1
 901 57 l 1,92,93
 901 115 901 115 858 115 c 0,94,95
 836 115 836 115 784 80 c 1,96,-1
 772 96 l 1,97,98
 833 140.055555556 833 140.055555556 833 166 c 0,99,100
 833 216 833 216 820.5 303 c 128,-1,101
 808 390 808 390 796 401 c 1,102,103
 772 420 772 420 732.5 496 c 0,104,105
 613.132989025 725.668173015 613.132989025 725.668173015 532 795 c 1,106,107
 523 807 523 807 510 807 c 0,108,109
 484 807 484 807 471 766.5 c 128,-1,110
 458 726 458 726 458 674 c 128,-1,111
 458 622 458 622 469.5 512.5 c 128,-1,112
 481 403 481 403 483 356 c 0,113,114
 483 342 483 342 561.5 298 c 128,-1,115
 640 254 640 254 661.5 254 c 128,-1,116
 683 254 683 254 727 262 c 1,117,-1
 731 246 l 1,118,119
 650.473684211 230.210526316 650.473684211 230.210526316 631 201 c 2,120,-1
 606 162 l 2,121,122
 600 153 600 153 600 139 c 128,-1,123
 600 125 600 125 635 74 c 1,124,-1
 622 66 l 1,125,126
 582.432432432 127 582.432432432 127 559 127 c 1,127,-1
 514 123 l 1,128,129
 493 123 493 123 460.5 143.5 c 128,-1,130
 428 164 428 164 424.5 164 c 128,-1,131
 421 164 421 164 417 160.5 c 128,-1,132
 413 157 413 157 406.5 152 c 128,-1,133
 400 147 400 147 392 141.5 c 0,134,135
 369.6 126.1 369.6 126.1 351.3 118.55 c 128,-1,136
 333 111 333 111 325 100.5 c 128,-1,137
 317 90 317 90 317 65.5 c 128,-1,138
 317 41 317 41 319 25 c 1,139,-1
 299 25 l 1,140,141
 292 102 292 102 265.5 102 c 128,-1,142
 239 102 239 102 186 59 c 1,143,-1
 178 72 l 1,144,145
 220 104 220 104 231.5 119.5 c 128,-1,146
 243 135 243 135 243 152 c 1,147,-1
 248 213 l 1,148,149
 248 230 248 230 235 243 c 128,-1,150
 222 256 222 256 180 281 c 1,151,-1
 192 301 l 1,152,153
 247 276 247 276 262.5 276 c 128,-1,154
 278 276 278 276 300.5 297.5 c 128,-1,155
 323 319 323 319 323 332 c 1,156,-1
 321 342 l 1,157,158
 270 534 270 534 255.5 736.5 c 128,-1,159
 241 939 241 939 241 1221 c 1,160,161
 239.645833333 1221 239.645833333 1221 214.322916667 1314.5 c 128,-1,162
 189 1408 189 1408 186 1411 c 2,163,-1
 80 1485 l 1,164,165
 58 1497 58 1497 38.5 1497 c 128,-1,166
 19 1497 19 1497 -27 1483 c 1,167,-1
 -33 1501 l 1,168,169
 17 1516 17 1516 33.5 1527 c 128,-1,170
 50 1538 50 1538 57 1556 c 2,171,-1
 88 1628 l 1,172,173
 92 1640 92 1640 92 1655.5 c 128,-1,174
 92 1671 92 1671 55 1726 c 1,175,-1
 71 1739 l 1,176,177
 100 1695 100 1695 115.5 1683 c 128,-1,178
 131 1671 131 1671 151 1671 c 2,179,-1
 315 1671 l 2,180,181
 329 1671 329 1671 338.5 1682 c 128,-1,182
 348 1693 348 1693 348 1713.5 c 128,-1,183
 348 1734 348 1734 329 1776 c 1,184,-1
 352 1784 l 1,185,186
 375.600858369 1722.27467811 375.600858369 1722.27467811 395 1715 c 0,187,188
 403 1712 403 1712 418 1712 c 2,0,-1
458 1470 m 2,189,-1
 458 1071 l 2,190,191
 458 1054 458 1054 468 1043 c 128,-1,192
 478 1032 478 1032 490 1032 c 128,-1,193
 502 1032 502 1032 514 1038 c 2,194,-1
 549 1057 l 1,195,196
 556 1068 556 1068 585 1085 c 0,197,198
 657 1127.20689655 657 1127.20689655 657 1186 c 0,199,200
 657 1204 657 1204 669.5 1237 c 128,-1,201
 682 1270 682 1270 682 1286 c 2,202,-1
 682 1384 l 2,203,204
 682 1400 682 1400 669.5 1427.5 c 128,-1,205
 657 1455 657 1455 657 1470.5 c 128,-1,206
 657 1486 657 1486 643.5 1502.5 c 0,207,208
 614.454545455 1538 614.454545455 1538 600 1538 c 2,209,-1
 501 1538 l 2,210,211
 482 1538 482 1538 470 1510 c 128,-1,212
 458 1482 458 1482 458 1470 c 2,189,-1
EndSplineSet
EndChar

StartChar: S
Encoding: 83 83 18
Width: 1241
Flags: HMW
LayerCount: 2
Fore
SplineSet
197 129 m 1,0,1
 261 140.487179487 261 140.487179487 261 166 c 1,2,-1
 257 252 l 1,3,4
 254 267 254 267 251 270 c 1,5,-1
 244 272 l 1,6,7
 244 279 244 279 224 279 c 128,-1,8
 204 279 204 279 152 248 c 1,9,-1
 142 262 l 1,10,11
 182 288 182 288 194 302.5 c 128,-1,12
 206 317 206 317 207 341 c 128,-1,13
 208 365 208 365 207 380.5 c 128,-1,14
 206 396 206 396 200.5 418.5 c 128,-1,15
 195 441 195 441 181.5 452 c 128,-1,16
 168 463 168 463 146 463 c 128,-1,17
 124 463 124 463 113 461 c 1,18,-1
 107 496 l 1,19,20
 156 503 156 503 167.5 516.5 c 128,-1,21
 179 530 179 530 179 563 c 2,22,-1
 179 582 l 2,23,24
 179 618 179 618 142 684 c 1,25,-1
 150 688 l 1,26,27
 185 623 185 623 216 600 c 1,28,-1
 249 580 l 1,29,-1
 259 575 l 1,30,31
 343 566 343 566 349 391 c 0,32,33
 349 384 349 384 364 366 c 0,34,35
 424.227272727 293.727272727 424.227272727 293.727272727 431.113636364 275.363636364 c 128,-1,36
 438 257 438 257 440.5 252 c 128,-1,37
 443 247 443 247 445 244 c 128,-1,38
 447 241 447 241 449 238 c 0,39,40
 452.333333333 233 452.333333333 233 457.666666667 233 c 128,-1,41
 463 233 463 233 467.5 243 c 128,-1,42
 472 253 472 253 472 274 c 128,-1,43
 472 295 472 295 453 328 c 1,44,-1
 470 336 l 1,45,46
 489 292 489 292 501.5 280 c 128,-1,47
 514 268 514 268 533 268 c 2,48,-1
 605 268 l 2,49,50
 650 268 650 268 707 285 c 1,51,52
 713 295 713 295 748.5 320 c 128,-1,53
 784 345 784 345 789 373 c 1,54,-1
 797 522 l 2,55,56
 797 534 797 534 769 592 c 1,57,-1
 640 700 l 1,58,59
 636 705 636 705 625 705 c 2,60,-1
 566 705 l 2,61,62
 543 705 543 705 528 694 c 128,-1,63
 513 683 513 683 492 639 c 1,64,-1
 472 647 l 1,65,66
 494 692 494 692 494 716.5 c 128,-1,67
 494 741 494 741 472 756.5 c 128,-1,68
 450 772 450 772 423.588235294 772 c 128,-1,69
 397.176470588 772 397.176470588 772 367 715 c 1,70,-1
 345 727 l 1,71,72
 367 770 367 770 367 784 c 128,-1,73
 367 798 367 798 352 809 c 128,-1,74
 337 820 337 820 317 828 c 0,75,76
 263.754385965 849.298245614 263.754385965 849.298245614 236 883 c 1,77,78
 209.333333333 907 209.333333333 907 138 907 c 1,79,-1
 138 924 l 1,80,-1
 156 924 l 2,81,82
 217 924 217 924 236 946 c 2,83,-1
 255 967 l 1,84,85
 239 991 239 991 227 991 c 128,-1,86
 215 991 215 991 163 975 c 1,87,-1
 152 1001 l 1,88,89
 184 1017 184 1017 196 1028 c 128,-1,90
 208 1039 208 1039 208 1053 c 128,-1,91
 208 1067 208 1067 198 1089 c 128,-1,92
 188 1111 188 1111 181 1143 c 1,93,94
 125 1190 125 1190 72 1190 c 0,95,96
 56 1190 56 1190 48 1188 c 1,97,-1
 23 1307 l 1,98,99
 74 1316 74 1316 108.5 1368 c 128,-1,100
 143 1420 143 1420 171 1530 c 1,101,-1
 130 1618 l 1,102,103
 133 1630 133 1630 147 1630 c 0,104,105
 176.275862069 1630 176.275862069 1630 230.5 1587.5 c 2,106,-1
 249 1573 l 1,107,108
 255 1579 255 1579 255 1585 c 1,109,110
 266.09501845 1633.07841328 266.09501845 1633.07841328 380.5 1642.5 c 0,111,112
 492 1651.68235294 492 1651.68235294 492 1710 c 0,113,114
 492 1731 492 1731 490 1743 c 1,115,-1
 521 1745 l 1,116,117
 528.469387755 1681.51020408 528.469387755 1681.51020408 551 1674 c 0,118,119
 560 1671 560 1671 578 1671 c 2,120,-1
 679 1669 l 2,121,122
 695 1669 695 1669 705 1681 c 128,-1,123
 715 1693 715 1693 732 1735 c 1,124,-1
 754 1729 l 1,125,126
 742 1699 742 1699 742 1669.46505924 c 0,127,128
 742 1639.7142048 742 1639.7142048 852.978225037 1575.14595461 c 0,129,130
 886.142890118 1555.8504181 886.142890118 1555.8504181 885.999651042 1553.92520905 c 128,-1,131
 885.856411965 1552 885.856411965 1552 883 1552 c 1,132,133
 894 1552 894 1552 902 1561 c 2,134,-1
 1051 1718 l 1,135,-1
 1068 1706 l 1,136,-1
 1039 1626 l 2,137,138
 1037 1622 1037 1622 1037 1616 c 128,-1,139
 1037 1610 1037 1610 1059.5 1574.5 c 128,-1,140
 1082 1539 1082 1539 1082 1513 c 0,141,142
 1082 1372 1082 1372 980 1032 c 1,143,144
 978 1032 978 1032 978 1016 c 128,-1,145
 978 1000 978 1000 992 940 c 1,146,-1
 986 938 l 1,147,148
 965.038767396 1031.37276342 965.038767396 1031.37276342 935.5 1045.5 c 0,149,150
 924 1051 924 1051 905.5 1059 c 128,-1,151
 887 1067 887 1067 870 1083 c 128,-1,152
 853 1099 853 1099 828 1191.5 c 128,-1,153
 803 1284 803 1284 797 1297 c 128,-1,154
 791 1310 791 1310 762.5 1347.5 c 128,-1,155
 734 1385 734 1385 733 1402 c 128,-1,156
 732 1419 732 1419 726 1425 c 2,157,-1
 648 1497 l 1,158,159
 639 1509 639 1509 630 1509 c 0,160,161
 605 1509 605 1509 605 1479.5 c 128,-1,162
 605 1450 605 1450 615 1421 c 1,163,-1
 597 1415 l 1,164,165
 584 1461 584 1461 573 1473 c 128,-1,166
 562 1485 562 1485 543 1485 c 2,167,-1
 480 1485 l 2,168,169
 470 1485 470 1485 464 1479 c 2,170,-1
 404 1427 l 1,171,172
 398 1427 398 1427 398 1407 c 2,173,-1
 398 1231 l 1,174,175
 400 1212 400 1212 406 1212 c 1,176,177
 443 1183 443 1183 562.5 1111 c 128,-1,178
 682 1039 682 1039 775.5 971.5 c 128,-1,179
 869 904 869 904 890 854 c 0,180,181
 896 840 896 840 908 840 c 1,182,183
 978 822 978 822 978 590 c 0,184,185
 978 403.28 978 403.28 958.5 354.14 c 0,186,187
 918.846938776 254.214285714 918.846938776 254.214285714 853 203 c 1,188,189
 845 191 845 191 842 175 c 128,-1,190
 839 159 839 159 804 123 c 128,-1,191
 769 87 769 87 763 63 c 1,192,193
 739 49 739 49 682 49 c 128,-1,194
 625 49 625 49 532.5 61.5 c 128,-1,195
 440 74 440 74 394 74 c 128,-1,196
 348 74 348 74 321.5 60 c 128,-1,197
 295 46 295 46 265 -4 c 1,198,-1
 240 10 l 1,199,200
 271 63 271 63 271 96 c 0,201,202
 271 113 271 113 251 113 c 128,-1,203
 231 113 231 113 199 106 c 1,204,-1
 197 129 l 1,0,1
263 952 m 1,205,-1
 255 967 l 1,206,207
 258 956 258 956 263 952 c 1,205,-1
EndSplineSet
EndChar

StartChar: T
Encoding: 84 84 19
Width: 1604
Flags: HMW
LayerCount: 2
Fore
SplineSet
810.5 178 m 0,0,1
 795.25 178 795.25 178 763.125 178 c 0,2,3
 681.75 178 681.75 178 649 47 c 1,4,-1
 635 51 l 1,5,6
 651 129 651 129 651 137.5 c 128,-1,7
 651 146 651 146 640 174 c 128,-1,8
 629 202 629 202 618 284.5 c 128,-1,9
 607 367 607 367 580 422 c 1,10,11
 572 434 572 434 533 434 c 1,12,13
 535 436 535 436 537 436 c 2,14,-1
 610 455 l 1,15,-1
 633 354 l 1,16,-1
 635 352 l 1,17,18
 639 352 639 352 649 362 c 1,19,20
 713 436 713 436 713 530 c 0,21,22
 713 586.5 713 586.5 678 709 c 1,23,24
 667.873684211 739.378947368 667.873684211 739.378947368 602 788 c 1,25,-1
 610 799 l 1,26,27
 666 758 666 758 690 752 c 1,28,29
 713 758 713 758 713 782 c 2,30,-1
 715 842 l 2,31,32
 717 876 717 876 700 908 c 128,-1,33
 683 940 683 940 653 940 c 0,34,35
 643 940 643 940 598 930 c 1,36,-1
 592 954 l 1,37,38
 642 967 642 967 654 979 c 128,-1,39
 666 991 666 991 666 1026 c 128,-1,40
 666 1061 666 1061 664 1090.5 c 128,-1,41
 662 1120 662 1120 654 1155.5 c 0,42,43
 637.887323944 1227 637.887323944 1227 580 1227 c 0,44,45
 559 1227 559 1227 547 1223 c 1,46,-1
 535 1274 l 1,47,48
 602 1291 602 1291 602 1335 c 0,49,50
 602 1399 602 1399 584 1399 c 0,51,52
 572 1399 572 1399 564.5 1388 c 128,-1,53
 557 1377 557 1377 557 1362 c 128,-1,54
 557 1347 557 1347 569 1305 c 1,55,-1
 547 1298 l 1,56,57
 532 1342 532 1342 521 1355 c 128,-1,58
 510 1368 510 1368 481 1368 c 128,-1,59
 452 1368 452 1368 394.5 1351.5 c 128,-1,60
 337 1335 337 1335 332.5 1309 c 128,-1,61
 328 1283 328 1283 296 1245 c 128,-1,62
 264 1207 264 1207 263.5 1189.5 c 128,-1,63
 263 1172 263 1172 252 1157.5 c 128,-1,64
 241 1143 241 1143 229 1138 c 0,65,66
 196.215686275 1124.33986928 196.215686275 1124.33986928 191.607843137 1102.66993464 c 128,-1,67
 187 1081 187 1081 179.5 1069 c 128,-1,68
 172 1057 172 1057 163 1048 c 0,69,70
 140.297297297 1025.2972973 140.297297297 1025.2972973 115 928 c 1,71,-1
 105 930 l 1,72,73
 121 995 121 995 121 1024 c 1,74,-1
 102 1192 l 1,75,76
 102 1256 102 1256 123 1315 c 1,77,-1
 125 1323 l 1,78,-1
 100 1401 l 1,79,-1
 102 1761 l 2,80,81
 102 1786.47222222 102 1786.47222222 47 1843 c 1,82,-1
 55 1851 l 1,83,84
 110.459459459 1794 110.459459459 1794 135 1794 c 2,85,-1
 139 1794 l 2,86,87
 153 1794 153 1794 165 1806 c 128,-1,88
 177 1818 177 1818 201 1864 c 1,89,-1
 213 1855 l 1,90,91
 184 1802 184 1802 184 1788 c 128,-1,92
 184 1774 184 1774 191 1767 c 1,93,-1
 225 1716 l 1,94,95
 237 1706 237 1706 255 1704.5 c 128,-1,96
 273 1703 273 1703 317.5 1677 c 128,-1,97
 362 1651 362 1651 383.5 1651 c 128,-1,98
 405 1651 405 1651 424 1654 c 128,-1,99
 443 1657 443 1657 476.5 1661 c 128,-1,100
 510 1665 510 1665 554.5 1669 c 0,101,102
 665.75 1679 665.75 1679 809 1679 c 1,103,-1
 1026 1677 l 2,104,105
 1049 1677 1049 1677 1090.5 1656.5 c 128,-1,106
 1132 1636 1132 1636 1155.5 1636 c 128,-1,107
 1179 1636 1179 1636 1220.5 1664 c 128,-1,108
 1262 1692 1262 1692 1276.5 1698.5 c 128,-1,109
 1291 1705 1291 1705 1298 1721 c 128,-1,110
 1305 1737 1305 1737 1309 1788 c 1,111,-1
 1325 1786 l 1,112,-1
 1323 1753 l 1,113,114
 1323 1706.38461538 1323 1706.38461538 1346 1694 c 1,115,-1
 1438 1636 l 1,116,117
 1451 1626 1451 1626 1470 1626 c 128,-1,118
 1489 1626 1489 1626 1540 1651 c 1,119,-1
 1548 1632 l 1,120,121
 1502 1613 1502 1613 1487 1599.5 c 128,-1,122
 1472 1586 1472 1586 1469 1567 c 0,123,124
 1446 1454 1446 1454 1446 1405.5 c 128,-1,125
 1446 1357 1446 1357 1450.5 1342 c 128,-1,126
 1455 1327 1455 1327 1480.5 1302.5 c 128,-1,127
 1506 1278 1506 1278 1555 1257 c 1,128,-1
 1548 1243 l 1,129,130
 1490 1270 1490 1270 1462 1270 c 0,131,132
 1407 1270 1407 1270 1407 1233 c 0,133,134
 1407 1217 1407 1217 1413 1178 c 1,135,-1
 1403 1178 l 1,136,137
 1395.90066225 1240.1192053 1395.90066225 1240.1192053 1390.95033113 1246.05960265 c 128,-1,138
 1386 1252 1386 1252 1380 1253 c 1,139,-1
 1372 1253 l 2,140,141
 1358.62962963 1253 1358.62962963 1253 1343.81481481 1237 c 128,-1,142
 1329 1221 1329 1221 1307 1194 c 1,143,-1
 1299 1200 l 1,144,145
 1342 1254 1342 1254 1342 1270 c 0,146,147
 1342 1311 1342 1311 1272 1339.5 c 128,-1,148
 1202 1368 1202 1368 1167.5 1368 c 128,-1,149
 1133 1368 1133 1368 1120 1355.5 c 128,-1,150
 1107 1343 1107 1343 1086 1303 c 1,151,-1
 1069 1311 l 1,152,153
 1096 1364 1096 1364 1096 1378.5 c 128,-1,154
 1096 1393 1096 1393 1086 1403 c 1,155,-1
 1088 1399 l 1,156,157
 1081 1406 1081 1406 1039 1416.5 c 128,-1,158
 997 1427 997 1427 986 1427 c 128,-1,159
 975 1427 975 1427 967 1419 c 2,160,-1
 899 1352 l 2,161,162
 891 1344 891 1344 891 1333 c 2,163,-1
 891 1087 l 2,164,165
 891 1070 891 1070 877.5 1036.5 c 128,-1,166
 864 1003 864 1003 864 987.5 c 128,-1,167
 864 972 864 972 878.5 947 c 128,-1,168
 893 922 893 922 893 909 c 1,169,-1
 881 821 l 1,170,-1
 891 637 l 1,171,172
 891 512 891 512 870 453 c 1,173,174
 870 436 870 436 877 430 c 1,175,-1
 932 367 l 1,176,177
 941 354 941 354 952.5 354 c 128,-1,178
 964 354 964 354 1030 371 c 1,179,-1
 1036 350 l 1,180,181
 988 335 988 335 973.5 323 c 128,-1,182
 959 311 959 311 957 293 c 0,183,184
 944 210 944 210 899 170 c 1,185,186
 891 158 891 158 891 150 c 2,187,-1
 895 90 l 1,188,-1
 868 92 l 1,189,-1
 864 147 l 1,190,191
 864 178 864 178 810.5 178 c 0,0,1
1088 1399 m 1,192,-1
 1090 1397 l 1,193,-1
 1088 1399 l 1,192,-1
EndSplineSet
EndChar

StartChar: U
Encoding: 85 85 20
Width: 1641
Flags: HMW
LayerCount: 2
Fore
SplineSet
1337 874 m 1,0,-1
 1339 813 l 1,1,2
 1339 736 1339 736 1296 698 c 1,3,4
 1292 690 1292 690 1292 688 c 0,5,6
 1292 547 1292 547 1233 487 c 1,7,8
 1225 476 1225 476 1225 471 c 0,9,10
 1223 375 1223 375 1174.5 285 c 128,-1,11
 1126 195 1126 195 1044 154 c 1,12,13
 1034 154 1034 154 1034 141.5 c 128,-1,14
 1034 129 1034 129 1044 84 c 1,15,-1
 1034 78 l 1,16,17
 1021 114 1021 114 1014.5 124.5 c 128,-1,18
 1008 135 1008 135 999 135 c 0,19,20
 963 135 963 135 901.5 92.5 c 128,-1,21
 840 50 840 50 820 48.5 c 128,-1,22
 800 47 800 47 788 37 c 1,23,-1
 752 -23 l 1,24,25
 739.6 -35.4 739.6 -35.4 737.3 -49.2 c 128,-1,26
 735 -63 735 -63 733 -71 c 0,27,28
 724.333333333 -105.666666667 724.333333333 -105.666666667 723 -115 c 1,29,-1
 715 -115 l 1,30,31
 725 -69 725 -69 725 -28.5 c 128,-1,32
 725 12 725 12 687.5 70 c 128,-1,33
 650 128 650 128 596.5 171.5 c 0,34,35
 481.62677305 264.901595745 481.62677305 264.901595745 399 285 c 1,36,-1
 401 291 l 1,37,38
 459 281 459 281 470 281 c 128,-1,39
 481 281 481 281 486.5 285 c 0,40,41
 493 289.727272727 493 289.727272727 493 305 c 1,42,43
 477 323 477 323 433.5 463.5 c 0,44,45
 311.978647687 856 311.978647687 856 260 856 c 0,46,47
 253 856 253 856 199 844 c 1,48,-1
 197 868 l 1,49,50
 257 883 257 883 258 883 c 0,51,52
 278 892 278 892 278 918 c 2,53,-1
 280 991 l 1,54,-1
 280 1028 l 2,55,56
 280 1191.25 280 1191.25 230 1272.5 c 0,57,58
 182.264317181 1350.07048458 182.264317181 1350.07048458 80 1352 c 0,59,60
 62 1352 62 1352 47.5 1342.5 c 128,-1,61
 33 1333 33 1333 6 1298 c 1,62,-1
 -8 1309 l 1,63,64
 31 1360 31 1360 31 1378 c 2,65,-1
 31 1393 l 1,66,-1
 22 1423 l 2,67,68
 17 1439 17 1439 5 1449.5 c 128,-1,69
 -7 1460 -7 1460 -47 1477 c 1,70,-1
 -41 1491 l 1,71,72
 -1 1473 -1 1473 15.5 1473 c 128,-1,73
 32 1473 32 1473 63.5 1487 c 128,-1,74
 95 1501 95 1501 100 1501 c 1,75,-1
 102 1499 l 1,76,77
 102 1526 102 1526 53 1575 c 1,78,-1
 63 1587 l 1,79,80
 111.566666667 1540 111.566666667 1540 139 1540 c 1,81,-1
 342 1550 l 2,82,83
 355 1550 355 1550 360.5 1552.5 c 0,84,85
 373.410876133 1558.36858006 373.410876133 1558.36858006 377 1614 c 1,86,-1
 395 1614 l 1,87,88
 395 1559 395 1559 402.5 1554 c 128,-1,89
 410 1549 410 1549 424 1548 c 1,90,-1
 491 1538 l 2,91,92
 494 1538 494 1538 502 1542 c 2,93,-1
 586 1589 l 1,94,95
 612.573033708 1599.62921348 612.573033708 1599.62921348 639 1669 c 1,96,-1
 649 1663 l 1,97,98
 629 1610 629 1610 629 1595.5 c 128,-1,99
 629 1581 629 1581 633 1569 c 2,100,-1
 668 1470 l 1,101,102
 674 1470 674 1470 680 1452 c 1,103,104
 700 1452 700 1452 749 1501 c 1,105,-1
 758 1495 l 1,106,107
 709 1444.46875 709 1444.46875 709 1423 c 2,108,-1
 709 1417 l 2,109,110
 709 1403.61538462 709 1403.61538462 725 1391.30769231 c 128,-1,111
 741 1379 741 1379 766 1364 c 1,112,-1
 760 1354 l 1,113,114
 712 1380 712 1380 703 1380 c 128,-1,115
 694 1380 694 1380 686 1376 c 0,116,117
 639 1348 639 1348 559 1348 c 2,118,-1
 536 1348 l 2,119,120
 515 1348 515 1348 505.5 1326 c 128,-1,121
 496 1304 496 1304 496 1275.5 c 128,-1,122
 496 1247 496 1247 499.5 1212 c 128,-1,123
 503 1177 503 1177 511.5 1134 c 0,124,125
 530.476744186 1038 530.476744186 1038 592 1038 c 0,126,127
 604 1038 604 1038 635 1044 c 1,128,-1
 641 1022 l 1,129,130
 600 1011 600 1011 588.5 999.5 c 128,-1,131
 577 988 577 988 577 969 c 2,132,-1
 577 877 l 2,133,134
 577 869 577 869 587 855.5 c 128,-1,135
 597 842 597 842 598.5 794.5 c 128,-1,136
 600 747 600 747 610 731 c 1,137,138
 646.576 690.36 646.576 690.36 682 528 c 0,139,140
 694 473 694 473 692 475 c 2,141,-1
 807 354 l 1,142,143
 815 350 815 350 823 350 c 2,144,-1
 995 350 l 1,145,146
 1074.88571429 449.857142857 1074.88571429 449.857142857 1079.94285714 470.928571429 c 0,147,148
 1092 521.166666667 1092 521.166666667 1092 543.083333333 c 128,-1,149
 1092 565 1092 565 1081.5 573 c 128,-1,150
 1071 581 1071 581 1034 596 c 1,151,-1
 1040 608 l 1,152,153
 1072 596 1072 596 1096 596 c 128,-1,154
 1120 596 1120 596 1132 635.5 c 128,-1,155
 1144 675 1144 675 1147.5 725.5 c 128,-1,156
 1151 776 1151 776 1153 782 c 1,157,-1
 1163 961 l 1,158,159
 1163 1020 1163 1020 1151.5 1113 c 128,-1,160
 1140 1206 1140 1206 1114 1272 c 1,161,-1
 1059 1380 l 1,162,163
 1050 1393 1050 1393 1038 1393 c 2,164,-1
 1022 1393 l 2,165,166
 1003.33333333 1393 1003.33333333 1393 992.666666667 1377 c 128,-1,167
 982 1361 982 1361 969 1331 c 1,168,-1
 952 1339 l 1,169,170
 971 1378 971 1378 971 1391 c 128,-1,171
 971 1404 971 1404 965.5 1413.5 c 128,-1,172
 960 1423 960 1423 949.5 1436.5 c 128,-1,173
 939 1450 939 1450 930 1461.5 c 128,-1,174
 921 1473 921 1473 908.5 1488 c 2,175,-1
 891 1509 l 1,176,177
 860 1537 860 1537 797 1556 c 1,178,-1
 801 1569 l 1,179,180
 855 1550 855 1550 874 1550 c 1,181,-1
 1012 1569 l 1,182,-1
 1018 1569 l 2,183,184
 1041.21621622 1569 1041.21621622 1569 1061 1630 c 1,185,-1
 1077 1624 l 1,186,187
 1065 1587 1065 1587 1065 1569.5 c 128,-1,188
 1065 1552 1065 1552 1077 1548 c 1,189,190
 1113 1520 1113 1520 1128 1520 c 128,-1,191
 1143 1520 1143 1520 1143 1524 c 0,192,193
 1143 1543 1143 1543 1134 1558 c 128,-1,194
 1125 1573 1125 1573 1094 1606 c 1,195,-1
 1104 1616 l 1,196,197
 1149.90361446 1568.56626506 1149.90361446 1568.56626506 1182 1565 c 1,198,-1
 1446 1552 l 1,199,200
 1467 1552 1467 1552 1472 1614 c 1,201,-1
 1491 1614 l 1,202,-1
 1491 1579 l 2,203,204
 1491 1553 1491 1553 1497 1550 c 128,-1,205
 1503 1547 1503 1547 1511 1546 c 1,206,-1
 1515 1546 l 1,207,208
 1520 1544 1520 1544 1538.5 1544 c 128,-1,209
 1557 1544 1557 1544 1608 1569 c 1,210,-1
 1612 1556 l 1,211,212
 1545.15283843 1528.01746725 1545.15283843 1528.01746725 1532 1505 c 1,213,-1
 1448 1382 l 1,214,215
 1440 1366 1440 1366 1440 1356.5 c 128,-1,216
 1440 1347 1440 1347 1470 1303 c 1,217,-1
 1454 1294 l 1,218,219
 1415.66666667 1339 1415.66666667 1339 1402.83333333 1339 c 128,-1,220
 1390 1339 1390 1339 1368 1329 c 1,221,222
 1331 1319 1331 1319 1331 1214 c 128,-1,223
 1331 1109 1331 1109 1368 1040 c 1,224,225
 1371 1025 1371 1025 1397 1018 c 1,226,-1
 1448 1016 l 1,227,-1
 1446 991 l 1,228,229
 1413 993 1413 993 1395.5 992 c 0,230,231
 1369.25 990.5 1369.25 990.5 1364 973 c 1,232,233
 1337 934 1337 934 1337 874 c 1,0,-1
EndSplineSet
EndChar

StartChar: V
Encoding: 86 86 21
Width: 1621
Flags: HMW
LayerCount: 2
Fore
SplineSet
728 86 m 1,0,-1
 716 88 l 1,1,2
 699 88 699 88 650 47 c 1,3,-1
 634 66 l 1,4,5
 677 103 677 103 677 130 c 128,-1,6
 677 157 677 157 634 213 c 128,-1,7
 591 269 591 269 589 296.5 c 128,-1,8
 587 324 587 324 577 332 c 0,9,10
 543 356 543 356 518.5 427 c 128,-1,11
 494 498 494 498 471.5 597 c 128,-1,12
 449 696 449 696 441.5 717.5 c 128,-1,13
 434 739 434 739 428.5 754.5 c 128,-1,14
 423 770 423 770 420.5 777.5 c 128,-1,15
 418 785 418 785 412.5 799.5 c 128,-1,16
 407 814 407 814 402.5 823 c 128,-1,17
 398 832 398 832 392.5 842.5 c 0,18,19
 382.387096774 861.806451613 382.387096774 861.806451613 370 868 c 1,20,21
 392 874 392 874 392 913.5 c 128,-1,22
 392 953 392 953 347.5 1029.5 c 128,-1,23
 303 1106 303 1106 280 1106 c 128,-1,24
 257 1106 257 1106 216 1092 c 1,25,-1
 206 1116 l 1,26,27
 250 1133 250 1133 263 1148.5 c 128,-1,28
 276 1164 276 1164 276 1188 c 2,29,-1
 276 1241 l 2,30,31
 276 1246 276 1246 271 1253 c 2,32,-1
 198 1376 l 1,33,34
 188 1386 188 1386 175.5 1386 c 0,35,36
 151.783783784 1386 151.783783784 1386 132 1325 c 1,37,-1
 108 1333 l 1,38,39
 120 1370 120 1370 120 1384 c 0,40,41
 120 1413 120 1413 61 1434.5 c 128,-1,42
 2 1456 2 1456 -18 1456 c 128,-1,43
 -38 1456 -38 1456 -97 1444 c 1,44,-1
 -101 1456 l 1,45,46
 -26 1472 -26 1472 -1 1497 c 2,47,-1
 73 1575 l 2,48,49
 87 1589 87 1589 87 1603.5 c 128,-1,50
 87 1618 87 1618 67 1665 c 1,51,-1
 85 1673 l 1,52,53
 103 1633 103 1633 114.5 1620.5 c 128,-1,54
 126 1608 126 1608 140 1608 c 2,55,-1
 503 1618 l 1,56,-1
 575 1626 l 1,57,58
 588 1629 588 1629 597 1651 c 1,59,60
 601 1655 601 1655 601 1668.5 c 128,-1,61
 601 1682 601 1682 566 1735 c 1,62,-1
 579 1743 l 1,63,64
 614 1684 614 1684 634 1681 c 1,65,66
 655 1684 655 1684 683 1747 c 1,67,-1
 702 1741 l 1,68,69
 679 1696 679 1696 679 1675 c 0,70,71
 679 1632 679 1632 742 1628 c 0,72,73
 749 1628 749 1628 757 1632 c 1,74,-1
 788 1655 l 2,75,76
 812 1673 812 1673 853 1743 c 1,77,-1
 859 1737 l 1,78,79
 887 1702 887 1702 903.5 1691.5 c 128,-1,80
 920 1681 920 1681 939 1681 c 2,81,-1
 1027 1681 l 2,82,83
 1045 1681 1045 1681 1054.5 1684 c 0,84,85
 1076.83421517 1691.05291005 1076.83421517 1691.05291005 1095 1751 c 1,86,-1
 1121 1743 l 1,87,88
 1111 1709 1111 1709 1111 1686 c 128,-1,89
 1111 1663 1111 1663 1133 1647.5 c 0,90,91
 1166.35483871 1624 1166.35483871 1624 1232 1624 c 1,92,-1
 1287 1628 l 2,93,94
 1298 1628 1298 1628 1304 1634 c 2,95,-1
 1318 1651 l 1,96,97
 1330 1663 1330 1663 1330 1677.5 c 128,-1,98
 1330 1692 1330 1692 1312 1741 c 1,99,-1
 1330 1747 l 1,100,101
 1349 1703 1349 1703 1360.5 1692 c 128,-1,102
 1372 1681 1372 1681 1392 1681 c 2,103,-1
 1592 1681 l 2,104,105
 1624 1681 1624 1681 1693 1720 c 1,106,-1
 1699 1712 l 1,107,108
 1630 1669 1630 1669 1615 1640 c 0,109,110
 1578.02239533 1567.58552418 1578.02239533 1567.58552418 1429.5 1448.5 c 0,111,112
 1374 1404 1374 1404 1319.5 1350.5 c 0,113,114
 1194.25714924 1227.5551832 1194.25714924 1227.5551832 1181 1059 c 1,115,-1
 1181 1051 l 2,116,117
 1181 1037 1181 1037 1193 1026 c 128,-1,118
 1205 1015 1205 1015 1244 997 c 1,119,-1
 1236 981 l 1,120,121
 1189 1001 1189 1001 1166.5 1001 c 128,-1,122
 1144 1001 1144 1001 1110 951 c 128,-1,123
 1076 901 1076 901 1041 829 c 128,-1,124
 1006 757 1006 757 997 743 c 128,-1,125
 988 729 988 729 987 706.5 c 128,-1,126
 986 684 986 684 946 608.5 c 128,-1,127
 906 533 906 533 906 507 c 128,-1,128
 906 481 906 481 918 472 c 128,-1,129
 930 463 930 463 964 451 c 1,130,-1
 955 434 l 1,131,132
 907 451 907 451 900 451 c 0,133,134
 886 451 886 451 882 434 c 1,135,136
 882 413 882 413 927 375 c 1,137,-1
 917 365 l 1,138,139
 872 406 872 406 855 406 c 0,140,141
 854 406 854 406 839 401 c 1,142,-1
 835 401 l 1,143,144
 822 388 822 388 822 377 c 2,145,-1
 822 362 l 2,146,147
 822 341 822 341 825 330.5 c 0,148,149
 831.972850679 306.095022624 831.972850679 306.095022624 892 297 c 1,150,-1
 890 260 l 1,151,152
 878 262 878 262 859.5 262 c 128,-1,153
 841 262 841 262 828.5 254 c 128,-1,154
 816 246 816 246 810 237.5 c 128,-1,155
 804 229 804 229 801 210.5 c 128,-1,156
 798 192 798 192 798 183.5 c 2,157,-1
 798 154 l 2,158,159
 798 138 798 138 808.5 129 c 128,-1,160
 819 120 819 120 865 102 c 1,161,-1
 859 88 l 1,162,163
 817 102 817 102 797 102 c 128,-1,164
 777 102 777 102 764 72 c 128,-1,165
 751 42 751 42 751 14 c 1,166,-1
 759 -102 l 1,167,-1
 740 -102 l 1,168,-1
 728 80 l 1,169,-1
 728 86 l 1,0,-1
839 1407 m 1,170,171
 789.567567568 1466 789.567567568 1466 755 1466 c 2,172,-1
 667 1466 l 2,173,174
 652 1466 652 1466 646 1454 c 1,175,-1
 595 1378 l 1,176,177
 591 1374 591 1374 591 1368 c 128,-1,178
 591 1362 591 1362 598 1348 c 128,-1,179
 605 1334 605 1334 637.5 1274 c 128,-1,180
 670 1214 670 1214 683 1185.5 c 0,181,182
 724 1095.61538462 724 1095.61538462 724 1029.30769231 c 128,-1,183
 724 963 724 963 728.5 900 c 128,-1,184
 733 837 733 837 751 764 c 128,-1,185
 769 691 769 691 798 684 c 1,186,-1
 798 944 l 1,187,188
 802 931 802 931 829.5 921 c 128,-1,189
 857 911 857 911 889.5 911 c 128,-1,190
 922 911 922 911 927 926 c 0,191,192
 1066 1312.11111111 1066 1312.11111111 1066 1411 c 0,193,194
 1066 1423 1066 1423 1052 1432 c 1,195,-1
 1052 1434 l 1,196,197
 1040 1440 1040 1440 1022.5 1440 c 128,-1,198
 1005 1440 1005 1440 972 1395 c 1,199,-1
 949 1411 l 1,200,201
 978 1451 978 1451 978 1470 c 128,-1,202
 978 1489 978 1489 939 1517.5 c 128,-1,203
 900 1546 900 1546 878.5 1546 c 128,-1,204
 857 1546 857 1546 812 1528 c 1,205,-1
 806 1538 l 1,206,-1
 802 1501 l 1,207,208
 802 1475 802 1475 851 1419 c 1,209,-1
 839 1407 l 1,170,171
888 1638 m 1,210,-1
 890 1651 l 1,211,212
 890 1673 890 1673 851 1720 c 1,213,214
 821 1670 821 1670 818 1636 c 1,215,-1
 806 1542 l 1,216,217
 849 1562 849 1562 863 1575 c 128,-1,218
 877 1588 877 1588 882 1606 c 1,219,-1
 888 1638 l 1,210,-1
247 934 m 1,220,-1
 362 872 l 1,221,222
 324 889 324 889 247 934 c 1,220,-1
228 944 m 2,223,-1
 247 934 l 2,224,225
 243 935 243 935 228 944 c 2,223,-1
368 868 m 1,226,-1
 362 872 l 1,227,-1
 370 868 l 1,228,-1
 368 868 l 1,226,-1
EndSplineSet
EndChar

StartChar: W
Encoding: 87 87 22
Width: 1879
Flags: HMW
LayerCount: 2
Fore
SplineSet
815 1700 m 0,0,1
 891 1700 891 1700 891 1749 c 0,2,3
 891 1752 891 1752 883 1796 c 1,4,-1
 909 1800 l 1,5,6
 925.41509434 1734.33962264 925.41509434 1734.33962264 946.5 1724.5 c 0,7,8
 954 1721 954 1721 971 1718 c 2,9,-1
 997 1714 l 1,10,11
 1004 1714 1004 1714 1006 1716 c 1,12,-1
 1040 1726 l 2,13,14
 1063 1733.07692308 1063 1733.07692308 1063 1761.53846154 c 128,-1,15
 1063 1790 1063 1790 1059 1812 c 1,16,-1
 1081 1812 l 1,17,18
 1095.68992248 1747.36434109 1095.68992248 1747.36434109 1104.34496124 1741.18217054 c 128,-1,19
 1113 1735 1113 1735 1115.5 1733.5 c 128,-1,20
 1118 1732 1118 1732 1129.5 1729 c 128,-1,21
 1141 1726 1141 1726 1147 1724 c 1,22,-1
 1165 1608 l 1,23,24
 1149 1589 1149 1589 1149 1576.5 c 128,-1,25
 1149 1564 1149 1564 1182 1509 c 1,26,-1
 1174 1503 l 1,27,28
 1134 1572 1134 1572 1118 1575 c 1,29,30
 1106 1571 1106 1571 1104 1567 c 2,31,-1
 1057 1509 l 2,32,33
 1051 1503 1051 1503 1052 1498 c 128,-1,34
 1053 1493 1053 1493 1053 1491 c 2,35,-1
 1188 674 l 1,36,37
 1188 749 1188 749 1233 791 c 1,38,39
 1239 794 1239 794 1241 807 c 0,40,41
 1288.73869347 1117.30150754 1288.73869347 1117.30150754 1331 1247 c 1,42,43
 1333 1249 1333 1249 1333 1260 c 1,44,-1
 1350 1280 l 1,45,-1
 1339 1292 l 1,46,-1
 1352 1282 l 1,47,-1
 1354 1284 l 1,48,-1
 1354 1282 l 1,49,-1
 1370 1278 l 1,50,51
 1381 1278 1381 1278 1398 1293 c 128,-1,52
 1415 1308 1415 1308 1415 1325 c 2,53,-1
 1415 1329 l 1,54,-1
 1387 1442 l 1,55,56
 1382 1446 1382 1446 1364 1450.5 c 128,-1,57
 1346 1455 1346 1455 1328.5 1471.5 c 128,-1,58
 1311 1488 1311 1488 1295.5 1510.5 c 128,-1,59
 1280 1533 1280 1533 1272 1540 c 1,60,-1
 1247 1612 l 1,61,62
 1262 1621 1262 1621 1262 1640 c 1,63,64
 1257 1675 1257 1675 1249.5 1693.5 c 128,-1,65
 1242 1712 1242 1712 1206 1767 c 1,66,-1
 1217 1772 l 1,67,68
 1254.9787234 1711.23404255 1254.9787234 1711.23404255 1274.4893617 1693.11702128 c 128,-1,69
 1294 1675 1294 1675 1296 1673 c 2,70,-1
 1325 1653 l 1,71,-1
 1341 1649 l 1,72,-1
 1430 1649 l 2,73,74
 1496.78787879 1649 1496.78787879 1649 1554 1767 c 1,75,-1
 1567 1761 l 1,76,77
 1532 1676 1532 1676 1532 1664.5 c 128,-1,78
 1532 1653 1532 1653 1536 1653 c 1,79,80
 1538 1655 1538 1655 1540 1655 c 2,81,-1
 1692 1704 l 1,82,83
 1716 1724 1716 1724 1733 1794 c 1,84,-1
 1745 1790 l 1,85,86
 1737 1743 1737 1743 1737 1722.5 c 128,-1,87
 1737 1702 1737 1702 1742 1686.5 c 128,-1,88
 1747 1671 1747 1671 1761.5 1650.5 c 0,89,90
 1793.663909 1605.02688728 1793.663909 1605.02688728 1894 1597 c 1,91,-1
 1894 1579 l 1,92,93
 1874 1581 1874 1581 1845 1581 c 128,-1,94
 1816 1581 1816 1581 1805.5 1578.5 c 128,-1,95
 1795 1576 1795 1576 1788 1563 c 1,96,97
 1768 1543 1768 1543 1705 1484.5 c 0,98,99
 1569.23943662 1358.43661972 1569.23943662 1358.43661972 1563 1321 c 1,100,-1
 1450 915 l 1,101,102
 1434 817 1434 817 1389 704.5 c 128,-1,103
 1344 592 1344 592 1293 473.5 c 128,-1,104
 1242 355 1242 355 1228.5 302 c 128,-1,105
 1215 249 1215 249 1213.5 198.5 c 128,-1,106
 1212 148 1212 148 1192 117 c 128,-1,107
 1172 86 1172 86 1159 8 c 1,108,-1
 1149 10 l 1,109,110
 1159 78 1159 78 1159 97.5 c 128,-1,111
 1159 117 1159 117 1155 145 c 1,112,113
 1126 222 1126 222 1049 373 c 128,-1,114
 972 524 972 524 942 604 c 1,115,116
 938 628 938 628 917.5 643.5 c 128,-1,117
 897 659 897 659 875 659 c 0,118,119
 841 659 841 659 814.5 525 c 128,-1,120
 788 391 788 391 778 275 c 128,-1,121
 768 159 768 159 768 129 c 1,122,123
 774 107 774 107 838 61 c 1,124,-1
 829 51 l 1,125,126
 770 94 770 94 756.5 94 c 128,-1,127
 743 94 743 94 739 90 c 1,128,-1
 737 90 l 1,129,130
 724 85 724 85 718 69.5 c 128,-1,131
 712 54 712 54 709 4 c 1,132,-1
 694 6 l 1,133,-1
 696 45 l 1,134,135
 696 84 696 84 678 102 c 1,136,-1
 674 104 l 1,137,138
 666 113 666 113 647.5 113 c 128,-1,139
 629 113 629 113 586 92 c 1,140,-1
 578 109 l 1,141,142
 618 126 618 126 629.5 135 c 128,-1,143
 641 144 641 144 641 156 c 2,144,-1
 641 164 l 1,145,-1
 610 332 l 1,146,147
 588 388 588 388 549 446 c 1,148,149
 501.050847458 483.525423729 501.050847458 483.525423729 446 512 c 1,150,-1
 449 518 l 1,151,152
 512 488 512 488 535 483 c 1,153,154
 551 489 551 489 551 521.5 c 128,-1,155
 551 554 551 554 521.5 616 c 128,-1,156
 492 678 492 678 453 678 c 0,157,158
 435 678 435 678 408 672 c 1,159,-1
 397 698 l 1,160,161
 465 712.926829268 465 712.926829268 465 739 c 1,162,-1
 463 756 l 1,163,-1
 455 807 l 1,164,-1
 449 821 l 1,165,166
 410.235494881 875.916382253 410.235494881 875.916382253 340.11774744 1075.95819113 c 128,-1,167
 270 1276 270 1276 266 1278 c 1,168,169
 233.561594203 1305.80434783 233.561594203 1305.80434783 220.780797101 1346.40217391 c 128,-1,170
 208 1387 208 1387 199 1405 c 1,171,-1
 174 1434 l 2,172,173
 171 1436 171 1436 166 1440 c 0,174,175
 158.5 1446 158.5 1446 150 1446 c 2,176,-1
 141 1446 l 2,177,178
 120 1446 120 1446 107.5 1434 c 128,-1,179
 95 1422 95 1422 78 1376 c 1,180,-1
 57 1386 l 1,181,182
 76 1434 76 1434 76 1449.5 c 128,-1,183
 76 1465 76 1465 68.5 1472 c 0,184,185
 58.8571428571 1481 58.8571428571 1481 45.1970899471 1481 c 128,-1,186
 31.537037037 1481 31.537037037 1481 -23 1386 c 1,187,-1
 -25 1389 l 1,188,189
 18 1465 18 1465 27 1487 c 1,190,-1
 51 1563 l 2,191,192
 52 1567 52 1567 53.5 1572.5 c 128,-1,193
 55 1578 55 1578 55 1581 c 0,194,195
 55 1606 55 1606 10 1661 c 1,196,-1
 25 1671 l 1,197,198
 59 1628 59 1628 76.5 1616 c 128,-1,199
 94 1604 94 1604 115 1604 c 2,200,-1
 160 1604 l 2,201,202
 171 1604 171 1604 176 1612 c 1,203,-1
 377 1589 l 1,204,205
 432 1641 432 1641 432 1683.5 c 128,-1,206
 432 1726 432 1726 424 1747 c 1,207,-1
 479 1755 l 1,208,209
 495 1697 495 1697 543 1657 c 1,210,-1
 596 1518 l 1,211,212
 553.333333333 1475.33333333 553.333333333 1475.33333333 530.666666667 1444.16666667 c 128,-1,213
 508 1413 508 1413 508 1411 c 2,214,-1
 539 1223 l 2,215,216
 542 1199 542 1199 570 1176.5 c 128,-1,217
 598 1154 598 1154 600 1145 c 2,218,-1
 614 1102 l 2,219,220
 618 1088 618 1088 625 1082.5 c 128,-1,221
 632 1077 632 1077 647 1077 c 128,-1,222
 662 1077 662 1077 698 1081 c 1,223,-1
 702 1063 l 1,224,225
 662 1057 662 1057 649.5 1050.5 c 128,-1,226
 637 1044 637 1044 637 1032 c 2,227,-1
 637 1024 l 1,228,-1
 690 784 l 2,229,230
 692 774 692 774 723 752.5 c 128,-1,231
 754 731 754 731 754 729 c 1,232,233
 762.039151713 731.296900489 762.039151713 731.296900489 766.019575856 802.148450245 c 128,-1,234
 770 873 770 873 771 885.5 c 128,-1,235
 772 898 772 898 776 932 c 128,-1,236
 780 966 780 966 785 984 c 128,-1,237
 790 1002 790 1002 798.5 1033.5 c 0,238,239
 809.884615385 1075.69004525 809.884615385 1075.69004525 830.942307692 1121.34502262 c 128,-1,240
 852 1167 852 1167 852 1176 c 1,241,-1
 819 1380 l 2,242,243
 818 1382 818 1382 781.5 1429 c 128,-1,244
 745 1476 745 1476 745 1479 c 1,245,-1
 748 1479 l 1,246,247
 737 1489 737 1489 721.5 1520.5 c 128,-1,248
 706 1552 706 1552 696 1556 c 1,249,-1
 680 1565 l 1,250,251
 676 1569 676 1569 670 1569 c 1,252,-1
 643 1661 l 1,253,254
 665 1680 665 1680 671.5 1698.5 c 128,-1,255
 678 1717 678 1717 678 1776 c 1,256,-1
 694 1774 l 1,257,-1
 692 1751 l 1,258,259
 692 1695 692 1695 711 1667 c 1,260,-1
 709 1667 l 1,261,262
 721 1655 721 1655 728.5 1655 c 128,-1,263
 736 1655 736 1655 743 1667.5 c 128,-1,264
 750 1680 750 1680 750 1693 c 128,-1,265
 750 1706 750 1706 723 1755 c 1,266,-1
 748 1767 l 1,267,268
 784.076923077 1700 784.076923077 1700 815 1700 c 0,0,1
EndSplineSet
EndChar

StartChar: X
Encoding: 88 88 23
Width: 1540
Flags: HMW
LayerCount: 2
Fore
SplineSet
1323 1505 m 1,0,-1
 1282 1507 l 1,1,2
 1257 1507 1257 1507 1253 1481 c 1,3,4
 1239.40467997 1414.96558844 1239.40467997 1414.96558844 1173 1357.5 c 0,5,6
 1098.197411 1292.76699029 1098.197411 1292.76699029 1079.0987055 1259.88349515 c 128,-1,7
 1060 1227 1060 1227 1028.5 1168 c 0,8,9
 956.589641434 1033.31075697 956.589641434 1033.31075697 920 983 c 1,10,11
 924 971 924 971 924 932 c 2,12,-1
 924 838 l 1,13,14
 938 804 938 804 953.5 782.5 c 128,-1,15
 969 761 969 761 979 711.5 c 128,-1,16
 989 662 989 662 1004 647 c 1,17,18
 1049 616 1049 616 1069.5 567.5 c 128,-1,19
 1090 519 1090 519 1091 475 c 0,20,21
 1095.2266858 289.025824964 1095.2266858 289.025824964 1149 265.5 c 0,22,23
 1157 262 1157 262 1173.5 262 c 128,-1,24
 1190 262 1190 262 1223 270 c 1,25,-1
 1231 244 l 1,26,27
 1181 231 1181 231 1168 218 c 128,-1,28
 1155 205 1155 205 1155 180 c 2,29,-1
 1155 160 l 2,30,31
 1155 134.138686131 1155 134.138686131 1348 -49 c 1,32,33
 1372 -75 1372 -75 1454 -84 c 1,34,-1
 1452 -98 l 1,35,36
 1408 -92 1408 -92 1383 -92 c 128,-1,37
 1358 -92 1358 -92 1340 -104 c 1,38,-1
 1342 -104 l 1,39,40
 1329 -111 1329 -111 1327.5 -128.5 c 128,-1,41
 1326 -146 1326 -146 1317.5 -158.5 c 128,-1,42
 1309 -171 1309 -171 1298.5 -178.5 c 128,-1,43
 1288 -186 1288 -186 1278 -197.5 c 0,44,45
 1252.82676225 -226.449223417 1252.82676225 -226.449223417 1251 -305 c 1,46,-1
 1235 -305 l 1,47,-1
 1235 -285 l 2,48,49
 1235 -183.428571429 1235 -183.428571429 1155 -172 c 1,50,-1
 1120 -166 l 1,51,52
 1105 -166 1105 -166 1049 -213 c 1,53,-1
 1043 -205 l 1,54,55
 1082 -172 1082 -172 1092 -160 c 128,-1,56
 1102 -148 1102 -148 1102 -137 c 0,57,58
 1102 -111 1102 -111 1075 -106 c 1,59,-1
 934 -90 l 2,60,61
 926 -90 926 -90 924 -74 c 1,62,63
 920 -85 920 -85 909.5 -87.5 c 128,-1,64
 899 -90 899 -90 878 -90 c 2,65,-1
 852 -90 l 2,66,67
 824 -90 824 -90 795 -76 c 128,-1,68
 766 -62 766 -62 751.5 -47.5 c 2,69,-1
 737 -33 l 1,70,71
 723 -50 723 -50 723 -67.5 c 128,-1,72
 723 -85 723 -85 762 -127 c 1,73,-1
 739 -147 l 1,74,75
 699 -104 699 -104 674.5 -104 c 128,-1,76
 650 -104 650 -104 591.5 -157.5 c 128,-1,77
 533 -211 533 -211 533 -227.5 c 128,-1,78
 533 -244 533 -244 553 -297 c 1,79,-1
 537 -303 l 1,80,81
 517 -256 517 -256 506 -243.5 c 128,-1,82
 495 -231 495 -231 479 -231 c 2,83,-1
 475 -231 l 2,84,85
 458 -231 458 -231 444 -242.5 c 128,-1,86
 430 -254 430 -254 402 -297 c 1,87,-1
 389 -289 l 1,88,89
 426 -234 426 -234 426 -221.5 c 128,-1,90
 426 -209 426 -209 422 -197 c 1,91,-1
 422 -195 l 1,92,93
 413 -174 413 -174 379.5 -174 c 128,-1,94
 346 -174 346 -174 291 -221 c 1,95,-1
 279 -207 l 1,96,97
 310.442622951 -180.049180328 310.442622951 -180.049180328 317.721311475 -168.524590164 c 128,-1,98
 325 -157 325 -157 328.5 -152.5 c 128,-1,99
 332 -148 332 -148 334 -139 c 128,-1,100
 336 -130 336 -130 336.5 -128 c 128,-1,101
 337 -126 337 -126 336.5 -115 c 128,-1,102
 336 -104 336 -104 336 -84.5 c 0,103,104
 336 -31.6060606061 336 -31.6060606061 232 33 c 1,105,-1
 238 41 l 1,106,107
 302 1 302 1 324 -2 c 1,108,-1
 330 -2 l 2,109,110
 346 -2 346 -2 457 137.5 c 2,111,-1
 494 184 l 1,112,113
 497.69047619 220.904761905 497.69047619 220.904761905 513.345238095 245.952380952 c 0,114,115
 534 279 534 279 569 328 c 1,116,117
 555 346 555 346 535 346 c 128,-1,118
 515 346 515 346 477 342 c 1,119,-1
 473 365 l 1,120,121
 524 372 524 372 540 382.5 c 128,-1,122
 556 393 556 393 561.5 414.5 c 128,-1,123
 567 436 567 436 569 483.5 c 128,-1,124
 571 531 571 531 571 570.5 c 128,-1,125
 571 610 571 610 583.5 647 c 128,-1,126
 596 684 596 684 621 696 c 1,127,128
 639 707 639 707 639 721 c 2,129,-1
 639 780 l 2,130,131
 639 841 639 841 499.5 1050.5 c 128,-1,132
 360 1260 360 1260 268 1352 c 0,133,134
 258 1362 258 1362 246 1362 c 128,-1,135
 234 1362 234 1362 186 1333 c 1,136,-1
 176 1350 l 1,137,138
 232 1384 232 1384 232 1403 c 0,139,140
 232 1476 232 1476 -33 1638 c 1,141,142
 -56.8 1655 -56.8 1655 -143 1655 c 1,143,-1
 -143 1667 l 1,144,145
 -63 1667 -63 1667 -41 1678 c 128,-1,146
 -19 1689 -19 1689 -12 1693 c 128,-1,147
 -5 1697 -5 1697 7.5 1711.5 c 128,-1,148
 20 1726 20 1726 23 1729 c 0,149,150
 45 1748 45 1748 45 1776.5 c 128,-1,151
 45 1805 45 1805 39 1841 c 1,152,-1
 64 1847 l 1,153,154
 74 1796 74 1796 86.5 1776.5 c 128,-1,155
 99 1757 99 1757 114 1751 c 128,-1,156
 129 1745 129 1745 156 1733 c 0,157,158
 203.25 1712 203.25 1712 236 1712 c 2,159,-1
 485 1712 l 2,160,161
 492 1712 492 1712 500 1716 c 1,162,163
 571 1767 571 1767 649 1767 c 0,164,165
 674 1767 674 1767 714 1746.5 c 128,-1,166
 754 1726 754 1726 789 1726 c 1,167,-1
 758 1757 l 1,168,-1
 768 1767 l 1,169,170
 789 1747 789 1747 817 1726 c 1,171,-1
 848 1731 l 1,172,-1
 848 1716 l 1,173,174
 847 1716 847 1716 845 1715 c 128,-1,175
 843 1714 843 1714 842 1714 c 1,176,177
 850 1712 850 1712 864 1712 c 2,178,-1
 1434 1712 l 2,179,180
 1454 1712 1454 1712 1471.5 1723.5 c 128,-1,181
 1489 1735 1489 1735 1520 1776 c 1,182,-1
 1534 1763 l 1,183,184
 1489 1708 1489 1708 1489 1683 c 0,185,186
 1489 1638 1489 1638 1508.5 1625 c 128,-1,187
 1528 1612 1528 1612 1579 1599 c 1,188,-1
 1575 1581 l 1,189,190
 1536 1589 1536 1589 1514.5 1589 c 128,-1,191
 1493 1589 1493 1589 1477 1573 c 1,192,193
 1420 1505 1420 1505 1323 1505 c 1,0,-1
635 1350 m 1,194,-1
 633 1335 l 1,195,196
 673 1319 673 1319 704.5 1260 c 128,-1,197
 736 1201 736 1201 739 1139 c 0,198,199
 739 1130 739 1130 754 1112 c 1,200,201
 764 1094 764 1094 784.5 1094 c 0,202,203
 825.333333333 1094 825.333333333 1094 834 1133 c 0,204,205
 853 1219 853 1219 889 1301 c 128,-1,206
 925 1383 925 1383 965 1421 c 0,207,208
 973 1429 973 1429 973 1440 c 2,209,-1
 973 1493 l 2,210,211
 973 1515 973 1515 938 1528.5 c 128,-1,212
 903 1542 903 1542 875.5 1542 c 128,-1,213
 848 1542 848 1542 799 1493 c 1,214,-1
 780 1509 l 1,215,216
 832 1561 832 1561 832 1591 c 0,217,218
 832 1669 832 1669 803 1710 c 1,219,220
 758 1700 758 1700 741 1681 c 1,221,-1
 676 1618 l 1,222,223
 670 1618 670 1618 669 1601.5 c 128,-1,224
 668 1585 668 1585 655.5 1568 c 128,-1,225
 643 1551 643 1551 629.5 1540 c 0,226,227
 594 1511.07407407 594 1511.07407407 594 1497 c 1,228,229
 596 1469 596 1469 615.5 1423 c 128,-1,230
 635 1377 635 1377 635 1350 c 1,194,-1
690 119 m 1,231,232
 720.771428571 119 720.771428571 119 768 176 c 1,233,-1
 785 164 l 1,234,235
 746 115 746 115 746 89.5 c 128,-1,236
 746 64 746 64 761.5 39 c 128,-1,237
 777 14 777 14 795 14 c 0,238,239
 830 14 830 14 866.5 96 c 128,-1,240
 903 178 903 178 903 203.5 c 0,241,242
 903 250 903 250 866 250 c 0,243,244
 849 250 849 250 793 215 c 1,245,-1
 787 227 l 1,246,247
 829 254 829 254 840.5 266 c 128,-1,248
 852 278 852 278 852 291 c 2,249,-1
 852 367 l 2,250,251
 852 375 852 375 811 442.5 c 128,-1,252
 770 510 770 510 752 510 c 0,253,254
 724 510 724 510 704 444 c 0,255,256
 670 331.8 670 331.8 670 221 c 0,257,258
 670 201 670 201 679.5 162.5 c 128,-1,259
 689 124 689 124 690 119 c 1,231,232
EndSplineSet
EndChar

StartChar: Y
Encoding: 89 89 24
Width: 1337
Flags: HMW
LayerCount: 2
Fore
SplineSet
903 -49 m 1,0,1
 849.081081081 8 849.081081081 8 817.540540541 7 c 128,-1,2
 786 6 786 6 684.5 -5 c 128,-1,3
 583 -16 583 -16 535.5 -16 c 128,-1,4
 488 -16 488 -16 425 13.5 c 128,-1,5
 362 43 362 43 333.5 43 c 128,-1,6
 305 43 305 43 266 33 c 1,7,-1
 262 53 l 1,8,9
 313 66 313 66 332.5 79.5 c 128,-1,10
 352 93 352 93 360.5 108 c 128,-1,11
 369 123 369 123 385 145 c 0,12,13
 420 193.125 420 193.125 420 219.5625 c 128,-1,14
 420 246 420 246 397 301 c 1,15,-1
 414 307 l 1,16,17
 433 257 433 257 446 240.5 c 0,18,19
 466.090909091 215 466.090909091 215 484.545454545 215 c 128,-1,20
 503 215 503 215 514.5 227 c 128,-1,21
 526 239 526 239 526 250 c 2,22,-1
 526 401 l 2,23,24
 526 402 526 402 519 417.5 c 0,25,26
 498 464 498 464 498 511.5 c 128,-1,27
 498 559 498 559 462 679.5 c 128,-1,28
 426 800 426 800 425 836 c 128,-1,29
 424 872 424 872 416 881 c 1,30,-1
 389 905 l 1,31,32
 376 918 376 918 358.5 918 c 128,-1,33
 341 918 341 918 291 895 c 1,34,-1
 281 915 l 1,35,36
 321 937 321 937 333.5 950.5 c 128,-1,37
 346 964 346 964 346 987.5 c 128,-1,38
 346 1011 346 1011 331.5 1048 c 128,-1,39
 317 1085 317 1085 297 1085 c 0,40,41
 283 1085 283 1085 238 1069 c 1,42,-1
 229 1090 l 1,43,44
 293 1113.57894737 293 1113.57894737 293 1135 c 0,45,46
 293 1192.50847458 293 1192.50847458 215.5 1259.5 c 0,47,48
 132.373029772 1331.35551664 132.373029772 1331.35551664 115 1380 c 0,49,50
 110 1395 110 1395 102 1427 c 128,-1,51
 94 1459 94 1459 88 1479 c 128,-1,52
 82 1499 82 1499 67 1516.5 c 128,-1,53
 52 1534 52 1534 35.5 1534 c 128,-1,54
 19 1534 19 1534 -23 1524 c 1,55,-1
 -29 1546 l 1,56,57
 20 1561 20 1561 32.5 1572 c 128,-1,58
 45 1583 45 1583 45 1604 c 2,59,-1
 45 1610 l 2,60,61
 45 1628.97297297 45 1628.97297297 -10 1681 c 1,62,-1
 -4 1688 l 1,63,64
 49 1632 49 1632 68 1632 c 2,65,-1
 72 1632 l 2,66,67
 87.7096774194 1632 87.7096774194 1632 125 1700 c 1,68,-1
 135 1694 l 1,69,70
 102 1639 102 1639 102 1626.5 c 128,-1,71
 102 1614 102 1614 104 1612 c 0,72,73
 169.854475209 1501.59690921 169.854475209 1501.59690921 280.5 1460.5 c 0,74,75
 340.674074074 1438.14962963 340.674074074 1438.14962963 450.837037037 1413.57481481 c 128,-1,76
 561 1389 561 1389 601 1374.5 c 128,-1,77
 641 1360 641 1360 682 1352 c 1,78,-1
 684 1364 l 1,79,80
 684 1385 684 1385 649 1438 c 1,81,-1
 663 1446 l 1,82,83
 699.934579439 1389.62616822 699.934579439 1389.62616822 711.96728972 1384.81308411 c 128,-1,84
 724 1380 724 1380 735 1380 c 2,85,-1
 924 1380 l 2,86,87
 928 1380 928 1380 956 1396.5 c 0,88,89
 1012.84848485 1430 1012.84848485 1430 1149 1430 c 0,90,91
 1159 1430 1159 1430 1167 1438 c 2,92,-1
 1214 1485 l 1,93,94
 1230.20418848 1497.96335079 1230.20418848 1497.96335079 1255 1577 c 1,95,-1
 1264 1575 l 1,96,97
 1241 1503 1241 1503 1241 1491 c 128,-1,98
 1241 1479 1241 1479 1243 1475 c 1,99,-1
 1243 1473 l 1,100,101
 1244 1463 1244 1463 1248 1458 c 0,102,103
 1257.11888112 1446.6013986 1257.11888112 1446.6013986 1321 1432 c 1,104,-1
 1319 1417 l 1,105,106
 1265 1430 1265 1430 1252.5 1430 c 128,-1,107
 1240 1430 1240 1430 1231 1417 c 2,108,-1
 1173 1341 l 2,109,110
 1163 1328 1163 1328 1163 1316 c 128,-1,111
 1163 1304 1163 1304 1210 1266 c 1,112,-1
 1194 1247 l 1,113,114
 1152 1284 1152 1284 1139 1284 c 128,-1,115
 1126 1284 1126 1284 1114 1272 c 1,116,-1
 1092 1247 l 1,117,118
 1077 1234 1077 1234 1077 1218 c 128,-1,119
 1077 1202 1077 1202 1104 1155 c 1,120,-1
 1085 1143 l 1,121,122
 1051.11111111 1204 1051.11111111 1204 1026 1204 c 0,123,124
 1008 1204 1008 1204 1003 1175.5 c 0,125,126
 994.208017335 1125.38569881 994.208017335 1125.38569881 913 1057 c 0,127,128
 908 1053 908 1053 904.5 1045.5 c 128,-1,129
 901 1038 901 1038 882.5 1019 c 0,130,131
 833 968.162162162 833 968.162162162 833 932 c 0,132,133
 833 915.666666667 833 915.666666667 893 879 c 1,134,-1
 883 862 l 1,135,136
 833 893 833 893 817 893 c 0,137,138
 786 893 786 893 769 828.5 c 128,-1,139
 752 764 752 764 752 719 c 2,140,-1
 752 303 l 2,141,142
 752 295 752 295 760 283 c 1,143,144
 848 205 848 205 860 123 c 0,145,146
 861 116 861 116 863 113.5 c 0,147,148
 869 106 869 106 911 106 c 2,149,-1
 936 106 l 1,150,-1
 938 94 l 1,151,152
 873.2 92.2 873.2 92.2 867.6 86.6 c 128,-1,153
 862 81 862 81 862 74 c 2,154,-1
 858 45 l 1,155,156
 858 16 858 16 913 -39 c 1,157,-1
 903 -49 l 1,0,1
711 1260 m 0,158,159
 711 1294 711 1294 672 1294 c 0,160,161
 658 1294 658 1294 596 1276 c 1,162,-1
 592 1286 l 1,163,164
 658.215827338 1309.76978417 658.215827338 1309.76978417 665.107913669 1318.38489209 c 128,-1,165
 672 1327 672 1327 676 1336.5 c 128,-1,166
 680 1346 680 1346 682 1348 c 1,167,168
 641 1354 641 1354 599 1352.5 c 128,-1,169
 557 1351 557 1351 514 1323.5 c 128,-1,170
 471 1296 471 1296 471 1272.5 c 128,-1,171
 471 1249 471 1249 485 1241 c 1,172,-1
 596 1147 l 2,173,174
 613 1133 613 1133 631 1133 c 128,-1,175
 649 1133 649 1133 694 1163 c 1,176,-1
 709 1141 l 1,177,178
 655 1105 655 1105 655 1083.5 c 128,-1,179
 655 1062 655 1062 667.5 1034 c 128,-1,180
 680 1006 680 1006 687 1006 c 128,-1,181
 694 1006 694 1006 707.5 1015 c 128,-1,182
 721 1024 721 1024 737.5 1039 c 0,183,184
 778 1075.81818182 778 1075.81818182 778 1137 c 0,185,186
 778 1169 778 1169 717 1204 c 1,187,188
 715 1200 715 1200 715 1196 c 1,189,-1
 700 1200 l 1,190,191
 711 1249 711 1249 711 1260 c 0,158,159
723 1227 m 1,192,193
 776 1196 776 1196 798.5 1196 c 128,-1,194
 821 1196 821 1196 821 1221 c 128,-1,195
 821 1246 821 1246 801 1257 c 2,196,-1
 782 1268 l 2,197,198
 774 1272 774 1272 768 1272 c 2,199,-1
 758 1272 l 1,200,201
 742.475 1270.275 742.475 1270.275 735.7375 1258.6375 c 128,-1,202
 729 1247 729 1247 723 1227 c 1,192,193
819 1202 m 2,203,-1
 815 1200 l 2,204,205
 817 1200 817 1200 819 1202 c 2,203,-1
805 1194 m 1,206,-1
 803 1192 l 1,207,208
 805 1192 805 1192 805 1194 c 1,206,-1
EndSplineSet
EndChar

StartChar: Z
Encoding: 90 90 25
Width: 1284
Flags: HMW
LayerCount: 2
Fore
SplineSet
309 49 m 1,0,-1
 194 63 l 1,1,2
 165 63 165 63 110 27 c 1,3,-1
 100 41 l 1,4,5
 143 70 143 70 156 86.5 c 128,-1,6
 169 103 169 103 177 149 c 128,-1,7
 185 195 185 195 217 219 c 0,8,9
 221 223 221 223 225 231 c 2,10,-1
 284 387 l 2,11,12
 286 391 286 391 286 403 c 128,-1,13
 286 415 286 415 235 461 c 1,14,-1
 243 471 l 1,15,16
 290 426 290 426 302.5 426 c 128,-1,17
 315 426 315 426 319 428 c 1,18,-1
 327 440 l 1,19,20
 462 806 462 806 538 838 c 1,21,22
 537 838 537 838 540.5 844.5 c 128,-1,23
 544 851 544 851 550.5 864 c 128,-1,24
 557 877 557 877 565.5 893 c 128,-1,25
 574 909 574 909 583 928.5 c 128,-1,26
 592 948 592 948 599.5 967.5 c 0,27,28
 619.037037037 1018.2962963 619.037037037 1018.2962963 621.518518519 1038.64814815 c 128,-1,29
 624 1059 624 1059 636.5 1100 c 128,-1,30
 649 1141 649 1141 661 1200 c 1,31,-1
 663 1200 l 1,32,33
 649 1114 649 1114 649 1090 c 2,34,-1
 649 1085 l 2,35,36
 649 1073 649 1073 656.5 1063 c 128,-1,37
 664 1053 664 1053 675.5 1053 c 128,-1,38
 687 1053 687 1053 698.5 1074.5 c 128,-1,39
 710 1096 710 1096 717 1122.5 c 0,40,41
 735.358490566 1192 735.358490566 1192 770 1192 c 2,42,-1
 776 1192 l 1,43,44
 780 1204 780 1204 780 1214 c 128,-1,45
 780 1224 780 1224 769.5 1233.5 c 128,-1,46
 759 1243 759 1243 743 1243 c 2,47,-1
 393 1243 l 2,48,49
 363 1243 363 1243 331.5 1211 c 128,-1,50
 300 1179 300 1179 260.5 1120.5 c 128,-1,51
 221 1062 221 1062 210.5 1050 c 128,-1,52
 200 1038 200 1038 200 1034 c 128,-1,53
 200 1030 200 1030 245 977 c 1,54,-1
 233 967 l 1,55,56
 192 1016 192 1016 178 1016 c 128,-1,57
 164 1016 164 1016 151 1008 c 1,58,-1
 128 987 l 1,59,60
 101.666666667 960.666666667 101.666666667 960.666666667 67 874 c 1,61,-1
 59 879 l 1,62,63
 90 959 90 959 90 989 c 2,64,-1
 90 1118 l 1,65,-1
 139 1245 l 1,66,-1
 102 1376 l 2,67,68
 92.8053691275 1409.10067114 92.8053691275 1409.10067114 26 1460 c 1,69,-1
 34 1470 l 1,70,71
 97 1424 97 1424 124 1421 c 1,72,73
 141 1424 141 1424 147 1440 c 2,74,-1
 157 1466 l 2,75,76
 163 1480 163 1480 163 1498 c 128,-1,77
 163 1516 163 1516 145 1581 c 1,78,-1
 159 1585 l 1,79,80
 185.900383142 1500.4559387 185.900383142 1500.4559387 232 1463 c 0,81,82
 248 1450 248 1450 263.5 1449 c 128,-1,83
 279 1448 279 1448 330 1435.5 c 128,-1,84
 381 1423 381 1423 410 1423 c 128,-1,85
 439 1423 439 1423 479 1485 c 1,86,-1
 497 1473 l 1,87,88
 462 1423 462 1423 462 1401.5 c 128,-1,89
 462 1380 462 1380 483 1380 c 0,90,91
 536 1380 536 1380 536 1483 c 1,92,-1
 563 1483 l 1,93,94
 563 1413 563 1413 595.5 1388.5 c 128,-1,95
 628 1364 628 1364 684 1364 c 128,-1,96
 740 1364 740 1364 852.5 1391.5 c 128,-1,97
 965 1419 965 1419 997 1420 c 128,-1,98
 1029 1421 1029 1421 1043 1429.5 c 128,-1,99
 1057 1438 1057 1438 1066.5 1441.5 c 0,100,101
 1087 1449.05263158 1087 1449.05263158 1087 1526 c 1,102,-1
 1103 1526 l 1,103,104
 1103 1493.5 l 2,105,106
 1103 1481 1103 1481 1105.5 1471 c 128,-1,107
 1108 1461 1108 1461 1108.5 1456.5 c 128,-1,108
 1109 1452 1109 1452 1115 1447.5 c 128,-1,109
 1121 1443 1121 1443 1122 1442 c 128,-1,110
 1123 1441 1123 1441 1133 1438 c 128,-1,111
 1143 1435 1143 1435 1148.5 1432.5 c 128,-1,112
 1154 1430 1154 1430 1170 1430 c 128,-1,113
 1186 1430 1186 1430 1245 1464 c 1,114,-1
 1253 1452 l 1,115,116
 1207 1425 1207 1425 1194 1411 c 128,-1,117
 1181 1397 1181 1397 1178.5 1380.5 c 128,-1,118
 1176 1364 1176 1364 1155 1326 c 128,-1,119
 1134 1288 1134 1288 1133.5 1279 c 128,-1,120
 1133 1270 1133 1270 1128.5 1254.5 c 128,-1,121
 1124 1239 1124 1239 1116 1219 c 128,-1,122
 1108 1199 1108 1199 1100.5 1181 c 128,-1,123
 1093 1163 1093 1163 1080.5 1137 c 128,-1,124
 1068 1111 1068 1111 1059.5 1094 c 128,-1,125
 1051 1077 1051 1077 1036.5 1048.5 c 128,-1,126
 1022 1020 1022 1020 1015 1006.5 c 0,127,128
 988.4 955.2 988.4 955.2 978.2 938.1 c 128,-1,129
 968 921 968 921 968 911 c 128,-1,130
 968 901 968 901 1019 858 c 1,131,-1
 1007 844 l 1,132,133
 961 881 961 881 944 881 c 0,134,135
 919 881 919 881 891.5 824 c 128,-1,136
 864 767 864 767 864 744.617647059 c 128,-1,137
 864 722.235294118 864 722.235294118 921 682 c 1,138,-1
 909 666 l 1,139,140
 861 700 861 700 841 700 c 0,141,142
 806 700 806 700 755 625 c 128,-1,143
 704 550 704 550 704 522 c 128,-1,144
 704 494 704 494 759 455 c 1,145,-1
 749 440 l 1,146,147
 699 477 699 477 680 477 c 128,-1,148
 661 477 661 477 652 461.5 c 128,-1,149
 643 446 643 446 640.5 426 c 128,-1,150
 638 406 638 406 627.5 387 c 128,-1,151
 617 368 617 368 597 362 c 128,-1,152
 577 356 577 356 569 319.5 c 128,-1,153
 561 283 561 283 561 263.5 c 0,154,155
 561 227.307692308 561 227.307692308 591 225 c 1,156,-1
 718 201 l 1,157,158
 720 199 720 199 723.5 199 c 128,-1,159
 727 199 727 199 735 203 c 0,160,161
 787 231 787 231 923 231 c 1,162,-1
 1017 229 l 2,163,164
 1032 229 1032 229 1049.5 263 c 128,-1,165
 1067 297 1067 297 1083 303 c 1,166,167
 1104.79864636 318.091370558 1104.79864636 318.091370558 1112.39932318 366.545685279 c 0,168,169
 1126.59687288 457.055064582 1126.59687288 457.055064582 1183 459 c 1,170,-1
 1220 461 l 2,171,172
 1236 461 1236 461 1251 471 c 128,-1,173
 1266 481 1266 481 1300 520 c 1,174,-1
 1308 512 l 1,175,176
 1259 458 1259 458 1259 434 c 1,177,-1
 1265 346 l 2,178,179
 1266 333 1266 333 1270 327 c 0,180,181
 1279.84 312.24 1279.84 312.24 1345 305 c 1,182,-1
 1343 285 l 1,183,184
 1325 287 1325 287 1301 287 c 128,-1,185
 1277 287 1277 287 1268.5 281.5 c 128,-1,186
 1260 276 1260 276 1252.5 250.5 c 128,-1,187
 1245 225 1245 225 1216.5 167 c 0,188,189
 1148 27.5964912281 1148 27.5964912281 1148 10.298245614 c 128,-1,190
 1148 -7 1148 -7 1152 -51 c 1,191,-1
 1140 -53 l 1,192,193
 1130.34602076 27.4498269896 1130.34602076 27.4498269896 1107 49 c 1,194,-1
 1107 47 l 1,195,196
 1101 53 1101 53 1071 53 c 128,-1,197
 1041 53 1041 53 981 55.5 c 128,-1,198
 921 58 921 58 878 61.5 c 0,199,200
 708.945205479 75.2602739726 708.945205479 75.2602739726 680.97260274 76.6301369863 c 128,-1,201
 653 78 653 78 634 67.5 c 128,-1,202
 615 57 615 57 600 57 c 1,203,-1
 557 66 l 1,204,205
 438 49 438 49 309 49 c 1,0,-1
471 1376 m 1,206,-1
 466 1382 l 1,207,208
 466 1379 466 1379 471 1376 c 1,206,-1
458 1395 m 1,209,-1
 456 1399 l 1,210,-1
 458 1395 l 1,209,-1
EndSplineSet
EndChar

StartChar: b
Encoding: 98 98 26
Width: 1736
Flags: HMW
LayerCount: 2
Fore
SplineSet
592 1767 m 1,0,-1
 627 1769 l 1,1,2
 648 1778 648 1778 648 1796.5 c 128,-1,3
 648 1815 648 1815 629 1866 c 1,4,-1
 648 1872 l 1,5,6
 665 1825 665 1825 676.5 1811.5 c 128,-1,7
 688 1798 688 1798 705 1796 c 2,8,-1
 779 1784 l 1,9,-1
 787 1782 l 1,10,11
 808 1782 808 1782 808 1807.5 c 128,-1,12
 808 1833 808 1833 775 1884 c 1,13,-1
 791 1894 l 1,14,15
 816 1855 816 1855 830.5 1842 c 128,-1,16
 845 1829 845 1829 861 1829 c 2,17,-1
 951 1833 l 2,18,19
 966 1833 966 1833 972.5 1836.5 c 0,20,21
 988.449339207 1845.08810573 988.449339207 1845.08810573 992 1909 c 1,22,-1
 1015 1907 l 1,23,-1
 1013 1882 l 1,24,25
 1013 1839.5 1013 1839.5 1022.5 1834.75 c 0,26,27
 1034.59445895 1828.70277052 1034.59445895 1828.70277052 1145.6468014 1810.26198944 c 128,-1,28
 1256.69914385 1791.82120837 1256.69914385 1791.82120837 1296.77921573 1775.23772533 c 128,-1,29
 1336.85928761 1758.6542423 1336.85928761 1758.6542423 1372.10836652 1712.43640476 c 0,30,31
 1382.00881187 1699.4551528 1382.00881187 1699.4551528 1425.59176428 1637.25031858 c 128,-1,32
 1469.1747167 1575.04548435 1469.1747167 1575.04548435 1526 1505 c 0,33,34
 1539 1489 1539 1489 1556.5 1489 c 128,-1,35
 1574 1489 1574 1489 1622 1507 c 1,36,-1
 1631 1487 l 1,37,38
 1583 1468 1583 1468 1570 1455.5 c 128,-1,39
 1557 1443 1557 1443 1557 1423 c 2,40,-1
 1555 1223 l 2,41,42
 1555 1216 1555 1216 1665 1196 c 1,43,-1
 1659 1163 l 1,44,45
 1596.66666667 1174 1596.66666667 1174 1583.33333333 1174 c 128,-1,46
 1570 1174 1570 1174 1555.5 1162 c 128,-1,47
 1541 1150 1541 1150 1537.5 1136.5 c 128,-1,48
 1534 1123 1534 1123 1531 1100 c 0,49,50
 1521.36006826 1026.09385666 1521.36006826 1026.09385666 1468.68003413 977.046928328 c 128,-1,51
 1416 928 1416 928 1362 924 c 0,52,53
 1350 924 1350 924 1342 915 c 2,54,-1
 1307 872 l 1,55,56
 1299 864 1299 864 1299 854 c 0,57,58
 1299 823 1299 823 1327 823 c 0,59,60
 1345 823 1345 823 1385 838 c 1,61,-1
 1393 815 l 1,62,63
 1330 796 1330 796 1330 772 c 0,64,65
 1330 768 1330 768 1336 741 c 1,66,67
 1373.33333333 694.333333333 1373.33333333 694.333333333 1389.66666667 633.666666667 c 128,-1,68
 1406 573 1406 573 1413 573 c 0,69,70
 1440.25806452 573 1440.25806452 573 1504 625 c 1,71,-1
 1514 612 l 1,72,73
 1474 577 1474 577 1462 559.5 c 128,-1,74
 1450 542 1450 542 1448 522 c 2,75,-1
 1424 152 l 2,76,77
 1424 147 1424 147 1520 111 c 1,78,-1
 1516 82 l 1,79,80
 1418.57142857 113 1418.57142857 113 1411.28571429 113 c 128,-1,81
 1404 113 1404 113 1389 98 c 1,82,-1
 1379 82 l 1,83,-1
 1368 18 l 1,84,-1
 1368 23 l 1,85,86
 1366 16 1366 16 1366 4 c 0,87,88
 1366 -26.1351351351 1366 -26.1351351351 1430 -59 c 1,89,-1
 1416 -86 l 1,90,91
 1369 -63 1369 -63 1347.5 -63.5 c 128,-1,92
 1326 -64 1326 -64 1284.5 -115 c 128,-1,93
 1243 -166 1243 -166 1219 -166 c 2,94,-1
 1086 -170 l 2,95,96
 1049.13970588 -172.047794118 1049.13970588 -172.047794118 991.069852941 -141.523897059 c 128,-1,97
 933 -111 933 -111 909.5 -98.5 c 0,98,99
 839 -61 839 -61 794 -31 c 1,100,101
 784 -27 784 -27 779 -27 c 2,102,-1
 738 -29 l 1,103,-1
 691 -12 l 1,104,105
 648 -12 648 -12 648 -72 c 0,106,107
 648 -79 648 -79 652 -113 c 1,108,-1
 629 -115 l 1,109,110
 623 -63 623 -63 615 -48.5 c 128,-1,111
 607 -34 607 -34 588 -29 c 2,112,-1
 504 -8 l 1,113,-1
 490 -6 l 1,114,115
 465 -6 465 -6 408 -55 c 1,116,-1
 398 -41 l 1,117,118
 437 -8 437 -8 448 9.5 c 128,-1,119
 459 27 459 27 459 47 c 2,120,-1
 459 125 l 2,121,122
 459 134 459 134 447 154 c 1,123,-1
 406 203 l 1,124,-1
 412 209 l 1,125,126
 448 171 448 171 468 156 c 1,127,128
 486 162 486 162 486 180 c 2,129,-1
 486 213 l 1,130,131
 483 251 483 251 447 322 c 1,132,-1
 455 326 l 1,133,134
 496 244 496 244 524 217 c 128,-1,135
 552 190 552 190 573 190 c 0,136,137
 613 190 613 190 613 227 c 1,138,-1
 605 387 l 1,139,140
 605 487 605 487 623 553 c 1,141,-1
 623 559 l 2,142,143
 623 570 623 570 613 590.5 c 128,-1,144
 603 611 603 611 603 625 c 1,145,-1
 584 889 l 1,146,147
 584 920 584 920 585 931 c 128,-1,148
 586 942 586 942 582 950 c 0,149,150
 553 1002 553 1002 517.5 1146 c 128,-1,151
 482 1290 482 1290 482 1346 c 1,152,-1
 500 1528 l 1,153,154
 500 1579 500 1579 470 1579 c 0,155,156
 422 1579 422 1579 385.5 1559.5 c 128,-1,157
 349 1540 349 1540 349 1506.5 c 128,-1,158
 349 1473 349 1473 353 1452 c 1,159,-1
 334 1450 l 1,160,161
 320.482758621 1548 320.482758621 1548 265 1548 c 1,162,-1
 138 1542 l 1,163,-1
 68 1546 l 2,164,165
 65 1546 65 1546 -3 1534 c 1,166,-1
 -10 1554 l 1,167,168
 69 1572 69 1572 74 1575 c 2,169,-1
 273 1700 l 1,170,-1
 212 1673 l 1,171,-1
 271 1712 l 1,172,173
 268 1728 268 1728 246 1769 c 1,174,-1
 257 1774 l 1,175,176
 267 1751 267 1751 283 1722 c 1,177,178
 322 1755 322 1755 322 1792 c 0,179,180
 322 1804 322 1804 320 1810 c 1,181,-1
 449 1841 l 1,182,183
 466 1767 466 1767 592 1767 c 1,0,-1
912 1049 m 1,184,-1
 910 1061 l 1,185,186
 1005 1074 1005 1074 1033 1096 c 1,187,188
 1028 1092 1028 1092 1017.5 1084.5 c 128,-1,189
 1007 1077 1007 1077 1002.5 1073.5 c 128,-1,190
 998 1070 998 1070 996 1068 c 128,-1,191
 994 1066 994 1066 992 1064 c 0,192,193
 988 1060 988 1060 988 1057 c 0,194,195
 988 1044 988 1044 1032.5 1044 c 2,196,-1
 1082 1044 l 2,197,198
 1101 1044 1101 1044 1176.5 1158 c 128,-1,199
 1252 1272 1252 1272 1252 1312.5 c 128,-1,200
 1252 1353 1252 1353 1246.5 1412 c 128,-1,201
 1241 1471 1241 1471 1223 1531 c 128,-1,202
 1205 1591 1205 1591 1179 1591 c 0,203,204
 1160 1591 1160 1591 1149 1576.5 c 128,-1,205
 1138 1562 1138 1562 1123 1505 c 1,206,-1
 1107 1509 l 1,207,208
 1117 1561 1117 1561 1117 1573 c 0,209,210
 1117 1621.75 1117 1621.75 997 1650.5 c 0,211,212
 949 1662 949 1662 938 1669.5 c 128,-1,213
 927 1677 927 1677 909.5 1677 c 128,-1,214
 892 1677 892 1677 870.5 1667 c 128,-1,215
 849 1657 849 1657 836 1637.5 c 128,-1,216
 823 1618 823 1618 815 1598 c 128,-1,217
 807 1578 807 1578 803.5 1548.5 c 0,218,219
 798 1502.14285714 798 1502.14285714 798 1452 c 2,220,-1
 798 1053 l 2,221,222
 798 989 798 989 843 979 c 1,223,224
 859 979 859 979 876 996.5 c 128,-1,225
 893 1014 893 1014 912 1049 c 1,184,-1
1080 614 m 1,226,-1
 1052 612 l 1,227,228
 1034 612 1034 612 984 616 c 1,229,-1
 1064 616 l 2,230,231
 1072 616 1072 616 1076 618 c 1,232,233
 1075 618 1075 618 1070 623 c 1,234,-1
 1072 627 l 1,235,-1
 1080 621 l 1,236,237
 1095 628 1095 628 1095 649 c 1,238,239
 1086 738 1086 738 1014 780.5 c 128,-1,240
 942 823 942 823 839 823 c 0,241,242
 802 823 802 823 802 807 c 0,243,244
 802 765 802 765 819.5 682 c 128,-1,245
 837 599 837 599 837 525.5 c 128,-1,246
 837 452 837 452 827.5 422.5 c 128,-1,247
 818 393 818 393 818 387 c 1,248,-1
 826 340 l 2,249,250
 827 330 827 330 831 325.5 c 0,251,252
 840.493670886 314.819620253 840.493670886 314.819620253 906 313 c 1,253,-1
 906 295 l 1,254,-1
 873 295 l 2,255,256
 836.5 295 836.5 295 831.25 288 c 128,-1,257
 826 281 826 281 824 272 c 2,258,-1
 812 227 l 2,259,260
 812 225 812 225 816 219 c 1,261,-1
 808 225 l 1,262,263
 826 191 826 191 826 150 c 2,264,-1
 826 104 l 2,265,266
 826 86 826 86 916 86 c 0,267,268
 937.307692308 86 937.307692308 86 952.653846154 75.5 c 0,269,270
 975.669724771 59.752293578 975.669724771 59.752293578 984 66 c 1,271,-1
 1056 96 l 2,272,273
 1063 98 1063 98 1069.5 109.5 c 128,-1,274
 1076 121 1076 121 1076 131 c 0,275,276
 1076 150 1076 150 1017 178 c 1,277,-1
 1025 197 l 1,278,279
 1071 176 1071 176 1086 176 c 0,280,281
 1111 176 1111 176 1144 256.5 c 128,-1,282
 1177 337 1177 337 1177 381 c 1,283,284
 1171 464 1171 464 1136 539 c 1,285,-1
 1111 590 l 1,286,-1
 1080 614 l 1,226,-1
1086 614 m 1,287,-1
 1107 600 l 1,288,289
 1103 612 1103 612 1103 618 c 1,290,-1
 1086 614 l 1,287,-1
816 219 m 2,291,292
 818 217 818 217 820 213 c 2,293,-1
 816 219 l 2,291,292
304 1714 m 1,294,-1
 298 1712 l 1,295,296
 302 1712 302 1712 304 1714 c 1,294,-1
205 1671 m 2,297,-1
 201 1669 l 2,298,299
 203 1671 203 1671 205 1671 c 2,297,-1
205 1671 m 2,300,-1
 208.5 1672 l 2,301,302
 206 1671 206 1671 205 1671 c 2,300,-1
EndSplineSet
EndChar

StartChar: c
Encoding: 99 99 27
Width: 1502
Flags: HMW
LayerCount: 2
Fore
SplineSet
1163 469 m 1,0,-1
 1191 471 l 1,1,-1
 1193 449 l 1,2,3
 1142 444 1142 444 1131 436 c 128,-1,4
 1120 428 1120 428 1120 408 c 2,5,-1
 1120 367 l 2,6,7
 1120 352 1120 352 1123 345 c 0,8,9
 1130.32718894 327.903225806 1130.32718894 327.903225806 1193 315 c 1,10,-1
 1189 293 l 1,11,12
 1157 301 1157 301 1144 301 c 128,-1,13
 1131 301 1131 301 1126.5 300 c 128,-1,14
 1122 299 1122 299 1119 298.5 c 128,-1,15
 1116 298 1116 298 1113 294.5 c 128,-1,16
 1110 291 1110 291 1108.5 290 c 128,-1,17
 1107 289 1107 289 1104.5 284 c 128,-1,18
 1102 279 1102 279 1102 278.5 c 128,-1,19
 1102 278 1102 278 1096.5 262 c 128,-1,20
 1091 246 1091 246 1081 216 c 2,21,-1
 1064.5 166.5 l 2,22,23
 1058 147 1058 147 1058 145 c 2,24,-1
 1048 43 l 1,25,26
 1048 26 1048 26 1117 14 c 1,27,-1
 1115 -2 l 1,28,29
 1079 4 1079 4 1065.5 4 c 128,-1,30
 1052 4 1052 4 1046.5 1 c 128,-1,31
 1041 -2 1041 -2 1039.5 -4 c 0,32,33
 1036 -8.66666666667 1036 -8.66666666667 1036 -27.3333333333 c 128,-1,34
 1036 -46 1036 -46 1081 -100 c 1,35,-1
 1070 -109 l 1,36,37
 1021.95 -47 1021.95 -47 999 -47 c 2,38,-1
 945 -47 l 2,39,40
 914 -47 914 -47 782 -174 c 1,41,-1
 771 -164 l 1,42,43
 896 -34 896 -34 898 -10 c 1,44,-1
 898 -4 l 1,45,46
 895 18 895 18 868 18 c 1,47,-1
 825 16 l 1,48,49
 796 16 796 16 786.5 17 c 128,-1,50
 777 18 777 18 773 16 c 2,51,-1
 718 -10 l 2,52,53
 714 -12 714 -12 699 -12 c 128,-1,54
 684 -12 684 -12 658.5 -1.5 c 128,-1,55
 633 9 633 9 626 16 c 1,56,-1
 585 37 l 1,57,58
 590 26 590 26 628 -25 c 1,59,-1
 618 -31 l 1,60,61
 569 32 569 32 526.5 49.5 c 128,-1,62
 484 67 484 67 424.5 107 c 128,-1,63
 365 147 365 147 341 176 c 1,64,-1
 331 182 l 1,65,66
 271 207 271 207 235 250 c 128,-1,67
 199 293 199 293 166 359.5 c 128,-1,68
 133 426 133 426 116 450.5 c 128,-1,69
 99 475 99 475 77 475 c 128,-1,70
 55 475 55 475 16 461 c 1,71,-1
 9 475 l 1,72,-1
 79 510 l 1,73,74
 67 561 67 561 32 561 c 0,75,76
 14 561 14 561 -31 543 c 1,77,-1
 -38 559 l 1,78,79
 9 578 9 578 20.5 588 c 128,-1,80
 32 598 32 598 32 614 c 1,81,-1
 24 713 l 2,82,83
 23 730 23 730 19.5 737.5 c 0,84,85
 10.6768060837 756.406844106 10.6768060837 756.406844106 -54 760 c 1,86,-1
 -52 791 l 1,87,-1
 -29 791 l 2,88,89
 38 791 38 791 38 877 c 1,90,-1
 36 928 l 1,91,-1
 40 965 l 1,92,93
 40 975 40 975 -13 1034 c 1,94,-1
 9 1065 l 1,95,96
 59 1018 59 1018 68.5 1019 c 128,-1,97
 78 1020 78 1020 89 1038 c 1,98,99
 109 1087 109 1087 174 1165.5 c 128,-1,100
 239 1244 239 1244 259 1288 c 1,101,102
 265 1297 265 1297 265 1312.5 c 128,-1,103
 265 1328 265 1328 220 1376 c 1,104,-1
 237 1393 l 1,105,106
 281 1346 281 1346 313 1346 c 128,-1,107
 345 1346 345 1346 413 1399.5 c 128,-1,108
 481 1453 481 1453 481 1476 c 128,-1,109
 481 1499 481 1499 456 1542 c 1,110,-1
 487 1561 l 1,111,112
 519 1507 519 1507 548 1507 c 0,113,114
 557 1507 557 1507 636 1536 c 128,-1,115
 715 1565 715 1565 763 1565 c 1,116,-1
 978 1585 l 2,117,118
 997 1587 997 1587 1010.5 1600.5 c 128,-1,119
 1024 1614 1024 1614 1044 1661 c 1,120,-1
 1062 1653 l 1,121,122
 1038 1598 1038 1598 1038 1584 c 128,-1,123
 1038 1570 1038 1570 1041.5 1563 c 0,124,125
 1046.72727273 1552.54545455 1046.72727273 1552.54545455 1062 1550 c 2,126,-1
 1101 1542 l 2,127,128
 1107 1540 1107 1540 1118.5 1540 c 128,-1,129
 1130 1540 1130 1540 1140 1550 c 1,130,-1
 1132 1569 l 1,131,132
 1134 1561 1134 1561 1144 1552 c 1,133,134
 1160 1566 1160 1566 1185 1597 c 1,135,-1
 1187 1595 l 1,136,-1
 1163 1636 l 1,137,-1
 1177 1647 l 1,138,139
 1208 1604 1208 1604 1223.5 1592.5 c 128,-1,140
 1239 1581 1239 1581 1259 1581 c 2,141,-1
 1304 1581 l 2,142,143
 1324 1581 1324 1581 1342.5 1591.5 c 128,-1,144
 1361 1602 1361 1602 1398 1638 c 1,145,-1
 1408 1628 l 1,146,147
 1372 1590 1372 1590 1361.5 1572 c 128,-1,148
 1351 1554 1351 1554 1351 1534 c 2,149,-1
 1351 1475 l 2,150,151
 1351 1465 1351 1465 1431 1409 c 1,152,-1
 1412 1378 l 1,153,154
 1341 1419 1341 1419 1335 1419 c 0,155,156
 1314 1419 1314 1419 1314 1397 c 1,157,158
 1299.89322994 1174.81837161 1299.89322994 1174.81837161 1235.5 1075.5 c 0,159,160
 1206 1030 1206 1030 1179 1011.5 c 128,-1,161
 1152 993 1152 993 1152 979.5 c 128,-1,162
 1152 966 1152 966 1165 915 c 1,163,-1
 1152 911 l 1,164,165
 1139.10714286 977.306122449 1139.10714286 977.306122449 1133.55357143 983.653061224 c 128,-1,166
 1128 990 1128 990 1122 991 c 1,167,-1
 1115 991 l 1,168,-1
 1109 993 l 1,169,170
 1105 993 1105 993 1060 938 c 1,171,-1
 1046 954 l 1,172,173
 1083 1006 1083 1006 1083 1010 c 2,174,-1
 1081 1020 l 1,175,-1
 1060 1059 l 2,176,177
 1054 1069 1054 1069 1054 1075 c 1,178,-1
 1066 1133 l 1,179,180
 1066 1217 1066 1217 1025 1285.5 c 128,-1,181
 984 1354 984 1354 913 1384 c 1,182,183
 921 1365 921 1365 947 1311 c 1,184,-1
 943 1309 l 1,185,186
 910.2 1374.6 910.2 1374.6 902.6 1380.3 c 128,-1,187
 895 1386 895 1386 889.5 1389 c 128,-1,188
 884 1392 884 1392 880 1397 c 1,189,190
 845 1407 845 1407 818.5 1407 c 128,-1,191
 792 1407 792 1407 760 1392.5 c 128,-1,192
 728 1378 728 1378 728 1357.5 c 128,-1,193
 728 1337 728 1337 749 1296 c 1,194,-1
 722 1282 l 1,195,196
 692 1341 692 1341 660.5 1341 c 128,-1,197
 629 1341 629 1341 596 1319.5 c 128,-1,198
 563 1298 563 1298 520.5 1255.5 c 128,-1,199
 478 1213 478 1213 468 1205.5 c 128,-1,200
 458 1198 458 1198 454 1178 c 0,201,202
 438.591836735 1100.95918367 438.591836735 1100.95918367 426.795918367 1079.97959184 c 128,-1,203
 415 1059 415 1059 413.5 1039 c 128,-1,204
 412 1019 412 1019 391.5 968 c 0,205,206
 362 894.609756098 362 894.609756098 362 800.304878049 c 128,-1,207
 362 706 362 706 375 691.5 c 128,-1,208
 388 677 388 677 429 674 c 1,209,-1
 425 641 l 1,210,-1
 384 641 l 1,211,212
 384 604 384 604 401 583.5 c 128,-1,213
 418 563 418 563 431.5 563 c 128,-1,214
 445 563 445 563 483 573 c 1,215,-1
 485 565 l 1,216,217
 417 547 417 547 417 535 c 1,218,-1
 425 512 l 1,219,220
 430.714285714 492 430.714285714 492 453.857142857 492 c 128,-1,221
 477 492 477 492 511 504 c 1,222,-1
 517 481 l 1,223,224
 450 458.666666667 450 458.666666667 450 436 c 0,225,226
 450 428 450 428 452 424 c 1,227,-1
 454 408 l 1,228,-1
 460 395 l 1,229,-1
 483 373 l 2,230,231
 485 371 485 371 487.5 369 c 128,-1,232
 490 367 490 367 491 366 c 128,-1,233
 492 365 492 365 502 365 c 0,234,235
 527.692307692 365 527.692307692 365 581 428 c 1,236,-1
 595 418 l 1,237,238
 546 362 546 362 546 330 c 0,239,240
 546 186 546 186 796 186 c 0,241,242
 806 186 806 186 810 190 c 1,243,-1
 849 217 l 1,244,-1
 886 274 l 1,245,246
 890 288 890 288 890 302 c 128,-1,247
 890 316 890 316 855 369 c 1,248,-1
 870 379 l 1,249,250
 910.8 311 910.8 311 935 311 c 0,251,252
 968 311 968 311 968 387 c 0,253,254
 968 411.619047619 968 411.619047619 900 444 c 1,255,-1
 911 463 l 1,256,257
 956 438 956 438 974 438 c 128,-1,258
 992 438 992 438 1003 451 c 1,259,-1
 1074 520 l 2,260,261
 1100 546 1100 546 1128 625 c 1,262,-1
 1136 621 l 1,263,264
 1111 550 1111 550 1111 531 c 128,-1,265
 1111 512 1111 512 1113 506 c 1,266,-1
 1113 502 l 1,267,268
 1114 489 1114 489 1116 483.5 c 0,269,270
 1121.27272727 469 1121.27272727 469 1163 469 c 1,0,-1
1167 1532 m 1,271,272
 1175 1528 1175 1528 1181 1528 c 0,273,274
 1199 1528 1199 1528 1199 1556 c 0,275,276
 1199 1561 1199 1561 1195 1577 c 1,277,278
 1174 1554 1174 1554 1167 1532 c 1,271,272
1132 1569 m 2,279,280
 1128 1577 1128 1577 1128 1579 c 2,281,-1
 1132 1569 l 2,279,280
1048 1556 m 1,282,-1
 1046 1559 l 1,283,-1
 1046 1561 l 1,284,-1
 1048 1556 l 1,282,-1
EndSplineSet
EndChar

StartChar: d
Encoding: 100 100 28
Width: 1238
Flags: HMW
LayerCount: 2
Fore
SplineSet
532 25 m 2,0,-1
 518 23 l 1,1,2
 496 23 496 23 454.5 43 c 128,-1,3
 413 63 413 63 393 63 c 1,4,-1
 338 51 l 2,5,6
 321 48 321 48 311 33 c 128,-1,7
 301 18 301 18 288 -33 c 1,8,-1
 272 -27 l 1,9,10
 282 25 282 25 282 40 c 128,-1,11
 282 55 282 55 270 68.5 c 128,-1,12
 258 82 258 82 239 82 c 128,-1,13
 220 82 220 82 170 59 c 1,14,-1
 162 76 l 1,15,16
 208 97 208 97 220.5 109.5 c 128,-1,17
 233 122 233 122 233 139 c 2,18,-1
 233 158 l 2,19,20
 233 178 233 178 222.5 196.5 c 128,-1,21
 212 215 212 215 176 252 c 1,22,-1
 188 264 l 1,23,24
 218 232 218 232 229 223 c 1,25,-1
 229 225 l 1,26,27
 299 251.046511628 299 251.046511628 299 274 c 2,28,-1
 299 283 l 1,29,30
 294 391 294 391 267 604.5 c 128,-1,31
 240 818 240 818 196 1015 c 128,-1,32
 152 1212 152 1212 116 1212 c 2,33,-1
 108 1212 l 1,34,35
 87.375 1207.3125 87.375 1207.3125 -15 1200 c 1,36,-1
 -29 1260 l 1,37,-1
 18 1298 l 1,38,39
 35 1317 35 1317 35 1327 c 128,-1,40
 35 1337 35 1337 10 1389 c 1,41,-1
 28 1399 l 1,42,43
 48 1363 48 1363 59.5 1351 c 128,-1,44
 71 1339 71 1339 92 1339 c 128,-1,45
 113 1339 113 1339 238.5 1378.5 c 128,-1,46
 364 1418 364 1418 364 1429 c 128,-1,47
 364 1440 364 1440 352 1495 c 1,48,-1
 362 1497 l 1,49,50
 379 1427 379 1427 391 1427 c 1,51,52
 405 1431.66666667 405 1431.66666667 405 1446.33333333 c 128,-1,53
 405 1461 405 1461 401 1505 c 1,54,-1
 413 1507 l 1,55,56
 422.113636364 1443.20454545 422.113636364 1443.20454545 428.556818182 1438.60227273 c 128,-1,57
 435 1434 435 1434 451 1434.5 c 128,-1,58
 467 1435 467 1435 483 1437.5 c 128,-1,59
 499 1440 499 1440 517.5 1447.5 c 0,60,61
 553.425806452 1462.06451613 553.425806452 1462.06451613 573 1511 c 1,62,-1
 577 1509 l 1,63,-1
 561 1468 l 1,64,65
 581 1486 581 1486 581 1509 c 128,-1,66
 581 1532 581 1532 575 1563 c 1,67,-1
 604 1569 l 1,68,69
 614 1519 614 1519 627 1504 c 128,-1,70
 640 1489 640 1489 663.5 1487.5 c 128,-1,71
 687 1486 687 1486 709 1482 c 128,-1,72
 731 1478 731 1478 745 1475.5 c 128,-1,73
 759 1473 759 1473 781.5 1465 c 128,-1,74
 804 1457 804 1457 810 1455 c 0,75,76
 862.5 1437.5 862.5 1437.5 867.25 1433.75 c 128,-1,77
 872 1430 872 1430 888.5 1430 c 128,-1,78
 905 1430 905 1430 948 1483 c 1,79,-1
 962 1470 l 1,80,81
 923 1423 923 1423 923 1407.5 c 128,-1,82
 923 1392 923 1392 943 1359.5 c 128,-1,83
 963 1327 963 1327 1009.5 1275 c 128,-1,84
 1056 1223 1056 1223 1091.5 1187.5 c 128,-1,85
 1127 1152 1127 1152 1160 1106.5 c 0,86,87
 1229 1011.36363636 1229 1011.36363636 1229 840 c 0,88,89
 1229 453.294117647 1229 453.294117647 1113 194 c 0,90,91
 1040.38983051 31.6949152542 1040.38983051 31.6949152542 907 -35 c 1,92,93
 891 -45 891 -45 891 -61 c 1,94,-1
 913 -176 l 1,95,-1
 884 -180 l 1,96,-1
 864 -72 l 1,97,-1
 831 -98 l 1,98,-1
 811 -98 l 1,99,100
 805.537313433 -34.2686567164 805.537313433 -34.2686567164 796.268656716 -29.6343283582 c 128,-1,101
 787 -25 787 -25 776 -25 c 2,102,-1
 684 -29 l 1,103,104
 653 -29 653 -29 653 -59 c 2,105,-1
 651 -145 l 1,106,-1
 628 -145 l 1,107,-1
 628 -37 l 2,108,109
 628 -20 628 -20 612 -10 c 1,110,-1
 547 20 l 1,111,112
 539 25 539 25 532 25 c 2,0,-1
520 340 m 1,113,-1
 528 272 l 1,114,115
 528 234 528 234 520 176 c 1,116,-1
 499 240 l 1,117,-1
 520 168 l 1,118,-1
 522 170 l 1,119,120
 632 152 632 152 671.5 152 c 128,-1,121
 711 152 711 152 728 165.5 c 128,-1,122
 745 179 745 179 747 199 c 128,-1,123
 749 219 749 219 748.5 239.5 c 0,124,125
 747.27032735 289.916578669 747.27032735 289.916578669 788 297 c 1,126,127
 803 297 803 297 809 309 c 1,128,129
 921 493 921 493 921 702 c 0,130,131
 921 737 921 737 841 748 c 1,132,-1
 844 766 l 1,133,134
 880 762 880 762 896.5 762 c 0,135,136
 927 762 927 762 927 796.5 c 128,-1,137
 927 831 927 831 913.5 882.5 c 128,-1,138
 900 934 900 934 898.5 942.5 c 128,-1,139
 897 951 897 951 893.5 991.5 c 128,-1,140
 890 1032 890 1032 886 1061 c 128,-1,141
 882 1090 882 1090 866.5 1115.5 c 128,-1,142
 851 1141 851 1141 827 1141 c 128,-1,143
 803 1141 803 1141 770 1126 c 1,144,-1
 762 1145 l 1,145,146
 798.105263158 1158.75438596 798.105263158 1158.75438596 812.052631579 1170.37719298 c 128,-1,147
 826 1182 826 1182 827 1182 c 2,148,-1
 829 1182 l 1,149,150
 805 1254 805 1254 712.5 1297.5 c 128,-1,151
 620 1341 620 1341 544 1341 c 0,152,153
 540 1341 540 1341 532 1337 c 1,154,155
 532 1331 532 1331 592 1288 c 1,156,-1
 590 1284 l 1,157,158
 532 1327 532 1327 528 1327 c 1,159,-1
 522 1325 l 2,160,161
 520 1325 520 1325 520 1316 c 128,-1,162
 520 1307 520 1307 532 1251 c 1,163,-1
 530 1251 l 1,164,165
 514 1323 514 1323 510 1323 c 2,166,-1
 508 1323 l 1,167,168
 440 1273 440 1273 440 1251 c 2,169,-1
 444 1038 l 2,170,171
 444 1017.81818182 444 1017.81818182 475.5 1003.5 c 0,172,173
 481 1001 481 1001 490 1001 c 128,-1,174
 499 1001 499 1001 561 1020 c 1,175,-1
 567 1006 l 1,176,177
 475 977.037037037 475 977.037037037 475 938 c 2,178,-1
 481 696 l 1,179,-1
 481 647 l 1,180,181
 526 520 526 520 526 418 c 0,182,183
 526 380 526 380 520 340 c 1,113,-1
248 211 m 1,184,185
 264 203 264 203 280 203 c 1,186,-1
 309 201 l 2,187,188
 317 201 317 201 325 213 c 1,189,190
 315 223 315 223 297 223 c 128,-1,191
 279 223 279 223 248 211 c 1,184,185
522 170 m 1,192,-1
 520 174 l 1,193,-1
 520 176 l 1,194,-1
 522 170 l 1,192,-1
340 199 m 1,195,-1
 336 203 l 1,196,-1
 340 199 l 1,195,-1
EndSplineSet
EndChar

StartChar: e
Encoding: 101 101 29
Width: 1546
Flags: HMW
LayerCount: 2
Fore
SplineSet
423 559 m 1,0,1
 423 586 423 586 388 586 c 0,2,3
 382 586 382 586 310 557 c 1,4,-1
 294 598 l 1,5,6
 386 643 386 643 386 651 c 2,7,-1
 388 690 l 2,8,9
 389 700 389 700 369.5 888.5 c 128,-1,10
 350 1077 350 1077 351 1143 c 1,11,12
 344 1164 344 1164 332 1173 c 128,-1,13
 320 1182 320 1182 288 1182 c 1,14,-1
 259 1180 l 1,15,-1
 257 1210 l 1,16,17
 319.823529412 1211.96323529 319.823529412 1211.96323529 330.911764706 1229.98161765 c 0,18,19
 345 1252.875 345 1252.875 345 1285.9375 c 128,-1,20
 345 1319 345 1319 322.5 1358 c 128,-1,21
 300 1397 300 1397 278 1397 c 128,-1,22
 256 1397 256 1397 222 1382 c 1,23,-1
 212 1407 l 1,24,25
 252 1424 252 1424 263.5 1434 c 128,-1,26
 275 1444 275 1444 275 1460 c 1,27,28
 265 1477 265 1477 249 1477 c 2,29,-1
 101 1473 l 2,30,31
 82 1473 82 1473 67.5 1461 c 128,-1,32
 53 1449 53 1449 28 1405 c 1,33,-1
 11 1413 l 1,34,35
 42 1466 42 1466 42 1481 c 128,-1,36
 42 1496 42 1496 38.5 1506 c 128,-1,37
 35 1516 35 1516 29 1529.5 c 128,-1,38
 23 1543 23 1543 19.5 1556 c 0,39,40
 10.9717277487 1587.67643979 10.9717277487 1587.67643979 -58 1630 c 1,41,-1
 -48 1645 l 1,42,43
 11 1606 11 1606 31.5 1606 c 128,-1,44
 52 1606 52 1606 87 1612.5 c 128,-1,45
 122 1619 122 1619 282 1623 c 128,-1,46
 442 1627 442 1627 454 1628 c 1,47,-1
 449 1626 l 1,48,49
 469 1628 469 1628 477.5 1632 c 0,50,51
 499.463087248 1642.33557047 499.463087248 1642.33557047 503 1706 c 1,52,-1
 535 1706 l 1,53,54
 535 1637.375 535 1637.375 553 1629.5 c 0,55,56
 582.983193277 1616.38235294 582.983193277 1616.38235294 729.491596639 1607.69117647 c 128,-1,57
 876 1599 876 1599 947 1599 c 0,58,59
 975.422222222 1599 975.422222222 1599 994 1675 c 1,60,-1
 1011 1671 l 1,61,62
 1002 1638 1002 1638 1002 1618 c 128,-1,63
 1002 1598 1002 1598 1019.5 1585.5 c 128,-1,64
 1037 1573 1037 1573 1067.5 1560 c 128,-1,65
 1098 1547 1098 1547 1111 1538 c 1,66,67
 1295 1550 1295 1550 1367 1622 c 1,68,-1
 1453 1532 l 1,69,70
 1366 1448 1366 1448 1357 1212 c 1,71,-1
 1357 1352 l 1,72,73
 1353 1318 1353 1318 1334.5 1244 c 128,-1,74
 1316 1170 1316 1170 1315 1140 c 128,-1,75
 1314 1110 1314 1110 1325.5 1098.5 c 128,-1,76
 1337 1087 1337 1087 1383 1065 c 1,77,-1
 1377 1049 l 1,78,79
 1327 1071 1327 1071 1310 1071 c 128,-1,80
 1293 1071 1293 1071 1285.5 1066 c 0,81,82
 1263.52941176 1051.35294118 1263.52941176 1051.35294118 1256 961 c 1,83,-1
 1244 963 l 1,84,85
 1246 985 1246 985 1246 1013.5 c 128,-1,86
 1246 1042 1246 1042 1236.5 1062.5 c 128,-1,87
 1227 1083 1227 1083 1208 1107.5 c 0,88,89
 1136 1200.34210526 1136 1200.34210526 1136 1298 c 1,90,-1
 1138 1317 l 1,91,92
 1138 1341 1138 1341 1091.5 1387.5 c 128,-1,93
 1045 1434 1045 1434 1009 1441.5 c 128,-1,94
 973 1449 973 1449 959 1475 c 1,95,96
 945 1460 945 1460 915.5 1460 c 128,-1,97
 886 1460 886 1460 815.5 1477.5 c 128,-1,98
 745 1495 745 1495 697 1495 c 0,99,100
 583 1495 583 1495 583 1452 c 1,101,102
 589.5 1406.5 589.5 1406.5 598.25 1352.25 c 128,-1,103
 607 1298 607 1298 614 1248.5 c 128,-1,104
 621 1199 621 1199 623 1174.5 c 128,-1,105
 625 1150 625 1150 629 1109.5 c 0,106,107
 636 1038.625 636 1038.625 636 980.3125 c 128,-1,108
 636 922 636 922 635 894 c 128,-1,109
 634 866 634 866 662 866 c 1,110,-1
 902 844 l 1,111,112
 924 844 924 844 933 882 c 128,-1,113
 942 920 942 920 946 979.5 c 128,-1,114
 950 1039 950 1039 956.5 1060 c 128,-1,115
 963 1081 963 1081 963 1101 c 128,-1,116
 963 1121 963 1121 941 1180 c 1,117,-1
 957 1186 l 1,118,119
 986.403912543 1110.65247411 986.403912543 1110.65247411 1026.5 1083 c 0,120,121
 1065.4779661 1056.11864407 1065.4779661 1056.11864407 1072.73898305 1040.55932203 c 128,-1,122
 1080 1025 1080 1025 1080 997 c 2,123,-1
 1074 807 l 1,124,125
 1074 672 1074 672 1086 543 c 1,126,127
 1086 527 1086 527 1100 516 c 128,-1,128
 1114 505 1114 505 1162 489 c 1,129,-1
 1156 473 l 1,130,131
 1100 489 1100 489 1088 489 c 0,132,133
 1050.2 489 1050.2 489 1045 424 c 1,134,135
 1045 404 1045 404 1099 350 c 1,136,-1
 1093 344 l 1,137,138
 1039 401 1039 401 1023 401 c 2,139,-1
 1019 401 l 2,140,141
 999.818181818 401 999.818181818 401 974 330 c 1,142,-1
 966 334 l 1,143,144
 986 393 986 393 986 403 c 128,-1,145
 986 413 986 413 980 416 c 1,146,-1
 963 432 l 1,147,148
 950 442 950 442 935 442 c 128,-1,149
 920 442 920 442 869 420 c 1,150,-1
 861 438 l 1,151,152
 908 458 908 458 920.5 470 c 128,-1,153
 933 482 933 482 933 500 c 2,154,-1
 933 657 l 2,155,156
 933 663 933 663 913.5 682 c 128,-1,157
 894 701 894 701 894 702 c 2,158,-1
 812 698 l 2,159,160
 796 697 796 697 765.5 708 c 128,-1,161
 735 719 735 719 724 719 c 0,162,163
 689 719 689 719 689 674 c 1,164,-1
 699 547 l 1,165,166
 713 473 713 473 719 328 c 128,-1,167
 725 183 725 183 738 113 c 1,168,169
 777 104 777 104 1056 104 c 1,170,171
 1068 111 1068 111 1095.5 126.5 c 128,-1,172
 1123 142 1123 142 1138 151 c 128,-1,173
 1153 160 1153 160 1175 174 c 0,174,175
 1212.05263158 197.578947368 1212.05263158 197.578947368 1246 227 c 1,176,177
 1256 245 1256 245 1258 322 c 1,178,-1
 1265 322 l 1,179,-1
 1262 276 l 1,180,181
 1262 209 1262 209 1293 209 c 0,182,183
 1302 209 1302 209 1357 219 c 1,184,-1
 1359 209 l 1,185,186
 1295.2690583 195.878923767 1295.2690583 195.878923767 1289.63452915 189.439461883 c 128,-1,187
 1284 183 1284 183 1282.5 166 c 128,-1,188
 1281 149 1281 149 1258.5 95 c 128,-1,189
 1236 41 1236 41 1236 17.5 c 128,-1,190
 1236 -6 1236 -6 1248.5 -19 c 128,-1,191
 1261 -32 1261 -32 1301 -49 c 1,192,-1
 1289 -76 l 1,193,194
 1260 -59 1260 -59 1233.5 -59 c 128,-1,195
 1207 -59 1207 -59 1191 -82 c 1,196,-1
 1181 -186 l 2,197,198
 1181 -195 1181 -195 1228 -216.5 c 128,-1,199
 1275 -238 1275 -238 1330 -254 c 1,200,-1
 1328 -266 l 1,201,-1
 1183 -223 l 1,202,203
 1169 -223 1169 -223 1166 -230 c 128,-1,204
 1163 -237 1163 -237 1162 -238 c 2,205,-1
 1158 -311 l 1,206,-1
 1146 -309 l 1,207,208
 1145 -297 1145 -297 1145 -280.5 c 128,-1,209
 1145 -264 1145 -264 1144.5 -256.5 c 128,-1,210
 1144 -249 1144 -249 1142.5 -241 c 0,211,212
 1139.875 -227 1139.875 -227 1125.4375 -227 c 128,-1,213
 1111 -227 1111 -227 1058 -242 c 1,214,-1
 1056 -233 l 1,215,216
 1116.97142857 -216.371428571 1116.97142857 -216.371428571 1121.98571429 -209.685714286 c 128,-1,217
 1127 -203 1127 -203 1127 -197 c 1,218,-1
 1142 -119 l 1,219,220
 1142 -89 1142 -89 1089.5 -59 c 128,-1,221
 1037 -29 1037 -29 1011 -29 c 0,222,223
 990 -29 990 -29 959 -90 c 1,224,-1
 939 -80 l 1,225,226
 944 -64 944 -64 953 -44 c 128,-1,227
 962 -24 962 -24 963 -18 c 1,228,229
 956.547038328 -34.1324041812 956.547038328 -34.1324041812 854.273519164 -41.0662020906 c 128,-1,230
 752 -48 752 -48 734 -51 c 1,231,232
 722 -66 722 -66 701 -66 c 128,-1,233
 680 -66 680 -66 630.5 -42.5 c 128,-1,234
 581 -19 581 -19 566 -14 c 1,235,236
 544.147751606 -39.2141327623 544.147751606 -39.2141327623 515.573875803 -40.1070663812 c 0,237,238
 460.161290323 -41.8387096774 460.161290323 -41.8387096774 396 -106 c 1,239,-1
 384 -92 l 1,240,241
 386 -88 386 -88 402.5 -70 c 128,-1,242
 419 -52 419 -52 429.5 -29.5 c 128,-1,243
 440 -7 440 -7 440 6 c 0,244,245
 440 41 440 41 462 63 c 1,246,-1
 466 82 l 1,247,-1
 470 104 l 1,248,249
 445.449438202 213.65917603 445.449438202 213.65917603 436.224719101 364.329588015 c 128,-1,250
 427 515 427 515 423 559 c 1,0,1
1117 1534 m 1,251,-1
 1133 1518 l 1,252,253
 1158 1530 1158 1530 1197 1530 c 1,254,-1
 1117 1534 l 1,251,-1
273 1464 m 1,255,-1
 275 1462 l 1,256,-1
 273 1464 l 1,255,-1
EndSplineSet
EndChar

StartChar: f
Encoding: 102 102 30
Width: 1336
Flags: HMW
LayerCount: 2
Fore
SplineSet
784 1159 m 1,0,1
 776.697674419 1188.20930233 776.697674419 1188.20930233 764.348837209 1208.10465116 c 128,-1,2
 752 1228 752 1228 711 1276 c 1,3,-1
 717 1282 l 1,4,5
 791.464802314 1193.74541948 791.464802314 1193.74541948 837 1183.5 c 0,6,7
 861.444444444 1178 861.444444444 1178 895.222222222 1178 c 128,-1,8
 929 1178 929 1178 987 1231 c 1,9,-1
 997 1219 l 1,10,11
 959 1182 959 1182 948.5 1164 c 128,-1,12
 938 1146 938 1146 938 1126 c 2,13,-1
 938 825 l 2,14,15
 938 804 938 804 925.5 765 c 128,-1,16
 913 726 913 726 913 708.166666667 c 128,-1,17
 913 690.333333333 913 690.333333333 973 647 c 1,18,-1
 962 633 l 1,19,20
 914 670 914 670 893 670 c 0,21,22
 848 670 848 670 848 575 c 0,23,24
 848 530.88 848 530.88 932 504 c 1,25,-1
 926 485 l 1,26,27
 880 502 880 502 858.5 502 c 128,-1,28
 837 502 837 502 828 496.5 c 0,29,30
 804.1275 481.91125 804.1275 481.91125 778 383 c 1,31,-1
 768 387 l 1,32,33
 784 444 784 444 784 472.5 c 128,-1,34
 784 501 784 501 757 543.5 c 128,-1,35
 730 586 730 586 705.5 586 c 128,-1,36
 681 586 681 586 641 571 c 1,37,-1
 633 596 l 1,38,39
 681 613 681 613 693.5 627 c 128,-1,40
 706 641 706 641 706 664 c 2,41,-1
 706 715 l 2,42,43
 706 745 706 745 676 745 c 2,44,-1
 561 745 l 2,45,46
 530 745 530 745 530 715 c 2,47,-1
 530 369 l 2,48,49
 530 310.255319149 530 310.255319149 589.5 290 c 0,50,51
 662.300699301 265.216783217 662.300699301 265.216783217 681.65034965 241.108391608 c 128,-1,52
 701 217 701 217 720 206.5 c 128,-1,53
 739 196 739 196 790 178 c 1,54,-1
 786 166 l 1,55,56
 721 188 721 188 696 188 c 1,57,-1
 629 176 l 1,58,59
 623 176 623 176 618 178 c 1,60,-1
 530 188 l 1,61,62
 375.022222222 188 375.022222222 188 271.5 149.5 c 0,63,64
 211 127 211 127 211 94 c 0,65,66
 211 74 211 74 237 25 c 1,67,-1
 225 18 l 1,68,69
 195 74 195 74 182 80 c 1,70,71
 143 69 143 69 143 35 c 1,72,-1
 117 37 l 1,73,74
 216 173 216 173 311 229 c 1,75,76
 315 237 315 237 315 242 c 2,77,-1
 315 457 l 2,78,79
 315 662 315 662 289 662 c 0,80,81
 272 662 272 662 237 653 c 1,82,-1
 231 682 l 1,83,84
 275 693 275 693 288 704 c 128,-1,85
 301 715 301 715 301 733 c 1,86,-1
 293 836 l 1,87,-1
 276 1356 l 2,88,89
 276 1381 276 1381 250 1384 c 1,90,-1
 194 1399 l 2,91,92
 190 1401 190 1401 182 1401 c 0,93,94
 160 1401 160 1401 125 1343 c 1,95,-1
 108 1354 l 1,96,97
 137 1398 137 1398 137 1419 c 0,98,99
 137 1464 137 1464 57 1464 c 0,100,101
 42 1464 42 1464 -43 1432 c 1,102,-1
 -45 1438 l 1,103,104
 23.8416993654 1463.03334522 23.8416993654 1463.03334522 29.4208496827 1469.65738616 c 128,-1,105
 35 1476.2814271 35 1476.2814271 35 1487.14071355 c 128,-1,106
 35 1498 35 1498 6 1546 c 1,107,-1
 27 1561 l 1,108,109
 61 1507 61 1507 82 1507 c 0,110,111
 99.3333333333 1507 99.3333333333 1507 133.166666667 1532 c 128,-1,112
 167 1557 167 1557 176.5 1574.5 c 128,-1,113
 186 1592 186 1592 201 1642 c 1,114,-1
 213 1638 l 1,115,116
 199 1583 199 1583 199 1562 c 128,-1,117
 199 1541 199 1541 210 1527 c 128,-1,118
 221 1513 221 1513 242 1507 c 128,-1,119
 263 1501 263 1501 281 1499 c 128,-1,120
 299 1497 299 1497 327 1496.5 c 128,-1,121
 355 1496 355 1496 367 1495 c 2,122,-1
 680 1483 l 1,123,124
 717 1483 717 1483 789 1495.5 c 128,-1,125
 861 1508 861 1508 868 1516 c 1,126,-1
 885 1532 l 2,127,128
 901 1548 901 1548 901 1566 c 128,-1,129
 901 1584 901 1584 870 1626 c 1,130,-1
 893 1642 l 1,131,132
 924 1591 924 1591 945 1591 c 128,-1,133
 966 1591 966 1591 984.5 1602.5 c 128,-1,134
 1003 1614 1003 1614 1008 1626 c 1,135,-1
 950 1612 l 1,136,137
 974 1619 974 1619 1010 1634 c 1,138,139
 1010 1662 1010 1662 995 1698 c 1,140,-1
 1026 1708 l 1,141,142
 1040 1667 1040 1667 1053 1653 c 1,143,144
 1139 1694 1139 1694 1175 1743 c 1,145,-1
 1239 1698 l 1,146,147
 1213 1661 1213 1661 1198.5 1602.5 c 128,-1,148
 1184 1544 1184 1544 1184 1497 c 1,149,-1
 1188 1434 l 1,150,-1
 1188 1227 l 2,151,152
 1188 1207 1188 1207 1198.5 1189 c 128,-1,153
 1209 1171 1209 1171 1245 1133 c 1,154,-1
 1235 1122 l 1,155,156
 1198 1159 1198 1159 1179.5 1169.5 c 128,-1,157
 1161 1180 1161 1180 1141 1180 c 2,158,-1
 1085 1180 l 2,159,160
 1064 1180 1064 1180 1050 1168 c 128,-1,161
 1036 1156 1036 1156 1012 1110 c 1,162,-1
 993 1120 l 1,163,164
 1022 1171 1022 1171 1022 1186 c 128,-1,165
 1022 1201 1022 1201 1014 1219 c 1,166,-1
 915 1374 l 1,167,168
 908 1381 908 1381 899 1384 c 1,169,-1
 846 1395 l 1,170,-1
 571 1382 l 2,171,172
 559 1382 559 1382 544.5 1360.5 c 128,-1,173
 530 1339 530 1339 530 1329 c 2,174,-1
 530 1266 l 1,175,176
 532 1178 532 1178 532 1104 c 1,177,178
 537 1098 537 1098 538.5 1052.5 c 0,179,180
 542.67032967 926 542.67032967 926 573 926 c 2,181,-1
 706 926 l 2,182,183
 760 926 760 926 760 1038 c 2,184,-1
 760 1079 l 1,185,-1
 784 1159 l 1,0,1
950 1612 m 2,186,187
 938 1608 938 1608 934 1608 c 2,188,-1
 950 1612 l 2,186,187
EndSplineSet
EndChar

StartChar: g
Encoding: 103 103 31
Width: 1547
Flags: HMW
LayerCount: 2
Fore
SplineSet
844 127 m 1,0,1
 783.793650794 127 783.793650794 127 777 20 c 1,2,-1
 760 23 l 1,3,4
 762 39 762 39 762 64 c 128,-1,5
 762 89 762 89 754 106 c 128,-1,6
 746 123 746 123 736 123 c 1,7,-1
 678 16 l 1,8,9
 696 59 696 59 699 90 c 1,10,11
 699 121 699 121 670 141 c 1,12,-1
 662 141 l 1,13,14
 650 137 650 137 645 131 c 2,15,-1
 631 111 l 1,16,17
 615 90 615 90 615 65 c 128,-1,18
 615 40 615 40 621 2 c 1,19,-1
 604 0 l 1,20,21
 593.198275862 80.2413793103 593.198275862 80.2413793103 566 102 c 0,22,23
 427 217 427 217 365 217 c 0,24,25
 334 217 334 217 295 168 c 1,26,-1
 273 188 l 1,27,28
 308 232 308 232 308 251 c 128,-1,29
 308 270 308 270 292 299.5 c 128,-1,30
 276 329 276 329 275.5 341 c 128,-1,31
 275 353 275 353 241.5 385 c 128,-1,32
 208 417 208 417 201.5 430.5 c 128,-1,33
 195 444 195 444 183.5 444 c 128,-1,34
 172 444 172 444 107 420 c 1,35,-1
 97 451 l 1,36,37
 187 490 187 490 187 496 c 0,38,39
 187 537 187 537 143 619 c 128,-1,40
 99 701 99 701 99 756 c 2,41,-1
 99 1049 l 2,42,43
 99 1118 99 1118 135.5 1252 c 128,-1,44
 172 1386 172 1386 172 1454 c 0,45,46
 172 1469 172 1469 159.5 1481 c 128,-1,47
 147 1493 147 1493 105 1511 c 1,48,-1
 113 1530 l 1,49,50
 158 1511 158 1511 178 1511 c 128,-1,51
 198 1511 198 1511 236 1560 c 128,-1,52
 274 1609 274 1609 301 1656 c 128,-1,53
 328 1703 328 1703 328 1706 c 0,54,55
 328 1729 328 1729 303 1778 c 1,56,-1
 322 1788 l 1,57,58
 345 1741 345 1741 358.5 1728.5 c 128,-1,59
 372 1716 372 1716 391 1716 c 2,60,-1
 443 1716 l 2,61,62
 459 1716 459 1716 470.5 1729 c 128,-1,63
 482 1742 482 1742 482 1763 c 128,-1,64
 482 1784 482 1784 471 1817 c 1,65,-1
 492 1823 l 1,66,67
 506 1773 506 1773 517 1761 c 128,-1,68
 528 1749 528 1749 549 1749 c 2,69,-1
 693 1749 l 2,70,71
 713 1749 713 1749 722.5 1752.5 c 0,72,73
 745.317757009 1760.90654206 745.317757009 1760.90654206 756 1825 c 1,74,-1
 791 1819 l 1,75,76
 787 1800 787 1800 787 1776 c 0,77,78
 787 1718 787 1718 871 1718 c 0,79,80
 883 1718 883 1718 892 1731 c 128,-1,81
 901 1744 901 1744 916 1786 c 1,82,-1
 932 1782 l 1,83,84
 916 1738 916 1738 916 1720.5 c 128,-1,85
 916 1703 916 1703 932 1693 c 128,-1,86
 948 1683 948 1683 975 1672.5 c 128,-1,87
 1002 1662 1002 1662 1032.5 1647 c 0,88,89
 1109.89250814 1608.93811075 1109.89250814 1608.93811075 1155 1530 c 1,90,91
 1167 1516 1167 1516 1180 1516 c 2,92,-1
 1297 1516 l 2,93,94
 1316 1516 1316 1516 1328.5 1528 c 128,-1,95
 1341 1540 1341 1540 1362 1587 c 1,96,-1
 1381 1579 l 1,97,98
 1358 1529 1358 1529 1358 1510.5 c 128,-1,99
 1358 1492 1358 1492 1375 1479 c 1,100,101
 1388 1464 1388 1464 1407 1464 c 128,-1,102
 1426 1464 1426 1464 1469 1481 c 1,103,-1
 1477 1462 l 1,104,105
 1414.94581281 1438.27339901 1414.94581281 1438.27339901 1408.4729064 1426.13669951 c 128,-1,106
 1402 1414 1402 1414 1401 1401 c 2,107,-1
 1395 1180 l 2,108,109
 1395 1149 1395 1149 1450 1094 c 1,110,-1
 1438 1081 l 1,111,112
 1402 1119 1402 1119 1384 1130 c 128,-1,113
 1366 1141 1366 1141 1346 1141 c 2,114,-1
 1342 1141 l 1,115,116
 1340 1137 1340 1137 1340 1120.5 c 128,-1,117
 1340 1104 1340 1104 1387 1067 c 1,118,-1
 1368 1042 l 1,119,120
 1326 1077 1326 1077 1305 1077 c 1,121,122
 1281.78947368 1020.63157895 1281.78947368 1020.63157895 1266.39473684 1008.31578947 c 128,-1,123
 1251 996 1251 996 1250 995 c 1,124,-1
 1223 1030 l 1,125,-1
 1206 1066 l 2,126,127
 1184 1112 1184 1112 1184 1136.5 c 128,-1,128
 1184 1161 1184 1161 1181 1185.5 c 128,-1,129
 1178 1210 1178 1210 1164 1245.5 c 128,-1,130
 1150 1281 1150 1281 1127 1296 c 1,131,132
 1086.2 1336.8 1086.2 1336.8 1067 1368 c 1,133,134
 1043 1362 1043 1362 1001.5 1362 c 128,-1,135
 960 1362 960 1362 924 1366 c 1,136,-1
 971 1366 l 2,137,138
 985 1366 985 1366 994.5 1374 c 128,-1,139
 1004 1382 1004 1382 1004 1401 c 128,-1,140
 1004 1420 1004 1420 963 1456.5 c 128,-1,141
 922 1493 922 1493 903 1493 c 1,142,-1
 750 1505 l 1,143,144
 682.258064516 1505 682.258064516 1505 630 1464.5 c 0,145,146
 574.755244755 1421.68531469 574.755244755 1421.68531469 551.877622378 1416.84265734 c 128,-1,147
 529 1412 529 1412 522.5 1397.5 c 128,-1,148
 516 1383 516 1383 488.5 1321 c 0,149,150
 422 1171.07272727 422 1171.07272727 422 1167 c 2,151,-1
 422 756 l 2,152,153
 422 655 422 655 487 564 c 0,154,155
 575.421052632 440.210526316 575.421052632 440.210526316 596 393 c 0,156,157
 601 381 601 381 659.5 369.5 c 128,-1,158
 718 358 718 358 746.394736842 358 c 128,-1,159
 774.789473684 358 774.789473684 358 813 424 c 1,160,-1
 834 412 l 1,161,162
 805 364 805 364 805 348.5 c 128,-1,163
 805 333 805 333 817 315 c 1,164,-1
 830 299 l 1,165,-1
 817 276 l 1,166,167
 864 323 864 323 923.5 452 c 128,-1,168
 983 581 983 581 983 668 c 0,169,170
 983 705 983 705 897 705 c 0,171,172
 869 705 869 705 809 655 c 1,173,-1
 799 666 l 1,174,175
 839 701 839 701 851 717 c 128,-1,176
 863 733 863 733 865 750 c 1,177,-1
 865 752 l 2,178,179
 865 851 865 851 853 915.5 c 128,-1,180
 841 980 841 980 793 1071 c 1,181,-1
 799 1075 l 1,182,183
 856.649712879 967.387202625 856.649712879 967.387202625 923 936.5 c 0,184,185
 952 923 952 923 979.5 915 c 0,186,187
 1053.75273088 893.399205561 1053.75273088 893.399205561 1090 854 c 1,188,189
 1106 860 1106 860 1147 860 c 0,190,191
 1393 860 1393 860 1393 756 c 0,192,193
 1393 659.222222222 1393 659.222222222 1419.5 644.5 c 0,194,195
 1433 637 1433 637 1485 637 c 1,196,-1
 1485 616 l 1,197,198
 1433 616 1433 616 1419.5 610.5 c 128,-1,199
 1406 605 1406 605 1401 588 c 1,200,-1
 1401 578 l 2,201,202
 1401 553 1401 553 1444 500 c 1,203,-1
 1432 489 l 1,204,205
 1401 530 1401 530 1385 541.5 c 128,-1,206
 1369 553 1369 553 1352 553 c 2,207,-1
 1262 553 l 2,208,209
 1233.23076923 553 1233.23076923 553 1231 524 c 0,210,211
 1223 435 1223 435 1177 310 c 128,-1,212
 1131 185 1131 185 1084 125 c 1,213,-1
 1082 133 l 1,214,215
 1082 110 1082 110 1090 90.5 c 128,-1,216
 1098 71 1098 71 1131 23 c 1,217,-1
 1123 16 l 1,218,219
 1078 84 1078 84 1037.5 104.5 c 128,-1,220
 997 125 997 125 944 125 c 2,221,-1
 885 125 l 1,222,-1
 844 127 l 1,0,1
678 16 m 1,223,-1
 672 6 l 1,224,-1
 678 16 l 1,223,-1
EndSplineSet
EndChar

StartChar: h
Encoding: 104 104 32
Width: 1561
Flags: HMW
LayerCount: 2
Fore
SplineSet
1074 1540 m 1,0,1
 1092 1549 1092 1549 1092 1595 c 2,2,-1
 1092 1636 l 1,3,-1
 1109 1636 l 1,4,5
 1110.7 1607.1 1110.7 1607.1 1112.85 1592.05 c 128,-1,6
 1115 1577 1115 1577 1115.5 1572 c 128,-1,7
 1116 1567 1116 1567 1119 1561.5 c 128,-1,8
 1122 1556 1122 1556 1122.5 1554 c 128,-1,9
 1123 1552 1123 1552 1128.5 1549.5 c 128,-1,10
 1134 1547 1134 1547 1135.5 1546.5 c 128,-1,11
 1137 1546 1137 1546 1145 1544.5 c 128,-1,12
 1153 1543 1153 1543 1155.5 1541.5 c 128,-1,13
 1158 1540 1158 1540 1174 1541 c 128,-1,14
 1190 1542 1190 1542 1243 1562 c 128,-1,15
 1296 1582 1296 1582 1318 1596.5 c 128,-1,16
 1340 1611 1340 1611 1346 1629 c 128,-1,17
 1352 1647 1352 1647 1358 1704 c 1,18,-1
 1373 1702 l 1,19,20
 1369 1671 1369 1671 1369 1639.5 c 128,-1,21
 1369 1608 1369 1608 1378.5 1596.5 c 128,-1,22
 1388 1585 1388 1585 1412 1585 c 128,-1,23
 1436 1585 1436 1585 1481 1591 c 1,24,-1
 1485 1575 l 1,25,26
 1430 1568 1430 1568 1412.5 1560.5 c 128,-1,27
 1395 1553 1395 1553 1387 1538 c 1,28,-1
 1373 1503 l 2,29,30
 1369 1491 1369 1491 1369 1485 c 0,31,32
 1369 1458 1369 1458 1422 1415 c 1,33,-1
 1406 1395 l 1,34,35
 1351 1440 1351 1440 1335.5 1440 c 128,-1,36
 1320 1440 1320 1440 1301 1423 c 1,37,38
 1289 1418 1289 1418 1289 1410.5 c 128,-1,39
 1289 1403 1289 1403 1309.5 1378.5 c 128,-1,40
 1330 1354 1330 1354 1341 1270 c 128,-1,41
 1352 1186 1352 1186 1352 1126 c 1,42,-1
 1342 668 l 1,43,44
 1340 651 1340 651 1338 622.5 c 128,-1,45
 1336 594 1336 594 1334 581.5 c 128,-1,46
 1332 569 1332 569 1326.5 550.5 c 0,47,48
 1316.79476861 517.855130785 1316.79476861 517.855130785 1293.39738431 500.927565392 c 128,-1,49
 1270 484 1270 484 1270 469 c 2,50,-1
 1270 324 l 2,51,52
 1270 315 1270 315 1316 275.5 c 128,-1,53
 1362 236 1362 236 1367 236 c 1,54,-1
 1397 229 l 1,55,56
 1416 229 1416 229 1485 274 c 1,57,-1
 1492 262 l 1,58,59
 1445 232 1445 232 1431 218.5 c 128,-1,60
 1417 205 1417 205 1414 190 c 1,61,-1
 1414 186 l 1,62,63
 1410 182 1410 182 1410 174.5 c 0,64,65
 1410 161.666666667 1410 161.666666667 1475 115 c 1,66,-1
 1467 100 l 1,67,68
 1416 137 1416 137 1400.5 137 c 128,-1,69
 1385 137 1385 137 1377 133 c 1,70,-1
 1352 115 l 1,71,72
 1340 108 1340 108 1340 84 c 1,73,-1
 1342 59 l 1,74,-1
 1344 -12 l 1,75,-1
 1309 -12 l 1,76,-1
 1309 72 l 2,77,78
 1309 105 1309 105 1241 118.5 c 128,-1,79
 1173 132 1173 132 1082 138 c 128,-1,80
 991 144 991 144 963 154.5 c 128,-1,81
 935 165 935 165 882 195.5 c 128,-1,82
 829 226 829 226 799 236 c 1,83,-1
 807 311 l 1,84,85
 834 322 834 322 898 322 c 2,86,-1
 953 322 l 2,87,88
 988 322 988 322 988 354 c 1,89,-1
 1023 731 l 1,90,91
 1023 756.125 1023 756.125 1006.5 759.5625 c 0,92,93
 985.2 764 985.2 764 939.6 764 c 128,-1,94
 894 764 894 764 861.5 758.5 c 128,-1,95
 829 753 829 753 820.5 736 c 128,-1,96
 812 719 812 719 812 664 c 1,97,-1
 787 664 l 1,98,99
 787 719 787 719 779 736 c 128,-1,100
 771 753 771 753 743 757.5 c 128,-1,101
 715 762 715 762 623 762 c 128,-1,102
 531 762 531 762 527 727 c 1,103,-1
 515 410 l 2,104,105
 513 383 513 383 537 347 c 128,-1,106
 561 311 561 311 586 311 c 0,107,108
 619 311 619 311 619 381 c 2,109,-1
 619 408 l 1,110,-1
 633 408 l 1,111,112
 634.796226415 337.947169811 634.796226415 337.947169811 640.898113208 330.973584906 c 128,-1,113
 647 324 647 324 656 322 c 2,114,-1
 678 315 l 2,115,116
 683 313 683 313 696.5 313 c 128,-1,117
 710 313 710 313 785 344 c 1,118,-1
 789 334 l 1,119,120
 714 303 714 303 693 276 c 1,121,-1
 689 266 l 1,122,123
 678 251 678 251 678 240 c 1,124,-1
 695 248 l 1,125,-1
 691 233 l 1,126,127
 683 233 683 233 678 231 c 1,128,129
 683 205 683 205 717 162 c 1,130,-1
 697 145 l 1,131,132
 652 207 652 207 625 207 c 0,133,134
 579 207 579 207 456 147.5 c 128,-1,135
 333 88 333 88 321.5 83.5 c 128,-1,136
 310 79 310 79 303.5 73.5 c 0,137,138
 286.484444444 59.1022222222 286.484444444 59.1022222222 279 -12 c 1,139,-1
 259 -10 l 1,140,141
 261 12 261 12 261 47 c 128,-1,142
 261 82 261 82 246 82 c 128,-1,143
 231 82 231 82 220 70.5 c 128,-1,144
 209 59 209 59 209 43 c 2,145,-1
 209 16 l 2,146,147
 209 -1 209 -1 196 -28.5 c 128,-1,148
 183 -56 183 -56 183 -115 c 2,149,-1
 183 -150 l 1,150,-1
 177 -150 l 1,151,152
 172.446969697 -58.9393939394 172.446969697 -58.9393939394 162 -47 c 1,153,-1
 158 -35 l 1,154,155
 150 -27 150 -27 132.5 -27 c 128,-1,156
 115 -27 115 -27 66 -37 c 1,157,-1
 64 -27 l 1,158,159
 133.203703704 -10.1666666667 133.203703704 -10.1666666667 139.101851852 -2.58333333333 c 128,-1,160
 145 5 145 5 145.5 10 c 128,-1,161
 146 15 146 15 165 69 c 128,-1,162
 184 123 184 123 183 125 c 2,163,-1
 146 188 l 1,164,165
 142 197 142 197 42 217 c 1,166,-1
 46 252 l 1,167,-1
 111 242 l 1,168,169
 146 242 146 242 182 269.5 c 128,-1,170
 218 297 218 297 218 311 c 2,171,-1
 218 653 l 2,172,173
 218 670 218 670 201.5 707 c 128,-1,174
 185 744 185 744 185 762 c 2,175,-1
 185 1073 l 2,176,177
 185 1083 185 1083 121 1116 c 1,178,-1
 134 1159 l 1,179,180
 165 1145 165 1145 178.5 1145 c 128,-1,181
 192 1145 192 1145 205 1158.5 c 128,-1,182
 218 1172 218 1172 218 1190 c 1,183,-1
 203 1366 l 2,184,185
 203 1372 203 1372 193 1382 c 2,186,-1
 115 1452 l 2,187,188
 94 1470 94 1470 56.5 1470 c 128,-1,189
 19 1470 19 1470 -4 1468 c 1,190,-1
 -4 1489 l 1,191,192
 82.104368932 1495.26213592 82.104368932 1495.26213592 109 1526 c 1,193,-1
 154 1587 l 2,194,195
 179 1622 179 1622 183 1708 c 1,196,-1
 195 1708 l 1,197,198
 193 1690 193 1690 193 1647 c 128,-1,199
 193 1604 193 1604 209 1583 c 1,200,201
 225 1571 225 1571 336 1556.5 c 128,-1,202
 447 1542 447 1542 480.5 1542 c 128,-1,203
 514 1542 514 1542 526.5 1555.5 c 128,-1,204
 539 1569 539 1569 564 1614 c 1,205,-1
 578 1606 l 1,206,207
 547 1550 547 1550 547 1526 c 0,208,209
 547 1477 547 1477 672 1477 c 0,210,211
 705 1477 705 1477 787 1511 c 1,212,-1
 791 1499 l 1,213,214
 717 1468 717 1468 693 1444 c 1,215,-1
 713 1448 l 1,216,-1
 701 1403 l 1,217,-1
 660 1405 l 1,218,219
 656 1401 656 1401 656 1397 c 0,220,221
 656 1359.48484848 656 1359.48484848 709 1284 c 1,222,-1
 697 1276 l 1,223,224
 662 1322 662 1322 644.5 1337.5 c 128,-1,225
 627 1353 627 1353 607 1358 c 1,226,-1
 574 1368 l 1,227,-1
 564 1368 l 2,228,229
 542 1368 542 1368 528.5 1337 c 128,-1,230
 515 1306 515 1306 515 1290 c 2,231,-1
 515 961 l 2,232,233
 515 926 515 926 547 926 c 2,234,-1
 713 926 l 2,235,236
 734 926 734 926 769 944.5 c 128,-1,237
 804 963 804 963 825.5 963 c 128,-1,238
 847 963 847 963 889.5 946.5 c 128,-1,239
 932 930 932 930 949.5 930 c 128,-1,240
 967 930 967 930 977.5 941 c 128,-1,241
 988 952 988 952 988 967 c 2,242,-1
 988 1323 l 2,243,244
 988 1362 988 1362 842 1389 c 1,245,-1
 814 1462 l 1,246,247
 837 1462 837 1462 857 1456 c 1,248,249
 870 1456 870 1456 878.5 1467 c 128,-1,250
 887 1478 887 1478 887 1499 c 128,-1,251
 887 1520 887 1520 877 1561 c 1,252,-1
 900 1567 l 1,253,254
 915 1513 915 1513 927 1500 c 128,-1,255
 939 1487 939 1487 963 1487 c 2,256,-1
 971 1487 l 2,257,258
 981 1487 981 1487 1012.5 1513.5 c 128,-1,259
 1044 1540 1044 1540 1074 1540 c 1,0,1
EndSplineSet
EndChar

StartChar: i
Encoding: 105 105 33
Width: 814
Flags: HMW
LayerCount: 2
Fore
SplineSet
481 84 m 1,0,-1
 478 98 l 1,1,2
 473 98 473 98 427 94 c 1,3,-1
 427 104 l 1,4,-1
 472 109 l 1,5,6
 457 131 457 131 433 131 c 2,7,-1
 323 131 l 2,8,9
 307 131 307 131 241 85.5 c 128,-1,10
 175 40 175 40 175 14 c 1,11,-1
 159 -45 l 1,12,-1
 130 -37 l 1,13,-1
 151 18 l 1,14,15
 151 63 151 63 236.5 177 c 0,16,17
 265 215 265 215 265 231 c 2,18,-1
 251 1425 l 2,19,20
 251 1442 251 1442 221.5 1457 c 128,-1,21
 192 1472 192 1472 188.5 1488.5 c 128,-1,22
 185 1505 185 1505 155.5 1517.5 c 128,-1,23
 126 1530 126 1530 112 1530 c 0,24,25
 109 1530 109 1530 40 1468 c 1,26,-1
 16 1501 l 1,27,28
 71 1558 71 1558 71 1565 c 0,29,30
 71 1591 71 1591 -31 1638 c 1,31,-1
 -29 1642 l 1,32,33
 42 1610 42 1610 69 1610 c 2,34,-1
 149 1610 l 2,35,36
 174 1610 174 1610 190.5 1623 c 128,-1,37
 207 1636 207 1636 227 1683 c 1,38,-1
 253 1673 l 1,39,40
 235 1626 235 1626 235 1600.5 c 128,-1,41
 235 1575 235 1575 267.5 1556.5 c 128,-1,42
 300 1538 300 1538 337 1538 c 2,43,-1
 487 1538 l 1,44,-1
 528 1595 l 1,45,-1
 542 1581 l 1,46,47
 548 1587 548 1587 548 1604.5 c 128,-1,48
 548 1622 548 1622 524 1671 c 1,49,-1
 544 1681 l 1,50,51
 567 1634 567 1634 580 1622 c 128,-1,52
 593 1610 593 1610 614 1610 c 2,53,-1
 653 1610 l 2,54,55
 661 1610 661 1610 694.5 1645.5 c 128,-1,56
 728 1681 728 1681 728 1693.5 c 128,-1,57
 728 1706 728 1706 712 1755 c 1,58,-1
 722 1759 l 1,59,60
 738 1711 738 1711 745.5 1699.5 c 128,-1,61
 753 1688 753 1688 763 1688 c 2,62,-1
 769 1688 l 2,63,64
 789 1688 789 1688 861 1716 c 1,65,-1
 863 1712 l 1,66,67
 797 1687 797 1687 775 1671 c 1,68,-1
 749 1647 l 1,69,70
 741 1638 741 1638 740.5 1619 c 128,-1,71
 740 1600 740 1600 734 1582.5 c 128,-1,72
 728 1565 728 1565 716 1557 c 0,73,74
 697.142857143 1544.42857143 697.142857143 1544.42857143 677.071428571 1540.71428571 c 128,-1,75
 657 1537 657 1537 620.5 1525.5 c 128,-1,76
 584 1514 584 1514 573 1511 c 1,77,-1
 579 1442 l 1,78,-1
 579 1415 l 2,79,80
 579 1404 579 1404 673 1401 c 1,81,-1
 669 1382 l 1,82,83
 655 1381 655 1381 638 1381 c 2,84,-1
 614 1381 l 2,85,86
 587.692307692 1381 587.692307692 1381 582.846153846 1370.5 c 0,87,88
 577 1357.83333333 577 1357.83333333 577 1329 c 1,89,-1
 591 1016 l 1,90,91
 591 917 591 917 580 725 c 128,-1,92
 569 533 569 533 568 484.5 c 128,-1,93
 567 436 567 436 578 421 c 128,-1,94
 589 406 589 406 632 377 c 1,95,-1
 622 360 l 1,96,97
 569 395 569 395 540 395 c 128,-1,98
 511 395 511 395 511 367 c 2,99,-1
 511 279 l 2,100,101
 511 251.87755102 511 251.87755102 576.5 234.5 c 128,-1,102
 642 217.12244898 642 217.12244898 642 188 c 1,103,-1
 640 180 l 1,104,105
 640 171 640 171 655 143 c 128,-1,106
 670 115 670 115 673 106 c 0,107,108
 685 63 685 63 739 10 c 1,109,-1
 730 0 l 1,110,111
 669 64 669 64 634 72 c 1,112,-1
 632 72 l 1,113,-1
 626 74 l 1,114,115
 585 74 585 74 585 -25 c 1,116,-1
 560 -23 l 1,117,118
 560 16 560 16 544 52 c 128,-1,119
 528 88 528 88 495 96 c 1,120,-1
 474 59 l 1,121,122
 481 75 481 75 481 84 c 1,0,-1
EndSplineSet
EndChar

StartChar: j
Encoding: 106 106 34
Width: 1051
Flags: HMW
LayerCount: 2
Fore
SplineSet
359 1597 m 2,0,-1
 32 1622 l 1,1,2
 -4 1622 -4 1622 -79 1575 c 1,3,-1
 -87 1587 l 1,4,5
 -15.4901960784 1639.78104575 -15.4901960784 1639.78104575 -5 1673 c 2,6,-1
 5 1702 l 2,7,8
 7 1706 7 1706 7 1714 c 0,9,10
 7 1734 7 1734 -54 1763 c 1,11,-1
 -44 1780 l 1,12,13
 1 1757 1 1757 16 1757 c 128,-1,14
 31 1757 31 1757 42.5 1774.5 c 128,-1,15
 54 1792 54 1792 54 1810.5 c 128,-1,16
 54 1829 54 1829 24 1882 c 1,17,-1
 40 1890 l 1,18,19
 65 1845 65 1845 79.5 1834 c 128,-1,20
 94 1823 94 1823 114 1823 c 2,21,-1
 300 1823 l 2,22,23
 328 1823 328 1823 342.5 1836 c 128,-1,24
 357 1849 357 1849 370 1898 c 1,25,-1
 402 1890 l 1,26,27
 402 1805 402 1805 426 1791 c 0,28,29
 438 1784 438 1784 451 1783.5 c 0,30,31
 495.327868852 1781.79508197 495.327868852 1781.79508197 519 1767 c 1,32,-1
 562 1772 l 1,33,34
 573 1772 573 1772 581 1780 c 0,35,36
 609 1812 609 1812 671 1828 c 128,-1,37
 733 1844 733 1844 771 1845.5 c 128,-1,38
 809 1847 809 1847 873 1847 c 2,39,-1
 1119 1847 l 2,40,41
 1153 1847 1153 1847 1230 1890 c 1,42,-1
 1236 1878 l 1,43,44
 1150.0952381 1829.19047619 1150.0952381 1829.19047619 1134 1797 c 0,45,46
 1118.07692308 1765.15384615 1118.07692308 1765.15384615 1099.03846154 1755.57692308 c 128,-1,47
 1080 1746 1080 1746 1078 1741 c 2,48,-1
 1066 1722 l 1,49,50
 1058 1702 1058 1702 1058 1685.5 c 128,-1,51
 1058 1669 1058 1669 1093 1624 c 1,52,-1
 1072 1612 l 1,53,54
 1032 1667 1032 1667 1002.5 1667 c 128,-1,55
 973 1667 973 1667 942.5 1649 c 128,-1,56
 912 1631 912 1631 912 1616 c 128,-1,57
 912 1601 912 1601 921 1552 c 1,58,-1
 904 1548 l 1,59,60
 889.447368421 1613.48684211 889.447368421 1613.48684211 881.223684211 1619.24342105 c 128,-1,61
 873 1625 873 1625 863 1626 c 1,62,-1
 861 1626 l 2,63,64
 789.842105263 1626 789.842105263 1626 774.921052632 1612.5 c 128,-1,65
 760 1599 760 1599 755 1583 c 1,66,-1
 755 1350 l 1,67,68
 757 1331 757 1331 763 1331 c 1,69,70
 785 1309 785 1309 802.5 1309 c 128,-1,71
 820 1309 820 1309 869 1329 c 1,72,-1
 878 1309 l 1,73,74
 829 1287 829 1287 817.5 1275.5 c 128,-1,75
 806 1264 806 1264 806 1243 c 2,76,-1
 806 1184 l 2,77,78
 806 1167 806 1167 809.5 1158.5 c 0,79,80
 817.93442623 1138.01639344 817.93442623 1138.01639344 882 1122 c 1,81,-1
 873 1096 l 1,82,83
 844 1104 844 1104 818.5 1104 c 0,84,85
 771 1104 771 1104 771 981 c 1,86,-1
 775 559 l 2,87,88
 775 473 775 473 763 451 c 128,-1,89
 751 429 751 429 744 422 c 128,-1,90
 737 415 737 415 732.5 412 c 128,-1,91
 728 409 728 409 728 408 c 1,92,93
 765 408 765 408 839 446 c 1,94,-1
 843 436 l 1,95,96
 783 406 783 406 769.5 392.5 c 128,-1,97
 756 379 756 379 750 374.5 c 128,-1,98
 744 370 744 370 740 361.5 c 128,-1,99
 736 353 736 353 734 350 c 0,100,101
 730 344 730 344 730 330.75 c 2,102,-1
 730 307 l 1,103,-1
 740 205 l 1,104,-1
 736 166 l 1,105,106
 736 142 736 142 796 100 c 1,107,-1
 785 86 l 1,108,109
 730 125 730 125 708 125 c 128,-1,110
 686 125 686 125 648.5 79 c 128,-1,111
 611 33 611 33 611 12 c 128,-1,112
 611 -9 611 -9 658 -57 c 1,113,-1
 646 -72 l 1,114,115
 599 -25 599 -25 572.5 -25 c 128,-1,116
 546 -25 546 -25 526.5 -58.5 c 128,-1,117
 507 -92 507 -92 507 -125.5 c 128,-1,118
 507 -159 507 -159 556 -213 c 1,119,-1
 538 -227 l 1,120,121
 484.057142857 -168 484.057142857 -168 445 -168 c 2,122,-1
 437 -168 l 1,123,-1
 368 -162 l 1,124,125
 366 -164 366 -164 364 -164 c 2,126,-1
 359 -164 l 1,127,128
 344 -167 344 -167 332 -182 c 128,-1,129
 320 -197 320 -197 300 -244 c 1,130,-1
 286 -238 l 1,131,132
 308 -182 308 -182 308 -166.5 c 128,-1,133
 308 -151 308 -151 289.5 -98 c 128,-1,134
 271 -45 271 -45 270 -20.5 c 128,-1,135
 269 4 269 4 256.5 15.5 c 128,-1,136
 244 27 244 27 196 47 c 1,137,-1
 204 63 l 1,138,139
 255 41 255 41 276.5 41 c 128,-1,140
 298 41 298 41 320.5 76 c 128,-1,141
 343 111 343 111 343 133.5 c 128,-1,142
 343 156 343 156 308 209 c 1,143,-1
 325 221 l 1,144,145
 354 178 354 178 370 166 c 128,-1,146
 386 154 386 154 407 154 c 2,147,-1
 480 154 l 2,148,149
 504.636363636 154 504.636363636 154 509 178 c 2,150,-1
 517 227 l 1,151,-1
 515 242 l 1,152,-1
 529 307 l 1,153,-1
 529 369 l 2,154,155
 529 375 529 375 525 383 c 1,156,157
 499 421 499 421 499 460 c 128,-1,158
 499 499 499 499 505 547 c 0,159,160
 505 553 505 553 478.5 598 c 128,-1,161
 452 643 452 643 445 666 c 1,162,163
 442 686 442 686 421 686 c 128,-1,164
 400 686 400 686 364 680 c 1,165,-1
 361 698 l 1,166,167
 424.555555556 708.592592593 424.555555556 708.592592593 429.777777778 717.296296296 c 128,-1,168
 435 726 435 726 435 735 c 2,169,-1
 435 807 l 2,170,171
 435 934 435 934 419 950 c 1,172,173
 388 1011 388 1011 388 1372 c 1,174,-1
 390 1569 l 2,175,176
 390 1581 390 1581 381 1589 c 128,-1,177
 372 1597 372 1597 359 1597 c 2,0,-1
EndSplineSet
EndChar

StartChar: k
Encoding: 107 107 35
Width: 1343
Flags: HMW
LayerCount: 2
Fore
SplineSet
415 367 m 2,0,-1
 394 643 l 2,1,2
 394 649 394 649 390 657 c 1,3,-1
 376 678 l 2,4,5
 375 679 375 679 372 682.5 c 128,-1,6
 369 686 369 686 368 687 c 0,7,8
 359 696 359 696 342.5 696 c 128,-1,9
 326 696 326 696 285 680 c 1,10,-1
 277 700 l 1,11,12
 319 716 319 716 332 727 c 128,-1,13
 345 738 345 738 345 754 c 1,14,-1
 329 868 l 1,15,16
 318 874 318 874 308 874 c 128,-1,17
 298 874 298 874 220 842 c 1,18,-1
 212 860 l 1,19,20
 304 904 304 904 304 909 c 0,21,22
 304 968 304 968 282.5 1083.5 c 128,-1,23
 261 1199 261 1199 260 1231.5 c 128,-1,24
 259 1264 259 1264 251 1272 c 1,25,-1
 249 1272 l 1,26,27
 229 1290 229 1290 196 1290 c 128,-1,28
 163 1290 163 1290 144 1288 c 1,29,-1
 142 1305 l 1,30,31
 193 1310 193 1310 211 1318.5 c 128,-1,32
 229 1327 229 1327 240 1343 c 2,33,-1
 255 1364 l 1,34,35
 259 1372 259 1372 259 1378 c 2,36,-1
 259 1427 l 1,37,38
 237 1411 237 1411 226 1360 c 1,39,-1
 179 1370 l 1,40,41
 183 1398 183 1398 183 1418.5 c 128,-1,42
 183 1439 183 1439 160.5 1456.5 c 128,-1,43
 138 1474 138 1474 110.5 1477.5 c 0,44,45
 35.9610894942 1486.98677043 35.9610894942 1486.98677043 27 1530 c 0,46,47
 23 1549 23 1549 4.5 1552.5 c 128,-1,48
 -14 1556 -14 1556 -81 1556 c 1,49,-1
 -81 1565 l 1,50,51
 -20 1565 -20 1565 -3.5 1568.5 c 128,-1,52
 13 1572 13 1572 38.5 1586.5 c 128,-1,53
 64 1601 64 1601 64 1621.5 c 128,-1,54
 64 1642 64 1642 48 1679 c 1,55,-1
 66 1688 l 1,56,57
 93 1624 93 1624 111 1624 c 1,58,59
 132 1635 132 1635 132 1704 c 1,60,-1
 156 1704 l 1,61,62
 156 1648 156 1648 171.5 1629 c 128,-1,63
 187 1610 187 1610 214 1610 c 1,64,-1
 427 1632 l 1,65,66
 468 1632 468 1632 524.5 1620.5 c 128,-1,67
 581 1609 581 1609 604.5 1592 c 128,-1,68
 628 1575 628 1575 637 1575 c 128,-1,69
 646 1575 646 1575 653 1586 c 128,-1,70
 660 1597 660 1597 660 1611 c 128,-1,71
 660 1625 660 1625 640 1675 c 1,72,-1
 660 1683 l 1,73,74
 680 1636 680 1636 692.5 1624 c 128,-1,75
 705 1612 705 1612 726 1612 c 2,76,-1
 761 1612 l 2,77,78
 801.625 1612 801.625 1612 814 1645 c 0,79,80
 820 1661 820 1661 824 1688 c 1,81,-1
 857 1681 l 1,82,83
 853 1649 853 1649 853 1642 c 0,84,85
 853 1586.93333333 853 1586.93333333 995 1568 c 0,86,87
 1055 1560 1055 1560 1115 1552 c 0,88,89
 1260.17721519 1532.64303797 1260.17721519 1532.64303797 1269 1485 c 1,90,91
 1269 1479 1269 1479 1273 1475 c 1,92,-1
 1285 1454 l 2,93,94
 1287 1449 1287 1449 1346 1419 c 1,95,-1
 1334 1389 l 1,96,97
 1271 1415 1271 1415 1264 1415 c 2,98,-1
 1260 1415 l 2,99,100
 1251 1415 1251 1415 1229 1393.5 c 128,-1,101
 1207 1372 1207 1372 1207 1353 c 128,-1,102
 1207 1334 1207 1334 1213 1294 c 1,103,-1
 1197 1292 l 1,104,105
 1189 1343 1189 1343 1181 1357 c 128,-1,106
 1173 1371 1173 1371 1158 1374 c 2,107,-1
 1111 1384 l 1,108,-1
 1105 1386 l 1,109,110
 1078.54545455 1377.18181818 1078.54545455 1377.18181818 1056.27272727 1368.09090909 c 0,111,112
 1007.05 1348 1007.05 1348 978 1348 c 2,113,-1
 970 1348 l 2,114,115
 955 1348 955 1348 947 1339 c 2,116,-1
 765 1155 l 1,117,-1
 771 1159 l 1,118,-1
 824 1067 l 1,119,120
 787 1045 787 1045 787 1021 c 128,-1,121
 787 997 787 997 795.5 975.5 c 0,122,123
 823.56803995 904.504369538 823.56803995 904.504369538 854.784019975 864.252184769 c 0,124,125
 909.283819629 793.976127321 909.283819629 793.976127321 912.641909814 765.98806366 c 128,-1,126
 916 738 916 738 931 735 c 1,127,128
 954 723 954 723 968 654.5 c 128,-1,129
 982 586 982 586 982 556 c 128,-1,130
 982 526 982 526 978 506 c 1,131,132
 1025 482 1025 482 1081 399 c 128,-1,133
 1137 316 1137 316 1137 254 c 1,134,-1
 1103 176 l 1,135,136
 1103 165 1103 165 1135 104 c 1,137,-1
 1127 100 l 1,138,139
 1097.45901639 155.606557377 1097.45901639 155.606557377 1090.2295082 161.803278689 c 128,-1,140
 1083 168 1083 168 1078 168 c 2,141,-1
 1051 168 l 2,142,143
 1011 168 1011 168 982 221 c 1,144,145
 981 225 981 225 967 233.5 c 0,146,147
 922.454545455 260.545454545 922.454545455 260.545454545 904 279 c 1,148,149
 901 284 901 284 899 289.5 c 128,-1,150
 897 295 897 295 887.5 295 c 0,151,152
 864.051282051 295 864.051282051 295 810 233 c 1,153,-1
 797 244 l 1,154,155
 847 301 847 301 847 326 c 1,156,-1
 843 377 l 1,157,-1
 832 420 l 2,158,159
 829 433 829 433 805.5 445.5 c 128,-1,160
 782 458 782 458 763 497.5 c 128,-1,161
 744 537 744 537 744 569 c 1,162,-1
 746 578 l 1,163,164
 730 586 730 586 714 586 c 128,-1,165
 698 586 698 586 650 551 c 1,166,-1
 636 569 l 1,167,168
 695 613 695 613 695 633 c 128,-1,169
 695 653 695 653 692 666.5 c 128,-1,170
 689 680 689 680 683.5 691 c 128,-1,171
 678 702 678 702 671 711.5 c 128,-1,172
 664 721 664 721 656.5 728 c 128,-1,173
 649 735 649 735 641.5 741.5 c 128,-1,174
 634 748 634 748 627.5 752 c 128,-1,175
 621 756 621 756 615.5 758.5 c 128,-1,176
 610 761 610 761 605 764 c 1,177,178
 568 764 568 764 568 701 c 128,-1,179
 568 638 568 638 595 543.5 c 128,-1,180
 622 449 622 449 646 444 c 1,181,-1
 652 444 l 1,182,183
 658 442 658 442 675.5 442 c 128,-1,184
 693 442 693 442 750 485 c 1,185,-1
 761 471 l 1,186,187
 720 438 720 438 708.5 421.5 c 128,-1,188
 697 405 697 405 697 385 c 2,189,-1
 697 371 l 2,190,191
 697 360 697 360 707.5 344 c 128,-1,192
 718 328 718 328 736.5 319 c 128,-1,193
 755 310 755 310 806 305 c 1,194,-1
 804 285 l 1,195,196
 783 287 783 287 748.5 287 c 128,-1,197
 714 287 714 287 697 266 c 1,198,-1
 666 186 l 1,199,200
 667 175 667 175 670.5 169.5 c 0,201,202
 679.356913183 155.581993569 679.356913183 155.581993569 742 139 c 1,203,-1
 738 121 l 1,204,205
 699 131 699 131 682.5 131 c 128,-1,206
 666 131 666 131 659.5 127.5 c 0,207,208
 651.68115942 123.289855072 651.68115942 123.289855072 640.84057971 105.144927536 c 128,-1,209
 630 87 630 87 630 6 c 1,210,-1
 619 6 l 1,211,212
 617 88 617 88 609 100.5 c 128,-1,213
 601 113 601 113 599 115.5 c 128,-1,214
 597 118 597 118 595.5 119.5 c 128,-1,215
 594 121 594 121 592 122.5 c 128,-1,216
 590 124 590 124 587.5 125 c 0,217,218
 582.5 127 582.5 127 569.25 127 c 128,-1,219
 556 127 556 127 511 115 c 1,220,-1
 505 131 l 1,221,222
 567.261146497 149.312101911 567.261146497 149.312101911 572.630573248 159.156050955 c 128,-1,223
 578 169 578 169 578 180 c 1,224,-1
 566 233 l 1,225,-1
 544 242 l 1,226,-1
 498 238 l 1,227,228
 498 236 498 236 453.5 203.5 c 128,-1,229
 409 171 409 171 406 158 c 1,230,-1
 402 96 l 2,231,232
 402 90 402 90 391 53 c 128,-1,233
 380 16 380 16 380 -4 c 128,-1,234
 380 -24 380 -24 386 -82 c 1,235,-1
 380 -82 l 1,236,237
 367.719626168 -1.4953271028 367.719626168 -1.4953271028 353 25 c 1,238,239
 345 37 345 37 330.5 37 c 128,-1,240
 316 37 316 37 267 25 c 1,241,-1
 263 39 l 1,242,243
 313 53 313 53 325 61.5 c 128,-1,244
 337 70 337 70 337 84 c 1,245,-1
 353 246 l 1,246,247
 353 260 353 260 350 267.5 c 0,248,249
 341.916666667 287.708333333 341.916666667 287.708333333 281 311 c 1,250,-1
 290 332 l 1,251,252
 338 311 338 311 356 311 c 128,-1,253
 374 311 374 311 386 328 c 1,254,-1
 408 348 l 1,255,256
 415 358 415 358 415 367 c 2,0,-1
548 1196 m 2,257,258
 548 1155 548 1155 582 1155 c 0,259,260
 591 1155 591 1155 603 1161 c 1,261,-1
 619 1174 l 1,262,-1
 650 1206 l 1,263,-1
 652 1206 l 1,264,265
 691 1248 691 1248 726 1260 c 1,266,-1
 726 1270 l 2,267,268
 726 1293.8 726 1293.8 732.5 1309.4 c 128,-1,269
 739 1325 739 1325 742 1333 c 2,270,-1
 754 1360 l 1,271,-1
 765 1427 l 1,272,273
 765 1436 765 1436 757 1448 c 1,274,-1
 705 1497 l 1,275,276
 696 1503 696 1503 687 1503 c 2,277,-1
 578 1503 l 2,278,279
 564 1503 564 1503 556 1489 c 128,-1,280
 548 1475 548 1475 548 1458 c 2,281,-1
 548 1196 l 2,257,258
EndSplineSet
EndChar

